<?xml version="1.0" encoding="UTF-8"?>
<!DOCTYPE svg PUBLIC "-//W3C//DTD SVG 1.1//EN" "http://www.w3.org/Graphics/SVG/1.1/DTD/svg11.dtd">
<svg xmlns="http://www.w3.org/2000/svg" version="1.1" width="1764px" height="2048px" style="shape-rendering:geometricPrecision; text-rendering:geometricPrecision; image-rendering:optimizeQuality; fill-rule:evenodd; clip-rule:evenodd" xmlns:xlink="http://www.w3.org/1999/xlink">
<g><path style="opacity:1" fill="#2f2d2e" d="M 131.5,-0.5 C 631.833,-0.5 1132.17,-0.5 1632.5,-0.5C 1659.17,1.00171 1684.5,7.83504 1708.5,20C 1732.99,35.4641 1748.83,57.2974 1756,85.5C 1759.36,98.8154 1761.86,112.149 1763.5,125.5C 1763.5,619.5 1763.5,1113.5 1763.5,1607.5C 1762.28,1625.81 1758.78,1643.81 1753,1661.5C 1748.18,1673.65 1741.01,1684.15 1731.5,1693C 1724.32,1698.09 1717.32,1703.42 1710.5,1709C 1699.62,1714.61 1688.62,1719.94 1677.5,1725C 1429.59,1828.41 1181.92,1932.41 934.5,2037C 923.043,2041.66 911.377,2045.16 899.5,2047.5C 887.5,2047.5 875.5,2047.5 863.5,2047.5C 850.88,2045.02 838.547,2041.18 826.5,2036C 583.159,1932.89 339.492,1830.55 95.5,1729C 81.6637,1723.05 67.997,1716.72 54.5,1710C 46.1667,1703.67 37.8333,1697.33 29.5,1691C 17.2611,1677.36 9.09447,1661.52 5,1643.5C 2.7623,1629.74 0.928965,1616.07 -0.5,1602.5C -0.5,1111.83 -0.5,621.167 -0.5,130.5C 1.07387,110.427 5.24054,90.76 12,71.5C 23.1667,43 43,23.1667 71.5,12C 91.0807,5.1311 111.081,0.964432 131.5,-0.5 Z"/></g>
<g><path style="opacity:1" fill="#fefefe" d="M 1501.5,569.5 C 1462.5,569.5 1423.5,569.5 1384.5,569.5C 1384.83,515.331 1384.5,461.331 1383.5,407.5C 1381.76,385.256 1369.76,373.089 1347.5,371C 1333.83,370.333 1320.17,370.333 1306.5,371C 1289.52,373.983 1279.02,383.816 1275,400.5C 1273.34,573.132 1273.01,745.799 1274,918.5C 1274.56,939.049 1284.73,951.883 1304.5,957C 1323.97,959.515 1343.3,958.848 1362.5,955C 1377.96,947.944 1385.8,935.777 1386,918.5C 1386.5,857.168 1386.67,795.834 1386.5,734.5C 1425.5,734.5 1464.5,734.5 1503.5,734.5C 1503.67,801.501 1503.5,868.501 1503,935.5C 1497.41,1016.76 1453.91,1059.26 1372.5,1063C 1340.5,1063.67 1308.5,1063.67 1276.5,1063C 1199.85,1055.02 1159.35,1012.52 1155,935.5C 1154.33,752.5 1154.33,569.5 1155,386.5C 1163.72,307.53 1207.88,267.03 1287.5,265C 1314.83,264.333 1342.17,264.333 1369.5,265C 1450.02,267.312 1493.86,308.479 1501,388.5C 1501.5,448.832 1501.67,509.166 1501.5,569.5 Z"/></g>
<g><path style="opacity:1" fill="#fefefe" d="M 259.5,271.5 C 348.167,271.5 436.833,271.5 525.5,271.5C 525.5,307.833 525.5,344.167 525.5,380.5C 476.833,380.5 428.167,380.5 379.5,380.5C 379.5,454.5 379.5,528.5 379.5,602.5C 426.167,602.5 472.833,602.5 519.5,602.5C 519.5,638.833 519.5,675.167 519.5,711.5C 472.833,711.5 426.167,711.5 379.5,711.5C 379.5,790.5 379.5,869.5 379.5,948.5C 428.833,948.5 478.167,948.5 527.5,948.5C 527.5,984.5 527.5,1020.5 527.5,1056.5C 438.167,1056.5 348.833,1056.5 259.5,1056.5C 259.5,794.833 259.5,533.167 259.5,271.5 Z"/></g>
<g><path style="opacity:1" fill="#fefefe" d="M 782.5,771.5 C 756.5,771.5 730.5,771.5 704.5,771.5C 704.5,866.5 704.5,961.5 704.5,1056.5C 664.833,1056.5 625.167,1056.5 585.5,1056.5C 585.5,794.833 585.5,533.167 585.5,271.5C 653.834,271.333 722.167,271.5 790.5,272C 866.081,276.584 908.248,316.417 917,391.5C 917.667,475.833 917.667,560.167 917,644.5C 910.925,727.739 866.091,770.073 782.5,771.5 Z"/></g>
<g><path style="opacity:1" fill="#c2c2c2" d="M 971.5,271.5 C 1011.5,271.5 1051.5,271.5 1091.5,271.5C 1091.5,533.5 1091.5,795.5 1091.5,1057.5C 1051.5,1057.5 1011.5,1057.5 971.5,1057.5C 971.5,795.5 971.5,533.5 971.5,271.5 Z"/></g>
<g><path style="opacity:1" fill="#fefffe" d="M 972.5,272.5 C 1011.83,272.5 1051.17,272.5 1090.5,272.5C 1090.5,533.833 1090.5,795.167 1090.5,1056.5C 1051.17,1056.5 1011.83,1056.5 972.5,1056.5C 972.5,795.167 972.5,533.833 972.5,272.5 Z"/></g>
<g><path style="opacity:1" fill="#2f2d2e" d="M 704.5,377.5 C 724.503,377.333 744.503,377.5 764.5,378C 775.504,379.081 784.337,383.915 791,392.5C 794.403,398.45 796.736,404.783 798,411.5C 798.667,483.167 798.667,554.833 798,626.5C 797.829,646.374 788.329,659.208 769.5,665C 747.863,666.392 726.196,666.892 704.5,666.5C 704.5,570.167 704.5,473.833 704.5,377.5 Z"/></g>
<g><path style="opacity:1" fill="#898889" d="M 1383.5,407.5 C 1384.5,461.331 1384.83,515.331 1384.5,569.5C 1423.5,569.5 1462.5,569.5 1501.5,569.5C 1462.34,570.499 1423,570.832 1383.5,570.5C 1383.5,516.167 1383.5,461.833 1383.5,407.5 Z"/></g>
<g><path style="opacity:1" fill="#656364" d="M 782.5,771.5 C 757.005,772.498 731.339,772.831 705.5,772.5C 705.833,867.335 705.499,962.001 704.5,1056.5C 704.5,961.5 704.5,866.5 704.5,771.5C 730.5,771.5 756.5,771.5 782.5,771.5 Z"/></g>
<g><path style="opacity:1" fill="#fefefe" d="M 425.5,1424.5 C 426.494,1414.68 426.827,1404.68 426.5,1394.5C 410.5,1394.5 394.5,1394.5 378.5,1394.5C 378.5,1378.83 378.5,1363.17 378.5,1347.5C 414.167,1347.5 449.833,1347.5 485.5,1347.5C 485.833,1383.17 485.5,1418.84 484.5,1454.5C 436.654,1491.24 384.32,1499.41 327.5,1479C 286.608,1460.06 263.108,1428.23 257,1383.5C 252.389,1337.58 267.555,1299.75 302.5,1270C 333.298,1247.7 367.632,1239.37 405.5,1245C 432.396,1248.45 456.063,1258.95 476.5,1276.5C 477.521,1277 477.688,1277.67 477,1278.5C 465.022,1293.31 452.855,1307.98 440.5,1322.5C 430.914,1314.54 420.247,1308.37 408.5,1304C 369.691,1292.83 341.858,1305.33 325,1341.5C 315.974,1370.54 321.474,1396.37 341.5,1419C 363.094,1436.36 387.094,1440.36 413.5,1431C 417.778,1429.1 421.778,1426.93 425.5,1424.5 Z"/></g>
<g><path style="opacity:1" fill="#fdfdfd" d="M 1389.5,1244.5 C 1421.5,1241.81 1451.83,1247.65 1480.5,1262C 1487.52,1266.17 1494.18,1270.84 1500.5,1276C 1489.88,1290.75 1479.38,1305.58 1469,1320.5C 1445.58,1303.1 1419.41,1295.94 1390.5,1299C 1381.07,1302.7 1377.57,1309.53 1380,1319.5C 1381.03,1322.54 1382.86,1325.04 1385.5,1327C 1391.85,1330.45 1398.51,1333.12 1405.5,1335C 1424.73,1339.45 1443.73,1344.78 1462.5,1351C 1501.15,1367.8 1514.98,1396.63 1504,1437.5C 1493.32,1464.12 1473.82,1480.28 1445.5,1486C 1399.3,1494.96 1356.63,1486.63 1317.5,1461C 1313.27,1457.73 1309.27,1454.23 1305.5,1450.5C 1316.7,1436.09 1328.37,1422.09 1340.5,1408.5C 1364.54,1428.52 1392.21,1437.68 1423.5,1436C 1438.82,1435.35 1445.32,1427.52 1443,1412.5C 1441.54,1410.04 1439.71,1407.87 1437.5,1406C 1433.29,1403.73 1428.95,1401.73 1424.5,1400C 1405.72,1395.38 1387.06,1390.38 1368.5,1385C 1320.69,1368.54 1305.19,1336.37 1322,1288.5C 1330.35,1271.15 1343.51,1258.99 1361.5,1252C 1370.72,1248.53 1380.05,1246.03 1389.5,1244.5 Z"/></g>
<g><path style="opacity:1" fill="#fefefe" d="M 610.5,1246.5 C 630.743,1246.17 650.909,1246.51 671,1247.5C 704.466,1326.74 737.632,1406.07 770.5,1485.5C 748.167,1485.5 725.833,1485.5 703.5,1485.5C 698.445,1470.63 692.778,1455.96 686.5,1441.5C 655.505,1440.33 624.505,1440.17 593.5,1441C 587.224,1455.55 581.224,1470.22 575.5,1485C 553.836,1485.5 532.169,1485.67 510.5,1485.5C 543.054,1405.5 576.387,1325.84 610.5,1246.5 Z"/></g>
<g><path style="opacity:1" fill="#fefefe" d="M 983.5,1485.5 C 983.667,1438.83 983.5,1392.17 983,1345.5C 982.283,1346.04 981.783,1346.71 981.5,1347.5C 961.552,1378.78 941.219,1409.78 920.5,1440.5C 900.24,1409.64 880.24,1378.64 860.5,1347.5C 860.44,1346.96 860.107,1346.62 859.5,1346.5C 858.5,1392.83 858.167,1439.16 858.5,1485.5C 838.167,1485.5 817.833,1485.5 797.5,1485.5C 797.5,1406.5 797.5,1327.5 797.5,1248.5C 819.836,1248.33 842.169,1248.5 864.5,1249C 883.639,1279.45 902.639,1309.95 921.5,1340.5C 940.876,1310.25 959.876,1279.75 978.5,1249C 1000.83,1248.5 1023.16,1248.33 1045.5,1248.5C 1045.5,1327.5 1045.5,1406.5 1045.5,1485.5C 1024.83,1485.5 1004.17,1485.5 983.5,1485.5 Z"/></g>
<g><path style="opacity:1" fill="#fefefe" d="M 1093.5,1248.5 C 1155.83,1248.5 1218.17,1248.5 1280.5,1248.5C 1280.5,1266.17 1280.5,1283.83 1280.5,1301.5C 1238.66,1301.17 1197,1301.5 1155.5,1302.5C 1155.5,1315.17 1155.5,1327.83 1155.5,1340.5C 1193.17,1340.5 1230.83,1340.5 1268.5,1340.5C 1268.5,1357.5 1268.5,1374.5 1268.5,1391.5C 1230.83,1391.5 1193.17,1391.5 1155.5,1391.5C 1155.5,1404.83 1155.5,1418.17 1155.5,1431.5C 1197.83,1431.5 1240.17,1431.5 1282.5,1431.5C 1282.5,1449.5 1282.5,1467.5 1282.5,1485.5C 1219.5,1485.5 1156.5,1485.5 1093.5,1485.5C 1093.5,1406.5 1093.5,1327.5 1093.5,1248.5 Z"/></g>
<g><path style="opacity:1" fill="#8b8a8a" d="M 1093.5,1248.5 C 1156,1247.5 1218.66,1247.17 1281.5,1247.5C 1281.5,1265.83 1281.5,1284.17 1281.5,1302.5C 1239.5,1302.5 1197.5,1302.5 1155.5,1302.5C 1197,1301.5 1238.66,1301.17 1280.5,1301.5C 1280.5,1283.83 1280.5,1266.17 1280.5,1248.5C 1218.17,1248.5 1155.83,1248.5 1093.5,1248.5 Z"/></g>
<g><path style="opacity:1" fill="#302e2f" d="M 666.5,1389.5 C 648.674,1390.5 630.674,1390.83 612.5,1390.5C 621.375,1367.71 630.541,1345.04 640,1322.5C 649.382,1344.6 658.215,1366.93 666.5,1389.5 Z"/></g>
<g><path style="opacity:1" fill="#a5a5a5" d="M 860.5,1347.5 C 859.833,1393.5 859.167,1439.5 858.5,1485.5C 858.167,1439.16 858.5,1392.83 859.5,1346.5C 860.107,1346.62 860.44,1346.96 860.5,1347.5 Z"/></g>
<g><path style="opacity:1" fill="#939293" d="M 983.5,1485.5 C 982.833,1439.5 982.167,1393.5 981.5,1347.5C 981.783,1346.71 982.283,1346.04 983,1345.5C 983.5,1392.17 983.667,1438.83 983.5,1485.5 Z"/></g>
<g><path style="opacity:1" fill="#e2e2e2" d="M 666.5,1389.5 C 667.043,1389.56 667.376,1389.89 667.5,1390.5C 649.004,1391.83 630.671,1391.83 612.5,1390.5C 630.674,1390.83 648.674,1390.5 666.5,1389.5 Z"/></g>
<g><path style="opacity:1" fill="#7d7c7d" d="M 378.5,1394.5 C 394.5,1394.5 410.5,1394.5 426.5,1394.5C 426.827,1404.68 426.494,1414.68 425.5,1424.5C 425.5,1414.83 425.5,1405.17 425.5,1395.5C 409.658,1395.83 393.991,1395.5 378.5,1394.5 Z"/></g>
<g><path style="opacity:1" fill="#b9b8b8" d="M 1220.5,1768.5 C 995.5,1767.17 770.5,1767.17 545.5,1768.5C 544.527,1768.01 543.527,1767.51 542.5,1767C 769.833,1766.33 997.167,1766.33 1224.5,1767C 1223.26,1767.79 1221.92,1768.29 1220.5,1768.5 Z"/></g>
<g><path style="opacity:1" fill="#fefefe" d="M 545.5,1768.5 C 770.5,1767.17 995.5,1767.17 1220.5,1768.5C 1105.57,1806.36 990.574,1844.03 875.5,1881.5C 765.488,1843.83 655.488,1806.16 545.5,1768.5 Z"/></g>
</svg>
