<?xml version="1.0" standalone="no"?>
<!DOCTYPE svg PUBLIC "-//W3C//DTD SVG 20010904//EN"
 "http://www.w3.org/TR/2001/REC-SVG-20010904/DTD/svg10.dtd">
<svg version="1.0" xmlns="http://www.w3.org/2000/svg"
 width="3840.000000pt" height="2160.000000pt" viewBox="0 0 3840.000000 2160.000000"
 preserveAspectRatio="xMidYMid meet">

<g transform="translate(0.000000,2160.000000) scale(0.100000,-0.100000)"
fill="#000000" stroke="none">
<path d="M1343 10814 c3 -2737 8 -4978 10 -4980 1 -2 102 15 222 36 121 22
234 43 250 45 17 3 111 21 210 40 99 19 326 61 505 95 564 104 947 176 988
185 l22 5 0 1825 0 1825 28 1 c15 0 330 1 700 2 l673 2 4 125 c2 69 7 346 10
615 3 270 8 691 12 938 l6 447 -716 0 -717 0 0 800 0 800 418 0 c386 1 1224
10 1229 14 3 3 9 59 58 561 25 253 47 480 50 505 2 25 7 77 10 115 7 76 14
150 20 205 2 19 6 71 10 115 3 44 15 168 25 275 28 283 33 346 31 368 -1 9
-415 12 -2033 12 l-2031 0 6 -4976z"/>
<path d="M36740 15630 c-233 -20 -266 -23 -670 -55 -173 -14 -340 -27 -370
-29 -30 -3 -89 -8 -130 -11 -41 -3 -100 -8 -130 -10 -30 -3 -84 -7 -120 -10
-58 -4 -921 -77 -1075 -90 -118 -10 -672 -54 -765 -61 -52 -4 -102 -8 -110
-10 -8 -1 -25 -3 -37 -3 l-23 -1 0 -4499 0 -4499 83 -11 c45 -6 174 -18 287
-26 113 -8 230 -17 260 -20 65 -5 176 -13 280 -20 41 -3 104 -7 140 -10 36 -3
164 -12 285 -20 121 -8 310 -22 420 -30 110 -8 234 -17 275 -20 41 -3 104 -8
140 -11 149 -11 1032 -75 1110 -79 47 -3 112 -8 145 -10 246 -17 275 -17 279
-4 10 31 16 372 22 1276 l7 951 -734 1 c-404 0 -749 0 -766 0 l-33 1 0 810 0
810 653 0 652 0 -1 965 c0 531 -4 968 -8 972 -4 4 -307 7 -674 8 l-667 0 -3
641 -2 642 127 6 c71 4 164 9 208 11 44 3 139 7 210 10 72 3 175 8 230 10 280
15 732 35 766 35 l39 0 0 1205 0 1205 -52 -1 c-29 -1 -141 -9 -248 -19z"/>
<path d="M23537 15313 c-2 -5 -1 -48 4 -98 4 -49 10 -130 14 -180 3 -49 8
-108 10 -130 2 -22 7 -83 10 -135 3 -52 24 -315 45 -585 22 -269 42 -521 45
-560 3 -38 8 -95 10 -125 6 -71 42 -548 50 -665 3 -49 8 -103 10 -120 2 -16 7
-73 10 -125 3 -52 8 -113 10 -135 2 -22 7 -83 10 -135 3 -52 17 -236 30 -408
14 -172 25 -320 25 -330 0 -18 -34 56 -80 178 -16 41 -45 113 -65 160 -20 47
-88 213 -152 370 -64 157 -155 382 -203 500 -48 118 -149 368 -224 555 -76
187 -178 437 -227 555 -48 118 -156 382 -238 585 -186 460 -292 719 -297 724
-4 4 -219 -30 -384 -60 -25 -4 -63 -11 -85 -14 -22 -4 -105 -19 -185 -35 -192
-38 -697 -137 -735 -145 -16 -3 -46 -8 -65 -11 -19 -3 -93 -17 -165 -32 l-130
-28 -3 -3882 -2 -3882 1006 0 1006 0 -6 98 c-3 53 -8 183 -11 287 -3 105 -14
411 -25 680 -31 769 -59 1529 -65 1775 l-5 225 54 -109 c53 -106 165 -356 251
-561 23 -55 74 -172 112 -260 66 -148 127 -292 343 -805 45 -107 88 -208 95
-225 140 -327 236 -555 340 -805 158 -381 236 -561 248 -578 6 -8 24 -11 51
-8 22 3 95 8 161 11 66 4 136 8 155 10 19 1 76 6 125 9 99 8 437 36 785 66
124 11 268 22 320 26 52 4 97 8 99 10 4 4 2 979 -4 1994 -1 168 -5 897 -9
1620 -4 723 -9 1371 -11 1440 -2 69 -7 696 -11 1393 -4 698 -8 1299 -9 1335
-2 37 -3 181 -4 320 l-1 252 -1014 0 c-558 0 -1017 -3 -1019 -7z"/>
<path d="M7666 15179 c-115 -8 -207 -17 -241 -24 -11 -3 -36 -7 -55 -9 -124
-18 -295 -63 -440 -118 -459 -173 -818 -490 -1090 -962 -255 -444 -448 -1120
-524 -1841 -35 -323 -57 -1468 -37 -1895 11 -251 39 -590 56 -679 1 -9 6 -41
10 -71 18 -142 24 -181 56 -350 155 -806 418 -1392 806 -1801 91 -96 243 -223
340 -285 515 -330 1246 -441 1973 -299 486 95 904 361 1249 795 282 354 476
825 615 1490 19 91 37 188 40 215 4 28 11 75 16 105 25 146 62 474 75 670 3
47 8 110 10 140 13 156 26 689 21 860 -10 315 -17 501 -21 565 -2 33 -7 101
-10 150 -11 168 -46 519 -65 655 -11 74 -22 155 -25 180 -12 88 -67 347 -107
505 -179 709 -500 1245 -941 1576 -187 140 -420 259 -647 328 -80 25 -221 59
-275 66 -22 3 -54 8 -71 10 -144 23 -548 37 -718 24z m282 -1759 c69 -67 111
-168 151 -370 31 -161 51 -339 66 -595 4 -60 8 -128 11 -150 26 -283 26 -2423
-1 -2620 -2 -16 -6 -84 -10 -150 -25 -515 -103 -908 -199 -1010 -43 -45 -98
-49 -145 -9 -122 102 -219 630 -236 1274 -5 206 -5 2186 0 2375 4 146 14 333
19 361 2 11 7 60 11 109 22 289 82 584 144 701 34 65 96 124 132 124 9 0 35
-18 57 -40z"/>
<path d="M10822 11074 l3 -4109 1029 -3 c567 -1 1033 1 1037 5 4 5 10 109 13
233 4 124 9 254 11 290 2 36 7 151 10 255 3 105 8 231 10 280 3 50 7 171 10
270 3 99 8 221 10 270 3 50 10 214 15 365 13 330 16 379 23 386 10 10 303
-941 687 -2231 38 -126 81 -269 96 -317 l27 -88 63 0 c88 0 482 28 1074 75
163 13 549 46 590 50 25 2 77 7 115 10 72 6 263 25 290 29 36 5 55 -63 -245
871 -126 391 -249 775 -275 855 -25 80 -77 240 -115 355 -37 116 -116 359
-175 540 -59 182 -131 404 -161 495 l-55 165 78 70 c161 143 280 286 398 475
218 352 377 817 416 1215 13 138 7 653 -11 835 -39 406 -165 794 -391 1208
-152 278 -417 594 -654 782 -165 130 -400 266 -563 325 -126 45 -485 81 -1022
101 -96 3 -202 8 -235 9 -33 2 -211 6 -395 10 -184 4 -357 9 -385 10 -27 2
-337 6 -688 10 l-637 8 2 -4109z m2192 2210 c254 -65 424 -280 501 -634 32
-146 31 -635 -1 -882 -10 -74 -80 -269 -130 -363 -70 -128 -187 -245 -304
-302 -47 -23 -102 -45 -122 -49 l-38 -6 0 1126 c0 1027 1 1126 16 1126 9 0 44
-7 78 -16z"/>
<path d="M15885 15137 c-9 -32 -21 -842 -23 -1519 l-3 -558 576 0 575 0 2
-3027 3 -3028 1080 0 1080 0 3 2843 2 2842 585 0 585 0 0 1055 0 1055 -42 1
c-24 0 -50 2 -58 3 -8 2 -58 6 -110 10 -52 4 -147 11 -210 16 -63 6 -144 12
-180 15 -85 7 -140 11 -415 35 -126 10 -363 31 -525 44 -162 14 -329 28 -370
31 -41 3 -100 7 -130 10 -30 3 -113 9 -185 15 -150 12 -173 13 -510 40 -137
11 -277 22 -310 25 -151 13 -1027 85 -1085 90 -36 2 -101 7 -145 10 -44 3
-103 8 -132 11 -49 5 -53 4 -58 -19z"/>
<path d="M26040 10830 l0 -4100 1120 0 1120 0 0 4100 0 4100 -1120 0 -1120 0
0 -4100z"/>
<path d="M32355 14734 c-742 -42 -1110 -63 -1220 -69 -266 -15 -663 -36 -755
-40 -58 -3 -141 -7 -185 -10 -44 -2 -129 -7 -190 -10 -60 -3 -146 -7 -190 -10
-75 -4 -180 -10 -390 -20 -49 -3 -133 -7 -185 -10 -517 -28 -666 -38 -673 -44
-17 -17 -27 -348 -37 -1191 -5 -476 -10 -880 -10 -897 l0 -33 580 0 580 0 0
-2970 0 -2970 1095 0 1095 0 0 3095 0 3095 611 0 611 0 -6 1018 c-4 559 -9
1036 -12 1060 l-5 43 -77 -3 c-42 -1 -329 -17 -637 -34z"/>
</g>
</svg>
