<?xml version="1.0" encoding="UTF-8"?>
<!DOCTYPE svg PUBLIC "-//W3C//DTD SVG 1.1//EN" "http://www.w3.org/Graphics/SVG/1.1/DTD/svg11.dtd">
<svg xmlns="http://www.w3.org/2000/svg" version="1.1" width="607px" height="100px" style="shape-rendering:geometricPrecision; text-rendering:geometricPrecision; image-rendering:optimizeQuality; fill-rule:evenodd; clip-rule:evenodd" xmlns:xlink="http://www.w3.org/1999/xlink">
<g><path style="opacity:0.885" fill="#fefefe" d="M 41.5,-0.5 C 44.1667,-0.5 46.8333,-0.5 49.5,-0.5C 56.9973,4.13657 64.664,8.63657 72.5,13C 74.0488,14.214 75.2155,15.714 76,17.5C 76.8324,28.5151 76.6658,39.5151 75.5,50.5C 72.3388,51.9131 69.3388,53.5797 66.5,55.5C 65.6675,44.1813 65.1675,32.848 65,21.5C 55.0125,15.6637 45.1792,9.66374 35.5,3.5C 37.8072,2.5082 39.8072,1.17486 41.5,-0.5 Z"/></g>
<g><path style="opacity:0.894" fill="#fefefe" d="M -0.5,35.5 C -0.5,31.8333 -0.5,28.1667 -0.5,24.5C 8.9929,18.0227 18.9929,12.356 29.5,7.5C 39.7491,12.2922 49.7491,17.6256 59.5,23.5C 60.8333,27.5 60.8333,31.5 59.5,35.5C 49.8459,29.7577 40.0126,24.4244 30,19.5C 19.7606,24.7029 9.59397,30.0363 -0.5,35.5 Z"/></g>
<g><path style="opacity:0.914" fill="#fefefe" d="M 80.5,19.5 C 86.649,19.4599 90.649,22.6266 92.5,29C 91.6803,38.4226 91.1803,47.9226 91,57.5C 90.0701,59.5524 88.5701,61.0524 86.5,62C 74.3374,68.5803 62.3374,75.4137 50.5,82.5C 49.2023,78.2846 49.2023,74.1179 50.5,70C 60.7482,64.2931 70.9149,58.4597 81,52.5C 81.8257,41.3255 81.659,30.3255 80.5,19.5 Z"/></g>
<g><path style="opacity:0.893" fill="#25d1e9" d="M 527.5,19.5 C 530.518,19.3354 533.518,19.502 536.5,20C 545.88,29.458 554.546,39.458 562.5,50C 554.032,59.9701 545.366,69.8035 536.5,79.5C 533.216,80.657 529.882,80.8236 526.5,80C 535.382,69.7394 544.382,59.5727 553.5,49.5C 544.415,39.7561 535.748,29.7561 527.5,19.5 Z"/></g>
<g><path style="opacity:0.879" fill="#25d1e8" d="M 541.5,20.5 C 544.304,19.3622 547.304,19.1955 550.5,20C 556.667,26.8333 562.833,33.6667 569,40.5C 569.624,42.4645 569.124,44.1311 567.5,45.5C 566.5,46.8333 565.5,46.8333 564.5,45.5C 557.151,36.8204 549.485,28.4871 541.5,20.5 Z"/></g>
<g><path style="opacity:0.882" fill="#28d1e9" d="M 581.5,19.5 C 584.518,19.3354 587.518,19.502 590.5,20C 585.017,26.3167 579.351,32.4834 573.5,38.5C 570.75,37.2842 569.583,35.2842 570,32.5C 573.67,27.9983 577.503,23.665 581.5,19.5 Z"/></g>
<g><path style="opacity:0.889" fill="#25d0e9" d="M 595.5,19.5 C 598.85,19.335 602.183,19.5017 605.5,20C 593.786,32.0451 582.452,44.3784 571.5,57C 577.632,64.6353 583.965,72.1353 590.5,79.5C 587.554,80.6548 584.554,80.8214 581.5,80C 574.572,72.9133 568.239,65.4133 562.5,57.5C 573.492,44.8405 584.492,32.1738 595.5,19.5 Z"/></g>
<g><path style="opacity:0.91" fill="#fefefe" d="M 41.5,99.5 C 40.5,99.5 39.5,99.5 38.5,99.5C 27.3924,92.7742 16.0591,86.2742 4.5,80C 2.34079,78.9409 0.674125,77.4409 -0.5,75.5C -0.5,64.5 -0.5,53.5 -0.5,42.5C 9.24334,35.8747 19.41,29.8747 30,24.5C 33.4034,26.1187 36.57,28.1187 39.5,30.5C 29.5833,36.3745 19.75,42.3745 10,48.5C 9.18678,56.0799 9.35344,63.5799 10.5,71C 20.7482,76.7069 30.9149,82.5403 41,88.5C 41.4986,92.1516 41.6653,95.8183 41.5,99.5 Z"/></g>
<g><path style="opacity:0.824" fill="#fcfefe" d="M 122.5,26.5 C 125.833,26.5 129.167,26.5 132.5,26.5C 132.664,29.1873 132.497,31.854 132,34.5C 128.58,36.1251 125.413,38.1251 122.5,40.5C 121.28,35.8167 121.28,31.1501 122.5,26.5 Z"/></g>
<g><path style="opacity:0.887" fill="#fefefe" d="M 141.5,26.5 C 144.85,26.335 148.183,26.5017 151.5,27C 156.628,32.7805 161.628,38.6138 166.5,44.5C 171.372,38.6138 176.372,32.7805 181.5,27C 184.817,26.5017 188.15,26.335 191.5,26.5C 191.5,41.5 191.5,56.5 191.5,71.5C 187.833,71.5 184.167,71.5 180.5,71.5C 180.666,62.1607 180.5,52.8274 180,43.5C 175.69,49.3106 171.19,54.9773 166.5,60.5C 161.81,54.9773 157.31,49.3106 153,43.5C 152.5,52.8274 152.334,62.1607 152.5,71.5C 148.833,71.5 145.167,71.5 141.5,71.5C 141.5,56.5 141.5,41.5 141.5,26.5 Z"/></g>
<g><path style="opacity:0.921" fill="#f6f6f6" d="M 201.5,26.5 C 204.909,26.2493 208.242,26.5827 211.5,27.5C 216.523,33.3554 221.356,39.3554 226,45.5C 230.644,39.3554 235.477,33.3554 240.5,27.5C 243.758,26.5827 247.091,26.2493 250.5,26.5C 250.5,41.5 250.5,56.5 250.5,71.5C 246.833,71.5 243.167,71.5 239.5,71.5C 239.666,62.4938 239.5,53.4938 239,44.5C 235.024,49.9766 230.858,55.3099 226.5,60.5C 221.773,55.3921 217.273,50.0588 213,44.5C 212.5,53.4938 212.334,62.4938 212.5,71.5C 208.833,71.5 205.167,71.5 201.5,71.5C 201.5,56.5 201.5,41.5 201.5,26.5 Z"/></g>
<g><path style="opacity:0.904" fill="#fefefe" d="M 259.5,26.5 C 262.518,26.3354 265.518,26.502 268.5,27C 269,27.5 269.5,28 270,28.5C 270.333,37.8333 270.667,47.1667 271,56.5C 274.247,62.6118 279.08,64.1118 285.5,61C 287.487,59.6811 288.654,57.8477 289,55.5C 289.333,46.1667 289.667,36.8333 290,27.5C 293.394,26.5442 296.894,26.2108 300.5,26.5C 300.666,35.8393 300.5,45.1726 300,54.5C 298.401,66.0979 291.734,72.0979 280,72.5C 271.075,72.5404 264.741,68.5404 261,60.5C 259.567,49.2436 259.067,37.9102 259.5,26.5 Z"/></g>
<g><path style="opacity:0.872" fill="#fefefe" d="M 305.5,26.5 C 317.833,26.5 330.167,26.5 342.5,26.5C 342.5,29.8333 342.5,33.1667 342.5,36.5C 338.167,36.5 333.833,36.5 329.5,36.5C 329.5,48.1667 329.5,59.8333 329.5,71.5C 325.833,71.5 322.167,71.5 318.5,71.5C 318.5,59.8333 318.5,48.1667 318.5,36.5C 314.167,36.5 309.833,36.5 305.5,36.5C 305.5,33.1667 305.5,29.8333 305.5,26.5 Z"/></g>
<g><path style="opacity:0.899" fill="#fefefe" d="M 359.5,26.5 C 362.518,26.3354 365.518,26.502 368.5,27C 369.308,27.3076 369.975,27.8076 370.5,28.5C 376.167,42.5 381.833,56.5 387.5,70.5C 383.555,71.4909 379.555,71.8242 375.5,71.5C 374.801,68.4271 373.801,65.4271 372.5,62.5C 366.833,61.1667 361.167,61.1667 355.5,62.5C 353.895,65.3138 352.895,68.3138 352.5,71.5C 348.445,71.8242 344.445,71.4909 340.5,70.5C 345.667,57.5 350.833,44.5 356,31.5C 356.697,29.4156 357.864,27.7489 359.5,26.5 Z M 363.5,39.5 C 365.896,43.52 367.396,47.8533 368,52.5C 364.992,51.6317 362.159,51.2983 359.5,51.5C 361.043,47.5388 362.376,43.5388 363.5,39.5 Z"/></g>
<g><path style="opacity:0.906" fill="#fefefe" d="M 392.5,26.5 C 400.84,26.3336 409.173,26.5003 417.5,27C 426.654,30.4615 429.154,36.6282 425,45.5C 424.075,46.0465 423.242,46.7132 422.5,47.5C 429.042,51.6264 430.875,57.2931 428,64.5C 425.736,67.4335 422.902,69.6001 419.5,71C 410.506,71.4998 401.506,71.6664 392.5,71.5C 392.5,56.5 392.5,41.5 392.5,26.5 Z M 403.5,35.5 C 406.85,35.335 410.183,35.5017 413.5,36C 416.167,38.3333 416.167,40.6667 413.5,43C 410.183,43.4983 406.85,43.665 403.5,43.5C 403.5,40.8333 403.5,38.1667 403.5,35.5 Z M 403.5,52.5 C 407.182,52.3347 410.848,52.5014 414.5,53C 419.368,55.4772 419.701,58.4772 415.5,62C 411.514,62.4988 407.514,62.6655 403.5,62.5C 403.5,59.1667 403.5,55.8333 403.5,52.5 Z"/></g>
<g><path style="opacity:0.874" fill="#fefefe" d="M 436.5,26.5 C 439.518,26.3354 442.518,26.502 445.5,27C 446,27.5 446.5,28 447,28.5C 447.5,39.495 447.667,50.495 447.5,61.5C 454.5,61.5 461.5,61.5 468.5,61.5C 468.5,64.8333 468.5,68.1667 468.5,71.5C 457.833,71.5 447.167,71.5 436.5,71.5C 436.5,56.5 436.5,41.5 436.5,26.5 Z"/></g>
<g><path style="opacity:0.878" fill="#fefefe" d="M 475.5,26.5 C 486.5,26.5 497.5,26.5 508.5,26.5C 508.5,29.8333 508.5,33.1667 508.5,36.5C 500.5,36.5 492.5,36.5 484.5,36.5C 484.5,38.8333 484.5,41.1667 484.5,43.5C 490.833,43.5 497.167,43.5 503.5,43.5C 503.5,46.8333 503.5,50.1667 503.5,53.5C 497.167,53.5 490.833,53.5 484.5,53.5C 484.5,56.1667 484.5,58.8333 484.5,61.5C 492.5,61.5 500.5,61.5 508.5,61.5C 508.5,64.8333 508.5,68.1667 508.5,71.5C 497.147,71.8322 485.814,71.4988 474.5,70.5C 473.351,56.5451 473.184,42.5451 474,28.5C 474.717,27.9558 475.217,27.2891 475.5,26.5 Z"/></g>
<g><path style="opacity:0.854" fill="#fefefe" d="M 129.5,39.5 C 130.5,39.5 131.5,39.5 132.5,39.5C 132.5,50.1667 132.5,60.8333 132.5,71.5C 128.833,71.5 125.167,71.5 121.5,71.5C 121.334,62.4938 121.5,53.4938 122,44.5C 124.824,43.1819 127.324,41.5152 129.5,39.5 Z"/></g>
<g><path style="opacity:0.87" fill="#fefefe" d="M 23.5,45.5 C 25.1368,50.7742 26.1368,56.4408 26.5,62.5C 31.4604,64.966 36.2937,67.6327 41,70.5C 41.8265,74.5411 41.6599,78.5411 40.5,82.5C 31.9177,77.6261 23.4177,72.6261 15,67.5C 14.3333,61.8333 14.3333,56.1667 15,50.5C 17.9788,48.933 20.8121,47.2663 23.5,45.5 Z"/></g>
<g><path style="opacity:0.879" fill="#25d0e8" d="M 579.5,52.5 C 588.096,61.4322 596.763,70.4322 605.5,79.5C 600.516,81.4931 596.349,80.4931 593,76.5C 587.667,70.5 582.333,64.5 577,58.5C 576.972,56.2134 577.805,54.2134 579.5,52.5 Z"/></g>
<g><path style="opacity:0.865" fill="#26d0e8" d="M 557.5,60.5 C 559.809,61.3877 561.476,63.0544 562.5,65.5C 558.689,70.4791 554.689,75.3124 550.5,80C 547.5,80.6667 544.5,80.6667 541.5,80C 547.447,73.8978 552.78,67.3978 557.5,60.5 Z"/></g>
<g><path style="opacity:0.888" fill="#fefefe" d="M 52.5,99.5 C 51.5,99.5 50.5,99.5 49.5,99.5C 49.2065,95.5633 49.5399,91.73 50.5,88C 64.1667,80.1667 77.8333,72.3333 91.5,64.5C 91.8333,65 92.1667,65.5 92.5,66C 92.0653,70.1895 91.0653,74.1895 89.5,78C 76.7761,84.6885 64.4428,91.8551 52.5,99.5 Z"/></g>
</svg>
