<?xml version="1.0" standalone="no"?>
<!DOCTYPE svg PUBLIC "-//W3C//DTD SVG 20010904//EN"
 "http://www.w3.org/TR/2001/REC-SVG-20010904/DTD/svg10.dtd">
<svg version="1.0" xmlns="http://www.w3.org/2000/svg"
 width="2068.000000pt" height="964.000000pt" viewBox="0 0 2068.000000 964.000000"
 preserveAspectRatio="xMidYMid meet">

<g transform="translate(0.000000,964.000000) scale(0.100000,-0.100000)"
fill="#000000" stroke="none">
<path d="M3540 8640 c-625 -48 -1182 -223 -1708 -536 -833 -496 -1465 -1325
-1720 -2254 -40 -145 -97 -409 -90 -415 2 -2 44 11 93 30 50 18 144 46 210 61
112 26 135 28 340 29 173 0 239 -4 310 -18 338 -68 611 -209 860 -447 197
-187 347 -253 580 -253 144 0 241 23 351 82 40 22 216 152 391 288 175 137
352 272 393 300 161 108 382 201 584 245 88 19 130 22 326 22 195 0 238 -3
324 -22 228 -51 457 -151 627 -274 76 -55 1119 -956 1146 -990 8 -10 -58 -92
-273 -338 -157 -179 -288 -326 -292 -328 -5 -1 -240 199 -523 445 -283 247
-536 465 -564 486 -221 169 -546 192 -805 56 -30 -16 -199 -142 -375 -280
-176 -138 -364 -280 -417 -316 -170 -112 -356 -189 -568 -234 -89 -19 -137
-23 -315 -23 -180 -1 -226 2 -321 21 -330 68 -597 208 -856 451 -140 133 -232
188 -379 228 -87 24 -289 25 -379 1 -130 -34 -236 -96 -368 -217 -108 -98
-121 -113 -117 -138 52 -315 96 -495 177 -730 136 -395 325 -747 577 -1076 97
-126 97 -126 105 -126 4 0 152 136 329 303 177 166 347 323 377 348 200 167
466 290 738 341 150 28 410 30 547 5 238 -44 434 -120 620 -241 88 -58 155
-112 289 -235 151 -139 288 -199 476 -208 117 -6 208 9 310 50 94 39 155 80
285 193 274 240 538 370 860 424 113 19 155 22 315 17 134 -4 212 -11 283 -26
276 -60 528 -184 741 -366 61 -53 80 -64 87 -54 27 41 123 228 165 319 385
858 444 1840 163 2735 -103 326 -249 634 -448 943 l-66 103 -50 -6 c-120 -15
-249 -62 -339 -124 -24 -17 -93 -74 -153 -126 -135 -120 -254 -202 -391 -270
-377 -188 -805 -221 -1212 -93 -128 40 -335 143 -445 223 -49 35 -140 111
-201 167 -182 169 -307 227 -509 235 -171 7 -306 -28 -435 -115 -38 -26 -273
-238 -521 -472 -249 -234 -458 -428 -465 -432 -8 -5 -115 102 -308 308 -163
174 -296 320 -296 324 0 11 900 857 982 923 315 253 740 383 1135 348 385 -35
705 -178 986 -440 120 -112 162 -143 255 -190 192 -97 450 -93 654 10 55 28
108 69 280 215 96 82 206 158 296 203 34 17 62 35 62 39 -1 10 -145 123 -268
209 -526 368 -1120 591 -1777 668 -160 19 -521 27 -675 15z"/>
<path d="M19325 8265 c-133 -29 -240 -88 -319 -176 -87 -97 -126 -217 -126
-395 0 -199 47 -321 167 -434 111 -104 227 -144 418 -143 101 0 132 4 201 27
197 64 316 193 359 390 23 105 17 291 -14 387 -42 131 -144 244 -278 306 -106
49 -283 66 -408 38z"/>
<path d="M11675 6449 c-217 -26 -492 -101 -664 -180 -231 -107 -443 -302 -548
-504 -81 -158 -123 -352 -123 -573 0 -347 96 -583 324 -800 197 -187 367 -270
945 -462 486 -161 580 -200 728 -302 129 -89 182 -168 203 -304 26 -165 -34
-320 -168 -429 -205 -170 -514 -240 -911 -206 -132 11 -403 59 -418 74 -3 4
-21 130 -39 279 -18 150 -36 292 -39 316 l-6 42 -305 0 -304 0 0 -37 c0 -21
-9 -282 -21 -580 -13 -299 -19 -546 -16 -550 10 -10 305 -77 468 -107 377 -68
584 -90 869 -89 251 0 367 10 580 53 705 141 1166 541 1255 1090 19 122 20
361 0 471 -38 220 -132 390 -301 548 -101 95 -213 167 -375 245 -175 84 -263
115 -634 230 -365 113 -416 131 -555 202 -237 121 -324 228 -337 414 -9 129
33 238 127 330 151 148 411 217 724 191 132 -11 302 -38 401 -64 l50 -13 52
-255 c29 -140 52 -255 53 -257 0 -1 138 -1 308 0 l307 3 17 425 c10 234 17
461 15 505 l-2 80 -115 32 c-227 64 -531 125 -839 169 -129 18 -592 27 -706
13z"/>
<path d="M15915 6453 c-87 -8 -293 -46 -374 -69 -321 -92 -591 -246 -810 -464
-434 -431 -639 -1040 -618 -1840 12 -424 80 -749 221 -1045 274 -573 733 -898
1396 -986 120 -16 454 -16 585 0 497 61 984 244 1447 543 l98 63 -161 255
c-89 140 -163 257 -164 259 -2 2 -44 -20 -93 -48 -148 -84 -389 -197 -517
-241 -922 -316 -1545 -41 -1751 773 -27 105 -64 337 -64 400 l0 37 1369 0
c1296 0 1370 1 1375 18 31 110 43 650 18 827 -49 344 -150 636 -298 861 -36
55 -104 135 -179 210 -264 265 -556 399 -967 443 -90 10 -420 12 -513 4z m415
-723 c41 -12 106 -38 145 -58 92 -47 215 -170 272 -272 79 -140 137 -368 150
-585 l6 -115 -890 0 -890 0 14 87 c78 487 307 818 641 928 105 34 192 45 337
41 104 -3 159 -10 215 -26z"/>
<path d="M19205 6379 c-396 -15 -728 -28 -738 -28 -16 -1 -17 -18 -15 -248 l3
-246 280 -72 280 -72 3 -1474 2 -1475 -285 -74 -285 -75 0 -247 0 -248 1045 0
1045 0 0 248 0 247 -207 54 c-115 30 -241 63 -280 74 l-73 19 0 1824 0 1824
-27 -1 c-16 -1 -352 -14 -748 -30z"/>
<path d="M2424 2481 c-88 -22 -202 -75 -270 -127 -80 -61 -645 -595 -639 -604
8 -13 260 -181 359 -239 713 -419 1581 -593 2421 -485 713 91 1405 394 1965
863 115 97 310 281 310 294 0 20 -153 160 -214 196 -223 132 -505 143 -734 27
-82 -42 -118 -68 -252 -186 -217 -190 -433 -308 -685 -373 -153 -39 -246 -51
-415 -50 -221 0 -385 32 -595 113 -191 75 -344 175 -526 345 -115 107 -181
152 -279 192 -135 54 -310 68 -446 34z"/>
</g>
</svg>
