<svg version="1.1" id="Layer_1" xmlns="http://www.w3.org/2000/svg" xmlns:xlink="http://www.w3.org/1999/xlink" x="0px" y="0px"
	 width="100%" viewBox="0 0 2068 964" enable-background="new 0 0 2068 964" xml:space="preserve">
<path fill="#000000" opacity="1.000000" stroke="none" 
	d="
M1.000004,420.000000 
	C1.000000,280.342773 1.000000,140.685547 1.000000,1.028321 
	C1.157215,1.018881 1.314430,1.001164 1.471645,1.001164 
	C690.591675,0.999998 1379.711792,1.000000 2068.916016,1.000000 
	C2068.916016,322.255554 2068.916016,643.511169 2068.916016,964.883362 
	C1379.666626,964.883362 690.333313,964.883362 1.000003,964.878174 
	C1.000000,825.549316 1.000000,686.225525 1.400460,546.315552 
	C2.199508,546.729004 2.735993,547.696899 2.975300,548.733398 
	C5.306260,558.829102 7.587531,568.936340 9.931810,579.443909 
	C14.240151,593.362122 18.024193,607.051514 22.908024,620.336548 
	C26.885941,631.157288 32.180222,641.494080 36.950508,652.407776 
	C41.996582,661.999084 46.333149,671.659363 52.110954,680.362976 
	C62.610611,696.179443 74.028168,711.384399 84.904480,726.955078 
	C86.670753,729.483704 87.953911,729.478149 89.978241,727.570068 
	C106.618912,711.885193 123.587234,696.533508 139.858307,680.475037 
	C156.508804,664.041992 174.424500,649.688232 196.110031,640.389282 
	C213.582764,632.896790 231.791153,628.335754 250.679840,627.116577 
	C267.363220,626.039734 283.925262,627.785706 300.178894,631.995117 
	C326.218781,638.739075 349.263367,650.939514 368.915253,669.412048 
	C373.739227,673.946533 378.255676,678.951843 383.619385,682.741638 
	C399.946930,694.277710 417.886475,699.880066 438.238953,697.146118 
	C454.104553,695.014832 467.813171,688.689148 479.397064,677.993042 
	C494.812958,663.758667 511.268616,651.300171 530.580994,642.647522 
	C547.363953,635.128235 564.882385,630.972595 583.418640,628.896851 
	C585.904236,628.675659 587.977539,628.391357 590.377808,628.064453 
	C591.138672,627.959229 591.572510,627.896606 592.464600,627.897217 
	C638.804260,628.215271 678.848755,643.371216 712.119690,675.411194 
	C713.021729,674.374878 713.583130,673.942871 713.867065,673.372620 
	C720.656433,659.739014 727.956238,646.325317 734.015198,632.373047 
	C739.133057,620.587952 742.806030,608.175354 747.435669,595.825928 
	C748.118835,594.191284 748.460999,592.764587 748.854248,591.352173 
	C755.366394,567.967407 760.733215,544.370178 762.458618,519.770935 
	C762.807068,496.008270 762.820190,472.507294 762.897583,448.585327 
	C760.974121,434.928802 759.697083,421.536346 756.817505,408.497833 
	C753.283752,392.497131 748.410461,376.792236 744.072449,360.569763 
	C742.669556,356.152313 741.409729,352.087921 739.935669,348.102783 
	C729.623291,320.223114 715.468506,294.314301 699.676208,269.215851 
	C696.432922,264.061340 692.389282,261.962189 686.553467,263.078094 
	C684.302795,263.508453 682.086426,264.114349 679.842834,264.585510 
	C663.244019,268.071411 650.432861,278.015503 638.417664,289.155212 
	C622.012024,304.365295 603.244629,315.622162 582.193787,322.982483 
	C569.467773,327.432068 556.328369,329.880768 542.827454,331.245880 
	C528.502563,332.694336 514.387146,332.151215 500.541351,329.060150 
	C487.971527,326.253937 475.761688,321.835419 463.191895,317.857910 
	C461.064697,316.740662 459.101318,315.968536 457.218719,315.033783 
	C442.436188,307.693665 429.549438,297.638275 416.955872,286.650635 
	C409.645996,278.417175 401.360931,272.124817 391.498383,267.765839 
	C371.095093,258.748138 350.888489,258.745575 330.479584,267.775330 
	C320.610901,272.141632 312.620514,278.743225 305.072998,286.269226 
	C295.600922,295.714264 285.677460,304.706604 275.652832,314.042267 
	C273.558899,315.759979 271.760956,317.329742 269.672424,319.041351 
	C268.216858,320.441528 267.051880,321.699890 265.590393,323.104340 
	C257.386566,330.806061 249.495377,338.378693 241.566254,345.911438 
	C236.045990,351.155731 230.474503,356.346161 224.924072,361.558716 
	C223.314758,363.070038 221.871948,364.559631 219.623825,362.166504 
	C212.021210,354.073517 204.272018,346.118500 196.624420,338.067444 
	C187.406799,328.363525 178.235748,318.615387 168.897064,308.587891 
	C166.777939,305.914276 164.806290,303.539124 163.128906,301.518433 
	C169.598923,294.794983 175.540054,288.212036 181.919403,282.085419 
	C192.141724,272.268066 202.654327,262.752930 213.338623,252.963867 
	C215.126312,251.226791 216.619644,249.635941 218.397278,247.904266 
	C219.827118,246.522537 220.972656,245.281631 222.416382,243.892303 
	C230.068848,237.071442 237.726212,230.700134 244.715652,223.665222 
	C260.253540,208.026184 277.815704,195.596985 298.143005,186.849960 
	C315.286346,179.473053 333.157654,175.271835 351.591644,174.234772 
	C362.575378,173.616852 373.741547,174.839890 384.733612,176.063141 
	C407.886353,178.639771 429.287537,186.768692 448.307892,199.973251 
	C460.580536,208.493332 471.388641,219.100052 483.055847,228.520493 
	C500.930023,242.952621 521.444092,247.661255 543.838562,243.536453 
	C560.216980,240.519760 573.162292,231.185608 585.493408,220.338501 
	C595.083435,211.902634 605.897766,204.838531 616.327393,197.387924 
	C620.071777,194.713058 624.282227,192.690521 629.436401,189.699081 
	C614.511475,179.092026 601.022766,168.834442 586.868164,159.597244 
	C563.338440,144.241898 538.151672,131.959732 511.718506,122.458961 
	C491.295654,115.118469 470.520416,108.766296 448.897186,105.933624 
	C432.257416,103.753799 415.608978,101.111160 398.883850,100.263176 
	C382.830322,99.449249 366.648987,100.249359 350.569336,101.151527 
	C338.256500,101.842361 325.890320,103.118225 313.768158,105.337372 
	C291.626953,109.390686 269.857117,115.007034 248.692581,122.915245 
	C225.472748,131.591431 203.207794,142.134415 182.023804,154.996674 
	C158.403687,169.338058 136.270676,185.737686 116.648613,205.145996 
	C103.135651,218.511765 90.512955,232.855927 78.337563,247.467102 
	C70.707497,256.623596 64.644592,267.085968 57.577244,277.122955 
	C54.119949,282.428680 50.541901,287.366119 47.887302,292.758148 
	C40.024845,308.728455 32.526764,324.878204 24.591461,341.170959 
	C20.494513,352.658417 16.291838,363.817413 13.004350,375.239807 
	C9.810184,386.337982 7.554609,397.706299 4.572803,409.205292 
	C3.969545,411.380280 3.887947,413.368774 3.329879,415.213104 
	C2.822412,416.890198 1.797066,418.410553 1.000004,420.000000 
M361.641296,769.254395 
	C359.397125,768.160645 357.135468,767.101257 354.911621,765.967651 
	C340.601501,758.672546 327.718445,749.483887 316.391266,738.000977 
	C303.410858,724.842041 288.301697,716.014954 269.331146,713.755981 
	C251.860352,711.675537 235.759491,714.803345 221.466522,724.396118 
	C211.691132,730.957031 203.114532,739.368713 194.314758,747.299988 
	C185.990784,754.802246 178.104401,762.788269 169.970215,770.503174 
	C163.529648,776.611877 157.005127,782.632080 149.458969,789.680664 
	C161.296936,797.254578 172.126663,804.183411 183.304993,811.708374 
	C200.820068,820.485229 218.070129,829.850708 235.918701,837.886780 
	C257.229523,847.481812 279.654480,854.128479 302.671326,858.190002 
	C320.869781,861.401306 339.205383,864.534912 357.606689,865.695984 
	C375.279724,866.811035 393.159515,866.001099 410.866211,864.811951 
	C425.692810,863.816223 440.475739,861.491577 455.145935,858.983215 
	C488.672760,853.250916 520.560120,842.088318 550.795959,826.801208 
	C568.092896,818.055908 584.566528,807.533569 600.815369,796.901123 
	C621.409912,783.425049 639.591309,766.901367 657.048462,749.580017 
	C659.470703,747.176636 659.356812,744.901917 657.477112,743.214355 
	C650.509460,736.958862 643.782593,730.172241 635.933899,725.219482 
	C622.508545,716.747559 607.481445,712.939453 591.462769,715.081299 
	C584.541504,716.006775 577.565857,717.173584 570.890442,719.157654 
	C556.232666,723.514282 545.691406,734.226318 534.594177,743.948792 
	C519.620300,757.067505 502.896912,767.228027 484.180206,774.017883 
	C470.439911,779.002319 456.310150,781.876770 441.677185,783.237427 
	C427.716156,784.535645 413.963226,784.277100 400.463348,781.050232 
	C387.507324,777.953247 374.838409,773.655029 361.641296,769.254395 
M1415.137939,600.208130 
	C1419.606323,625.782776 1426.806763,650.419922 1439.587646,673.235657 
	C1450.863770,693.364929 1465.040649,710.995300 1483.322632,725.183105 
	C1513.729858,748.780823 1548.901855,759.423279 1586.681763,761.812317 
	C1614.371948,763.563416 1641.839355,760.722534 1668.904175,754.257690 
	C1709.739502,744.503479 1746.916382,726.692688 1781.713989,703.551453 
	C1787.783081,699.515442 1787.915894,698.686462 1783.975220,692.478455 
	C1774.965454,678.285583 1765.843628,664.160767 1757.075439,649.819824 
	C1754.901733,646.264404 1753.325439,646.499695 1750.008789,648.227234 
	C1734.815552,656.141418 1719.816772,664.608154 1704.046997,671.198547 
	C1672.953125,684.192749 1640.602051,691.457520 1606.606934,686.961182 
	C1569.037354,681.992004 1544.106689,659.881653 1528.270996,626.817200 
	C1518.543945,606.507324 1514.663086,584.493896 1512.757446,562.107910 
	C1512.391357,557.806091 1513.651001,556.912598 1517.449707,556.957703 
	C1528.446411,557.088379 1539.445801,556.999390 1550.444092,556.999329 
	C1626.599243,556.998596 1702.754395,556.999756 1778.909546,556.996643 
	C1786.753052,556.996277 1786.988159,557.010132 1787.814697,549.230530 
	C1789.850098,530.069458 1791.464111,510.975067 1790.293945,491.559387 
	C1788.829712,467.265533 1784.893433,443.661377 1776.764038,420.762756 
	C1766.777100,392.632141 1750.400879,369.114716 1726.653320,350.729462 
	C1696.457886,327.352386 1661.455200,319.022095 1624.301025,318.209412 
	C1609.579834,317.887360 1594.684082,319.031372 1580.081177,321.051331 
	C1537.000977,327.010376 1499.833130,345.031311 1469.562256,376.818115 
	C1449.553589,397.828613 1435.529907,422.251678 1426.020996,449.458069 
	C1415.190430,480.446747 1411.540039,512.672913 1411.266846,545.181274 
	C1411.115112,563.220703 1413.703125,581.283081 1415.137939,600.208130 
M1100.063232,646.324646 
	C1099.379761,640.549744 1098.568481,634.785889 1098.065186,628.995300 
	C1097.802979,625.978577 1096.327148,625.001526 1093.540039,625.007019 
	C1075.874512,625.041626 1058.208740,625.050720 1040.543457,624.997925 
	C1037.416016,624.988586 1036.119141,626.254333 1035.962646,629.436035 
	C1035.432251,640.220520 1034.538452,650.987854 1034.053467,661.773804 
	C1032.956177,686.187378 1032.008911,710.607788 1031.025391,735.026367 
	C1030.743408,742.026733 1030.911133,742.480103 1038.020508,743.960022 
	C1058.859619,748.298157 1079.658691,752.905273 1100.623047,756.546021 
	C1130.374756,761.712769 1160.354492,763.342834 1190.575562,761.190674 
	C1214.169312,759.510559 1237.045166,754.916321 1259.182495,746.753235 
	C1285.382080,737.092102 1308.822510,723.021667 1326.318970,700.826599 
	C1350.951050,669.579651 1356.597900,633.703430 1349.205078,595.528748 
	C1342.873779,562.835938 1321.681885,541.402954 1293.524902,525.753540 
	C1263.817993,509.242737 1231.090332,501.005371 1198.998657,491.043823 
	C1180.946899,485.440399 1163.618042,478.533386 1147.746948,467.962616 
	C1124.982178,452.800598 1123.194946,416.264374 1146.472168,399.518921 
	C1160.147827,389.680786 1175.372925,385.175873 1191.667603,384.161041 
	C1212.730103,382.849243 1233.500366,385.640533 1253.982544,390.718842 
	C1257.764038,391.656403 1259.488037,393.509094 1260.198608,397.349945 
	C1262.741211,411.093414 1265.689819,424.761292 1268.310547,438.491028 
	C1269.039551,442.309540 1270.452637,444.158875 1274.810303,444.096527 
	C1291.972534,443.850952 1309.141235,443.892853 1326.305298,444.065582 
	C1330.697510,444.109772 1332.042480,442.471466 1332.083252,438.202240 
	C1332.182007,427.894165 1332.657104,417.586884 1333.121948,407.285675 
	C1334.028442,387.195984 1334.968018,367.107239 1336.045898,347.026276 
	C1336.275513,342.749329 1334.711548,340.759644 1330.477661,339.817688 
	C1309.534912,335.158417 1288.743774,329.768555 1267.714355,325.560089 
	C1244.055176,320.825378 1220.093140,317.717194 1195.902588,318.132965 
	C1183.640259,318.343750 1171.303711,319.302521 1159.172852,321.090820 
	C1130.730957,325.283508 1103.522095,333.346558 1079.884644,350.523071 
	C1059.282349,365.493988 1044.759521,384.952484 1038.588623,409.946472 
	C1034.664429,425.840851 1033.547363,441.926544 1034.789673,458.411774 
	C1036.630249,482.833527 1045.191406,503.816498 1062.046143,521.642700 
	C1077.650513,538.146301 1096.750488,549.138306 1117.665161,556.896240 
	C1141.692139,565.808655 1166.117432,573.646851 1190.365845,581.962585 
	C1205.992432,587.321472 1221.273804,593.369324 1234.942505,602.944397 
	C1257.196411,618.533569 1262.012207,644.391724 1245.779785,666.073059 
	C1236.257324,678.792114 1222.364380,685.507324 1207.389771,689.907898 
	C1190.476318,694.878174 1173.184204,696.964600 1155.646851,694.910278 
	C1140.162598,693.096436 1124.769165,690.510193 1109.330566,688.300354 
	C1106.367798,687.876343 1105.228638,686.246399 1104.872803,683.300049 
	C1103.418335,671.257324 1101.738892,659.241760 1100.063232,646.324646 
M1901.996094,481.500000 
	C1901.995850,547.646484 1901.941284,613.793152 1902.097290,679.939270 
	C1902.109985,685.319214 1900.702881,687.877930 1895.114502,689.153625 
	C1880.678955,692.448914 1866.437988,696.588257 1852.065430,700.174194 
	C1847.645996,701.276794 1845.792236,703.369934 1845.900757,708.143494 
	C1846.196167,721.132812 1846.114502,734.134705 1845.940186,747.128418 
	C1845.883911,751.326599 1847.155029,753.068970 1851.621460,753.062195 
	C1917.601196,752.962585 1983.581177,752.968201 2049.561035,753.049683 
	C2053.718506,753.054871 2055.101318,751.488525 2055.052002,747.445251 
	C2054.895508,734.617798 2054.695068,721.776733 2055.136475,708.962463 
	C2055.335449,703.187439 2052.951416,701.127136 2047.788330,699.880249 
	C2034.039185,696.559875 2020.397339,692.794373 2006.720703,689.175903 
	C1999.004150,687.134460 1999.001465,687.107910 1999.001343,679.260315 
	C1998.999146,564.628601 1999.000122,449.996887 1999.000000,335.365173 
	C1999.000000,333.865631 1999.007202,332.366028 1998.997314,330.866547 
	C1998.953735,324.201080 1998.816162,323.914246 1992.373047,324.045959 
	C1986.231201,324.171509 1980.099365,324.724365 1973.958252,324.965149 
	C1956.019287,325.668427 1938.079834,326.373840 1920.136841,326.959137 
	C1897.366821,327.701904 1874.594849,328.419067 1851.818726,328.921356 
	C1847.584351,329.014740 1845.867432,330.250031 1845.933472,334.669464 
	C1846.132568,347.995758 1846.116821,361.328400 1845.939087,374.655273 
	C1845.886230,378.611053 1847.549805,380.207764 1851.205322,381.103058 
	C1866.076294,384.745239 1880.848267,388.798523 1895.747803,392.313690 
	C1900.549805,393.446594 1902.131714,395.634460 1902.093628,400.525146 
	C1901.886108,427.182068 1901.995605,453.841461 1901.996094,481.500000 
M1926.912354,251.765228 
	C1938.218262,254.519653 1949.674316,255.196411 1961.055664,252.848450 
	C1982.235474,248.479050 1997.548340,237.090988 2003.304810,215.313690 
	C2006.492920,203.252640 2006.740356,191.047745 2004.222290,178.763885 
	C2000.564331,160.918060 1990.257080,148.645355 1973.667969,141.413910 
	C1962.132812,136.385590 1949.869019,135.922852 1937.825928,137.272064 
	C1920.981323,139.159180 1906.599243,146.487823 1896.950439,161.152481 
	C1888.996582,173.240906 1887.409424,186.943268 1888.091919,200.910263 
	C1889.287109,225.366943 1901.941406,243.935898 1926.912354,251.765228 
z"/>
<path fill="#000000" opacity="1.000000" stroke="none" 
	d="
M1.000001,530.000000 
	C1.000000,494.645782 1.000000,459.291534 1.316321,423.210388 
	C2.559026,422.393463 3.564868,422.508057 4.400239,422.183685 
	C28.752768,412.727295 53.670338,407.504883 80.069962,409.798981 
	C92.937836,410.917206 105.417282,413.087677 117.698067,416.869049 
	C143.690262,424.872253 166.041992,438.719330 185.495331,457.734009 
	C191.885773,463.980408 199.409317,469.357117 207.152039,473.865112 
	C219.907791,481.291840 234.185776,482.766205 248.763138,482.043884 
	C259.811554,481.496460 270.262726,478.665222 279.528168,472.799408 
	C288.099548,467.372925 296.142487,461.081940 304.220612,454.912994 
	C316.887939,445.239349 329.555908,435.553223 341.917908,425.496643 
	C356.972992,413.249268 373.339996,403.398102 391.677307,397.014496 
	C413.157379,389.536926 435.104767,385.860901 458.028992,387.831818 
	C471.878021,389.022491 485.415161,391.077972 498.445648,395.827667 
	C507.056000,398.966187 515.461304,402.667389 524.142822,406.406189 
	C527.434509,408.506439 530.844666,409.945038 533.600281,412.187866 
	C552.576904,427.633118 571.454956,443.200409 590.282593,458.827393 
	C598.253906,465.443542 606.026794,472.298737 614.043091,479.349762 
	C621.031494,485.541107 627.915283,491.372742 634.688782,497.329742 
	C642.175720,503.914093 649.561523,510.613281 656.947815,517.223511 
	C648.098999,527.308105 639.635193,536.953979 631.074280,546.904297 
	C620.770813,558.813232 610.564514,570.417725 599.994629,582.435608 
	C585.233826,569.825378 570.637756,557.355835 555.901184,544.583740 
	C554.582825,543.106934 553.469177,541.858948 552.217163,540.770142 
	C539.782166,529.955994 527.356628,519.130615 514.861023,508.386719 
	C507.250275,501.842896 499.863068,494.968109 491.772827,489.068268 
	C476.400299,477.857727 459.180756,472.981842 439.944611,474.879425 
	C427.744019,476.083008 416.201141,479.091034 406.428833,486.284698 
	C387.281219,500.379669 368.488098,514.972351 349.856842,529.748108 
	C331.697693,544.149597 312.221924,555.949036 289.867188,562.562439 
	C271.806244,567.905579 253.379959,570.769165 234.555969,568.895630 
	C222.842804,567.729919 210.886475,566.737305 199.664825,563.499207 
	C186.700775,559.758179 174.424362,553.634094 161.559723,548.320557 
	C149.854187,539.572449 138.339478,531.176453 127.067902,522.465759 
	C122.119133,518.641357 118.092506,513.525696 112.907661,510.123138 
	C97.433060,499.968079 80.604424,494.874420 61.708603,496.846039 
	C48.473061,498.227051 36.255932,501.805878 25.687347,509.821503 
	C18.488573,515.281311 11.929183,521.580994 5.028439,527.439880 
	C3.827039,528.459839 2.349813,529.154846 1.000001,530.000000 
z"/>
<path fill="#AE3452" opacity="1.000000" stroke="none" 
	d="
M523.958374,406.116638 
	C515.461304,402.667389 507.056000,398.966187 498.445648,395.827667 
	C485.415161,391.077972 471.878021,389.022491 458.028992,387.831818 
	C435.104767,385.860901 413.157379,389.536926 391.677307,397.014496 
	C373.339996,403.398102 356.972992,413.249268 341.917908,425.496643 
	C329.555908,435.553223 316.887939,445.239349 304.220612,454.912994 
	C296.142487,461.081940 288.099548,467.372925 279.528168,472.799408 
	C270.262726,478.665222 259.811554,481.496460 248.763138,482.043884 
	C234.185776,482.766205 219.907791,481.291840 207.152039,473.865112 
	C199.409317,469.357117 191.885773,463.980408 185.495331,457.734009 
	C166.041992,438.719330 143.690262,424.872253 117.698067,416.869049 
	C105.417282,413.087677 92.937836,410.917206 80.069962,409.798981 
	C53.670338,407.504883 28.752768,412.727295 4.400239,422.183685 
	C3.564868,422.508057 2.559026,422.393463 1.316321,422.741760 
	C1.000000,422.250000 1.000000,421.500000 1.000004,420.375000 
	C1.797066,418.410553 2.822412,416.890198 3.329879,415.213104 
	C3.887947,413.368774 3.969545,411.380280 4.995888,409.191833 
	C13.929480,407.822510 22.191166,407.062134 30.307783,405.532196 
	C44.095722,402.933167 57.769485,399.734161 71.535469,397.010925 
	C80.313759,395.274353 89.289520,394.426392 97.968643,392.321838 
	C114.201424,388.385620 130.403168,384.580566 146.977005,382.138672 
	C163.130768,379.758636 179.085785,376.013275 195.106247,372.760071 
	C198.009338,372.170532 200.754944,370.756958 203.664825,370.259644 
	C209.585617,369.247742 215.601501,368.787689 221.517197,367.751831 
	C227.397400,366.722198 233.183533,365.166779 239.045502,364.018555 
	C247.626343,362.337738 256.248505,360.868408 264.833710,359.208984 
	C273.624451,357.509796 282.385529,355.657898 291.170990,353.930603 
	C304.768066,351.257324 318.386780,348.692596 331.969513,345.949127 
	C335.662720,345.203156 339.211853,343.728546 342.910400,343.027893 
	C351.965027,341.312561 361.120850,340.106659 370.139435,338.231506 
	C383.137665,335.528961 396.032013,332.330505 409.007446,329.512939 
	C415.428986,328.118530 421.919617,327.023315 428.405334,325.952362 
	C431.152344,325.498810 434.002960,325.661774 436.743988,325.185089 
	C443.197906,324.062744 449.654663,322.895325 456.025970,321.389526 
	C458.595123,320.782288 460.944000,319.242859 463.393127,318.127686 
	C475.761688,321.835419 487.971527,326.253937 500.541351,329.060150 
	C514.387146,332.151215 528.502563,332.694336 542.827454,331.245880 
	C556.328369,329.880768 569.467773,327.432068 582.193787,322.982483 
	C603.244629,315.622162 622.012024,304.365295 638.417664,289.155212 
	C650.432861,278.015503 663.244019,268.071411 679.842834,264.585510 
	C682.086426,264.114349 684.302795,263.508453 686.553467,263.078094 
	C692.389282,261.962189 696.432922,264.061340 699.676208,269.215851 
	C715.468506,294.314301 729.623291,320.223114 739.935669,348.102783 
	C741.409729,352.087921 742.669556,356.152313 743.653809,360.578430 
	C734.587341,363.320129 725.571045,363.378601 716.770813,366.102570 
	C705.000000,369.745972 692.421082,370.760498 680.204590,372.988281 
	C671.867615,374.508636 663.541992,376.099701 655.238464,377.792114 
	C644.998108,379.879303 634.800598,382.177643 624.557556,384.250702 
	C613.066101,386.576385 601.542664,388.743286 590.036316,390.995667 
	C574.861877,393.966034 559.692505,396.962616 544.516785,399.926605 
	C538.701599,401.062378 532.847290,402.018982 527.076294,403.342804 
	C525.887512,403.615570 524.990112,405.158936 523.958374,406.116638 
z"/>
<path fill="#B8364E" opacity="1.000000" stroke="none" 
	d="
M1.000001,530.466858 
	C2.349813,529.154846 3.827039,528.459839 5.028439,527.439880 
	C11.929183,521.580994 18.488573,515.281311 25.687347,509.821503 
	C36.255932,501.805878 48.473061,498.227051 61.708603,496.846039 
	C80.604424,494.874420 97.433060,499.968079 112.907661,510.123138 
	C118.092506,513.525696 122.119133,518.641357 127.067902,522.465759 
	C138.339478,531.176453 149.854187,539.572449 161.162140,548.517090 
	C159.507233,549.538147 158.007385,550.437378 156.405624,550.689697 
	C146.636627,552.228638 136.833481,553.550903 127.065170,555.093933 
	C122.804672,555.766846 118.587784,556.737488 114.371979,557.667664 
	C103.358582,560.097534 92.389175,562.738647 81.340668,564.993958 
	C71.265877,567.050415 61.104576,568.680420 50.993176,570.561707 
	C46.940163,571.315796 42.928841,572.292053 38.880383,573.073059 
	C33.205189,574.167786 27.497963,575.099976 21.833260,576.244324 
	C17.825125,577.054016 13.864691,578.099915 9.882956,579.040283 
	C7.587531,568.936340 5.306260,558.829102 2.975300,548.733398 
	C2.735993,547.696899 2.199508,546.729004 1.400460,545.864624 
	C1.000000,540.977905 1.000000,535.955811 1.000001,530.466858 
z"/>
<path fill="#15272E" opacity="1.000000" stroke="none" 
	d="
M1415.097168,599.771606 
	C1413.703125,581.283081 1411.115112,563.220703 1411.266846,545.181274 
	C1411.540039,512.672913 1415.190430,480.446747 1426.020996,449.458069 
	C1435.529907,422.251678 1449.553589,397.828613 1469.562256,376.818115 
	C1499.833130,345.031311 1537.000977,327.010376 1580.081177,321.051331 
	C1594.684082,319.031372 1609.579834,317.887360 1624.301025,318.209412 
	C1661.455200,319.022095 1696.457886,327.352386 1726.653320,350.729462 
	C1750.400879,369.114716 1766.777100,392.632141 1776.764038,420.762756 
	C1784.893433,443.661377 1788.829712,467.265533 1790.293945,491.559387 
	C1791.464111,510.975067 1789.850098,530.069458 1787.814697,549.230530 
	C1786.988159,557.010132 1786.753052,556.996277 1778.909546,556.996643 
	C1702.754395,556.999756 1626.599243,556.998596 1550.444092,556.999329 
	C1539.445801,556.999390 1528.446411,557.088379 1517.449707,556.957703 
	C1513.651001,556.912598 1512.391357,557.806091 1512.757446,562.107910 
	C1514.663086,584.493896 1518.543945,606.507324 1528.270996,626.817200 
	C1544.106689,659.881653 1569.037354,681.992004 1606.606934,686.961182 
	C1640.602051,691.457520 1672.953125,684.192749 1704.046997,671.198547 
	C1719.816772,664.608154 1734.815552,656.141418 1750.008789,648.227234 
	C1753.325439,646.499695 1754.901733,646.264404 1757.075439,649.819824 
	C1765.843628,664.160767 1774.965454,678.285583 1783.975220,692.478455 
	C1787.915894,698.686462 1787.783081,699.515442 1781.713989,703.551453 
	C1746.916382,726.692688 1709.739502,744.503479 1668.904175,754.257690 
	C1641.839355,760.722534 1614.371948,763.563416 1586.681763,761.812317 
	C1548.901855,759.423279 1513.729858,748.780823 1483.322632,725.183105 
	C1465.040649,710.995300 1450.863770,693.364929 1439.587646,673.235657 
	C1426.806763,650.419922 1419.606323,625.782776 1415.097168,599.771606 
M1522.211548,456.779419 
	C1519.812256,467.135040 1517.180908,477.444183 1515.094604,487.862457 
	C1513.684448,494.905273 1514.027710,494.996399 1521.277344,494.997314 
	C1574.067139,495.004150 1626.857056,495.001312 1679.646851,495.001434 
	C1690.283203,495.001465 1690.281250,495.001373 1690.012451,484.472290 
	C1689.574951,467.334473 1686.153442,450.739075 1679.716309,434.926910 
	C1671.104858,413.773804 1656.510742,398.592712 1633.854614,392.530762 
	C1622.884766,389.595612 1611.693970,388.979675 1600.311157,389.903931 
	C1586.962891,390.987732 1574.405640,394.338257 1563.032837,401.395020 
	C1542.346558,414.230652 1530.765381,433.939575 1522.211548,456.779419 
z"/>
<path fill="#15272E" opacity="1.000000" stroke="none" 
	d="
M1100.102783,646.770386 
	C1101.738892,659.241760 1103.418335,671.257324 1104.872803,683.300049 
	C1105.228638,686.246399 1106.367798,687.876343 1109.330566,688.300354 
	C1124.769165,690.510193 1140.162598,693.096436 1155.646851,694.910278 
	C1173.184204,696.964600 1190.476318,694.878174 1207.389771,689.907898 
	C1222.364380,685.507324 1236.257324,678.792114 1245.779785,666.073059 
	C1262.012207,644.391724 1257.196411,618.533569 1234.942505,602.944397 
	C1221.273804,593.369324 1205.992432,587.321472 1190.365845,581.962585 
	C1166.117432,573.646851 1141.692139,565.808655 1117.665161,556.896240 
	C1096.750488,549.138306 1077.650513,538.146301 1062.046143,521.642700 
	C1045.191406,503.816498 1036.630249,482.833527 1034.789673,458.411774 
	C1033.547363,441.926544 1034.664429,425.840851 1038.588623,409.946472 
	C1044.759521,384.952484 1059.282349,365.493988 1079.884644,350.523071 
	C1103.522095,333.346558 1130.730957,325.283508 1159.172852,321.090820 
	C1171.303711,319.302521 1183.640259,318.343750 1195.902588,318.132965 
	C1220.093140,317.717194 1244.055176,320.825378 1267.714355,325.560089 
	C1288.743774,329.768555 1309.534912,335.158417 1330.477661,339.817688 
	C1334.711548,340.759644 1336.275513,342.749329 1336.045898,347.026276 
	C1334.968018,367.107239 1334.028442,387.195984 1333.121948,407.285675 
	C1332.657104,417.586884 1332.182007,427.894165 1332.083252,438.202240 
	C1332.042480,442.471466 1330.697510,444.109772 1326.305298,444.065582 
	C1309.141235,443.892853 1291.972534,443.850952 1274.810303,444.096527 
	C1270.452637,444.158875 1269.039551,442.309540 1268.310547,438.491028 
	C1265.689819,424.761292 1262.741211,411.093414 1260.198608,397.349945 
	C1259.488037,393.509094 1257.764038,391.656403 1253.982544,390.718842 
	C1233.500366,385.640533 1212.730103,382.849243 1191.667603,384.161041 
	C1175.372925,385.175873 1160.147827,389.680786 1146.472168,399.518921 
	C1123.194946,416.264374 1124.982178,452.800598 1147.746948,467.962616 
	C1163.618042,478.533386 1180.946899,485.440399 1198.998657,491.043823 
	C1231.090332,501.005371 1263.817993,509.242737 1293.524902,525.753540 
	C1321.681885,541.402954 1342.873779,562.835938 1349.205078,595.528748 
	C1356.597900,633.703430 1350.951050,669.579651 1326.318970,700.826599 
	C1308.822510,723.021667 1285.382080,737.092102 1259.182495,746.753235 
	C1237.045166,754.916321 1214.169312,759.510559 1190.575562,761.190674 
	C1160.354492,763.342834 1130.374756,761.712769 1100.623047,756.546021 
	C1079.658691,752.905273 1058.859619,748.298157 1038.020508,743.960022 
	C1030.911133,742.480103 1030.743408,742.026733 1031.025391,735.026367 
	C1032.008911,710.607788 1032.956177,686.187378 1034.053467,661.773804 
	C1034.538452,650.987854 1035.432251,640.220520 1035.962646,629.436035 
	C1036.119141,626.254333 1037.416016,624.988586 1040.543457,624.997925 
	C1058.208740,625.050720 1075.874512,625.041626 1093.540039,625.007019 
	C1096.327148,625.001526 1097.802979,625.978577 1098.065186,628.995300 
	C1098.568481,634.785889 1099.379761,640.549744 1100.102783,646.770386 
z"/>
<path fill="#15272E" opacity="1.000000" stroke="none" 
	d="
M1901.996094,481.000000 
	C1901.995605,453.841461 1901.886108,427.182068 1902.093628,400.525146 
	C1902.131714,395.634460 1900.549805,393.446594 1895.747803,392.313690 
	C1880.848267,388.798523 1866.076294,384.745239 1851.205322,381.103058 
	C1847.549805,380.207764 1845.886230,378.611053 1845.939087,374.655273 
	C1846.116821,361.328400 1846.132568,347.995758 1845.933472,334.669464 
	C1845.867432,330.250031 1847.584351,329.014740 1851.818726,328.921356 
	C1874.594849,328.419067 1897.366821,327.701904 1920.136841,326.959137 
	C1938.079834,326.373840 1956.019287,325.668427 1973.958252,324.965149 
	C1980.099365,324.724365 1986.231201,324.171509 1992.373047,324.045959 
	C1998.816162,323.914246 1998.953735,324.201080 1998.997314,330.866547 
	C1999.007202,332.366028 1999.000000,333.865631 1999.000000,335.365173 
	C1999.000122,449.996887 1998.999146,564.628601 1999.001343,679.260315 
	C1999.001465,687.107910 1999.004150,687.134460 2006.720703,689.175903 
	C2020.397339,692.794373 2034.039185,696.559875 2047.788330,699.880249 
	C2052.951416,701.127136 2055.335449,703.187439 2055.136475,708.962463 
	C2054.695068,721.776733 2054.895508,734.617798 2055.052002,747.445251 
	C2055.101318,751.488525 2053.718506,753.054871 2049.561035,753.049683 
	C1983.581177,752.968201 1917.601196,752.962585 1851.621460,753.062195 
	C1847.155029,753.068970 1845.883911,751.326599 1845.940186,747.128418 
	C1846.114502,734.134705 1846.196167,721.132812 1845.900757,708.143494 
	C1845.792236,703.369934 1847.645996,701.276794 1852.065430,700.174194 
	C1866.437988,696.588257 1880.678955,692.448914 1895.114502,689.153625 
	C1900.702881,687.877930 1902.109985,685.319214 1902.097290,679.939270 
	C1901.941284,613.793152 1901.995850,547.646484 1901.996094,481.000000 
z"/>
<path fill="#C93848" opacity="1.000000" stroke="none" 
	d="
M556.041687,544.886353 
	C570.637756,557.355835 585.233826,569.825378 599.994629,582.435608 
	C610.564514,570.417725 620.770813,558.813232 631.500000,546.929932 
	C634.411255,546.001648 636.774963,545.235657 639.192322,544.722656 
	C649.549194,542.524597 659.946045,540.510498 670.282776,538.223450 
	C684.049500,535.177368 697.744202,531.802307 711.527161,528.834595 
	C720.347046,526.935547 729.258118,525.446350 738.150940,523.903992 
	C746.125610,522.520813 754.131348,521.316101 762.123352,520.032715 
	C760.733215,544.370178 755.366394,567.967407 748.854248,591.352173 
	C748.460999,592.764587 748.118835,594.191284 746.961914,595.818970 
	C733.623779,595.112000 721.901611,599.210693 709.964417,601.994019 
	C704.657410,603.231506 699.401184,604.729797 694.050415,605.726196 
	C684.556702,607.494263 674.980591,608.822144 665.492859,610.618652 
	C659.013855,611.845520 652.662903,613.741211 646.190857,615.013062 
	C629.717224,618.250366 613.193420,621.233948 596.733887,624.539185 
	C595.007202,624.885986 593.575195,626.700500 592.006409,627.834106 
	C591.572510,627.896606 591.138672,627.959229 590.153931,627.807373 
	C586.893799,625.293152 584.760803,626.056946 583.006409,628.833740 
	C564.882385,630.972595 547.363953,635.128235 530.580994,642.647522 
	C511.268616,651.300171 494.812958,663.758667 479.397064,677.993042 
	C467.813171,688.689148 454.104553,695.014832 438.238953,697.146118 
	C417.886475,699.880066 399.946930,694.277710 383.619385,682.741638 
	C378.255676,678.951843 373.739227,673.946533 368.915253,669.412048 
	C349.263367,650.939514 326.218781,638.739075 300.178894,631.995117 
	C283.925262,627.785706 267.363220,626.039734 250.679840,627.116577 
	C231.791153,628.335754 213.582764,632.896790 196.110031,640.389282 
	C174.424500,649.688232 156.508804,664.041992 139.858307,680.475037 
	C123.587234,696.533508 106.618912,711.885193 89.978241,727.570068 
	C87.953911,729.478149 86.670753,729.483704 84.904480,726.955078 
	C74.028168,711.384399 62.610611,696.179443 52.110954,680.362976 
	C46.333149,671.659363 41.996582,661.999084 37.243202,652.213257 
	C42.992828,649.492798 48.340569,646.446350 54.061783,645.351624 
	C65.555756,643.152100 77.321953,642.374817 88.481857,638.453003 
	C89.072350,638.245483 89.803116,638.477844 90.457268,638.404419 
	C96.634773,637.711487 102.904884,637.450012 108.962914,636.179932 
	C117.679672,634.352478 126.189522,631.555359 134.883301,629.596436 
	C145.082733,627.298340 155.385010,625.456787 165.641953,623.413574 
	C171.161758,622.313965 176.672913,621.169434 182.200363,620.109802 
	C198.613495,616.963257 215.028625,613.826660 231.452759,610.738098 
	C235.355194,610.004272 239.319092,609.591919 243.214157,608.825439 
	C251.005356,607.292419 258.733734,605.417114 266.552704,604.054199 
	C274.967102,602.587402 283.644043,602.266846 291.860016,600.120361 
	C300.448364,597.876648 308.550110,594.700928 317.800568,594.489563 
	C326.273285,594.295959 334.808441,591.788879 343.089905,589.487427 
	C354.631134,586.280090 366.050659,583.083435 378.141571,582.274536 
	C384.973969,581.817383 391.656708,579.322510 398.442261,577.916199 
	C407.500092,576.038940 416.577637,574.248535 425.673584,572.565796 
	C436.221313,570.614502 446.791595,568.782349 457.364868,566.972961 
	C463.004608,566.007935 468.875702,565.857117 474.280273,564.175110 
	C483.587433,561.278687 492.673187,557.772583 502.661469,558.319946 
	C503.131287,558.345764 503.614502,558.071655 504.095551,557.953918 
	C513.500427,555.652283 522.875122,553.215515 532.321960,551.101257 
	C538.787964,549.654053 545.377441,548.762878 551.859619,547.379211 
	C553.362488,547.058472 554.653259,545.743713 556.041687,544.886353 
z"/>
<path fill="#97315A" opacity="1.000000" stroke="none" 
	d="
M57.878525,276.962402 
	C64.644592,267.085968 70.707497,256.623596 78.337563,247.467102 
	C90.512955,232.855927 103.135651,218.511765 116.648613,205.145996 
	C136.270676,185.737686 158.403687,169.338058 182.023804,154.996674 
	C203.207794,142.134415 225.472748,131.591431 248.692581,122.915245 
	C269.857117,115.007034 291.626953,109.390686 313.768158,105.337372 
	C325.890320,103.118225 338.256500,101.842361 350.569336,101.151527 
	C366.648987,100.249359 382.830322,99.449249 398.883850,100.263176 
	C415.608978,101.111160 432.257416,103.753799 448.897186,105.933624 
	C470.520416,108.766296 491.295654,115.118469 511.718506,122.458961 
	C538.151672,131.959732 563.338440,144.241898 586.868164,159.597244 
	C601.022766,168.834442 614.511475,179.092026 629.436401,189.699081 
	C624.282227,192.690521 620.071777,194.713058 616.327393,197.387924 
	C605.897766,204.838531 595.083435,211.902634 585.493408,220.338501 
	C573.162292,231.185608 560.216980,240.519760 543.838562,243.536453 
	C521.444092,247.661255 500.930023,242.952621 483.055847,228.520493 
	C471.388641,219.100052 460.580536,208.493332 448.307892,199.973251 
	C429.287537,186.768692 407.886353,178.639771 384.733612,176.063141 
	C373.741547,174.839890 362.575378,173.616852 351.591644,174.234772 
	C333.157654,175.271835 315.286346,179.473053 298.143005,186.849960 
	C277.815704,195.596985 260.253540,208.026184 244.715652,223.665222 
	C237.726212,230.700134 230.068848,237.071442 222.011383,243.907227 
	C212.196991,247.635986 201.839096,245.416199 192.958878,250.167709 
	C192.184113,250.582260 190.995514,250.151535 190.019928,250.276230 
	C187.257843,250.629303 184.435440,250.809631 181.771561,251.545654 
	C179.246399,252.243378 176.754807,254.671860 174.487869,254.392975 
	C167.703354,253.558350 161.574142,255.285965 155.100128,256.807770 
	C138.328293,260.750183 121.342262,263.779541 104.447464,267.201691 
	C96.812927,268.748077 89.189369,270.349152 81.565636,271.948364 
	C73.666893,273.605225 65.773987,275.289886 57.878525,276.962402 
z"/>
<path fill="#DE3B41" opacity="1.000000" stroke="none" 
	d="
M362.043335,769.884644 
	C374.838409,773.655029 387.507324,777.953247 400.463348,781.050232 
	C413.963226,784.277100 427.716156,784.535645 441.677185,783.237427 
	C456.310150,781.876770 470.439911,779.002319 484.180206,774.017883 
	C502.896912,767.228027 519.620300,757.067505 534.594177,743.948792 
	C545.691406,734.226318 556.232666,723.514282 570.890442,719.157654 
	C577.565857,717.173584 584.541504,716.006775 591.462769,715.081299 
	C607.481445,712.939453 622.508545,716.747559 635.933899,725.219482 
	C643.782593,730.172241 650.509460,736.958862 657.477112,743.214355 
	C659.356812,744.901917 659.470703,747.176636 657.048462,749.580017 
	C639.591309,766.901367 621.409912,783.425049 600.815369,796.901123 
	C584.566528,807.533569 568.092896,818.055908 550.795959,826.801208 
	C520.560120,842.088318 488.672760,853.250916 455.145935,858.983215 
	C440.475739,861.491577 425.692810,863.816223 410.866211,864.811951 
	C393.159515,866.001099 375.279724,866.811035 357.606689,865.695984 
	C339.205383,864.534912 320.869781,861.401306 302.671326,858.190002 
	C279.654480,854.128479 257.229523,847.481812 235.918701,837.886780 
	C218.070129,829.850708 200.820068,820.485229 183.081451,811.078430 
	C182.182739,806.253174 185.407349,806.517090 187.933228,806.055847 
	C199.615570,803.922302 211.314850,801.879517 222.983948,799.676453 
	C229.185623,798.505615 235.312866,796.936768 241.519638,795.797852 
	C248.333389,794.547668 255.259277,793.865051 262.028961,792.429077 
	C271.070374,790.511292 279.959839,787.876526 289.002228,785.964111 
	C302.476593,783.114502 316.023560,780.606384 329.547516,777.993591 
	C336.860168,776.580811 344.236725,775.460022 351.490692,773.798279 
	C355.116821,772.967651 358.532471,771.218384 362.043335,769.884644 
z"/>
<path fill="#C0374C" opacity="1.000000" stroke="none" 
	d="
M555.901184,544.583740 
	C554.653259,545.743713 553.362488,547.058472 551.859619,547.379211 
	C545.377441,548.762878 538.787964,549.654053 532.321960,551.101257 
	C522.875122,553.215515 513.500427,555.652283 504.095551,557.953918 
	C503.614502,558.071655 503.131287,558.345764 502.661469,558.319946 
	C492.673187,557.772583 483.587433,561.278687 474.280273,564.175110 
	C468.875702,565.857117 463.004608,566.007935 457.364868,566.972961 
	C446.791595,568.782349 436.221313,570.614502 425.673584,572.565796 
	C416.577637,574.248535 407.500092,576.038940 398.442261,577.916199 
	C391.656708,579.322510 384.973969,581.817383 378.141571,582.274536 
	C366.050659,583.083435 354.631134,586.280090 343.089905,589.487427 
	C334.808441,591.788879 326.273285,594.295959 317.800568,594.489563 
	C308.550110,594.700928 300.448364,597.876648 291.860016,600.120361 
	C283.644043,602.266846 274.967102,602.587402 266.552704,604.054199 
	C258.733734,605.417114 251.005356,607.292419 243.214157,608.825439 
	C239.319092,609.591919 235.355194,610.004272 231.452759,610.738098 
	C215.028625,613.826660 198.613495,616.963257 182.200363,620.109802 
	C176.672913,621.169434 171.161758,622.313965 165.641953,623.413574 
	C155.385010,625.456787 145.082733,627.298340 134.883301,629.596436 
	C126.189522,631.555359 117.679672,634.352478 108.962914,636.179932 
	C102.904884,637.450012 96.634773,637.711487 90.457268,638.404419 
	C89.803116,638.477844 89.072350,638.245483 88.481857,638.453003 
	C77.321953,642.374817 65.555756,643.152100 54.061783,645.351624 
	C48.340569,646.446350 42.992828,649.492798 37.183468,651.850952 
	C32.180222,641.494080 26.885941,631.157288 22.908024,620.336548 
	C18.024193,607.051514 14.240151,593.362122 9.931818,579.443970 
	C13.864691,578.099915 17.825125,577.054016 21.833260,576.244324 
	C27.497963,575.099976 33.205189,574.167786 38.880383,573.073059 
	C42.928841,572.292053 46.940163,571.315796 50.993176,570.561707 
	C61.104576,568.680420 71.265877,567.050415 81.340668,564.993958 
	C92.389175,562.738647 103.358582,560.097534 114.371979,557.667664 
	C118.587784,556.737488 122.804672,555.766846 127.065170,555.093933 
	C136.833481,553.550903 146.636627,552.228638 156.405624,550.689697 
	C158.007385,550.437378 159.507233,549.538147 161.451782,548.741333 
	C174.424362,553.634094 186.700775,559.758179 199.664825,563.499207 
	C210.886475,566.737305 222.842804,567.729919 234.555969,568.895630 
	C253.379959,570.769165 271.806244,567.905579 289.867188,562.562439 
	C312.221924,555.949036 331.697693,544.149597 349.856842,529.748108 
	C368.488098,514.972351 387.281219,500.379669 406.428833,486.284698 
	C416.201141,479.091034 427.744019,476.083008 439.944611,474.879425 
	C459.180756,472.981842 476.400299,477.857727 491.772827,489.068268 
	C499.863068,494.968109 507.250275,501.842896 514.861023,508.386719 
	C527.356628,519.130615 539.782166,529.955994 552.217163,540.770142 
	C553.469177,541.858948 554.582825,543.106934 555.901184,544.583740 
z"/>
<path fill="#A53355" opacity="1.000000" stroke="none" 
	d="
M463.191895,317.857910 
	C460.944000,319.242859 458.595123,320.782288 456.025970,321.389526 
	C449.654663,322.895325 443.197906,324.062744 436.743988,325.185089 
	C434.002960,325.661774 431.152344,325.498810 428.405334,325.952362 
	C421.919617,327.023315 415.428986,328.118530 409.007446,329.512939 
	C396.032013,332.330505 383.137665,335.528961 370.139435,338.231506 
	C361.120850,340.106659 351.965027,341.312561 342.910400,343.027893 
	C339.211853,343.728546 335.662720,345.203156 331.969513,345.949127 
	C318.386780,348.692596 304.768066,351.257324 291.170990,353.930603 
	C282.385529,355.657898 273.624451,357.509796 264.833710,359.208984 
	C256.248505,360.868408 247.626343,362.337738 239.045502,364.018555 
	C233.183533,365.166779 227.397400,366.722198 221.517197,367.751831 
	C215.601501,368.787689 209.585617,369.247742 203.664825,370.259644 
	C200.754944,370.756958 198.009338,372.170532 195.106247,372.760071 
	C179.085785,376.013275 163.130768,379.758636 146.977005,382.138672 
	C130.403168,384.580566 114.201424,388.385620 97.968643,392.321838 
	C89.289520,394.426392 80.313759,395.274353 71.535469,397.010925 
	C57.769485,399.734161 44.095722,402.933167 30.307783,405.532196 
	C22.191166,407.062134 13.929480,407.822510 5.309963,408.942505 
	C7.554609,397.706299 9.810184,386.337982 13.004350,375.239807 
	C16.291838,363.817413 20.494513,352.658417 24.959408,341.087372 
	C29.186371,340.324280 32.795033,340.072235 36.305305,339.345154 
	C42.753937,338.009460 49.114628,336.246552 55.567345,334.933868 
	C63.049870,333.411652 70.634438,332.378693 78.095200,330.765656 
	C84.368393,329.409363 90.464386,327.203949 96.755508,325.968719 
	C102.719460,324.797638 108.907333,324.765289 114.869858,323.589050 
	C130.633621,320.479187 146.361542,317.163788 162.018188,313.558655 
	C164.582947,312.968109 166.713379,310.491364 169.044540,308.886383 
	C178.235748,318.615387 187.406799,328.363525 196.624420,338.067444 
	C204.272018,346.118500 212.021210,354.073517 219.623825,362.166504 
	C221.871948,364.559631 223.314758,363.070038 224.924072,361.558716 
	C230.474503,356.346161 236.045990,351.155731 241.566254,345.911438 
	C249.495377,338.378693 257.386566,330.806061 265.951111,323.059326 
	C267.726532,321.545288 268.844788,320.222412 269.963043,318.899506 
	C271.760956,317.329742 273.558899,315.759979 275.943451,314.282654 
	C280.331696,317.046875 284.138306,315.809875 287.968475,314.427277 
	C290.934967,313.356384 293.858246,311.980621 296.925385,311.407928 
	C306.836182,309.557404 316.809296,308.042969 326.748322,306.340363 
	C330.826569,305.641724 334.865021,304.707825 338.946411,304.030823 
	C347.842590,302.555206 356.803802,301.425293 365.646454,299.686401 
	C374.427124,297.959717 383.116943,295.747681 391.806213,293.586029 
	C400.266632,291.481354 408.675842,289.170837 417.107544,286.950684 
	C429.549438,297.638275 442.436188,307.693665 457.218719,315.033783 
	C459.101318,315.968536 461.064697,316.740662 463.191895,317.857910 
z"/>
<path fill="#B9364E" opacity="1.000000" stroke="none" 
	d="
M524.142822,406.406189 
	C524.990112,405.158936 525.887512,403.615570 527.076294,403.342804 
	C532.847290,402.018982 538.701599,401.062378 544.516785,399.926605 
	C559.692505,396.962616 574.861877,393.966034 590.036316,390.995667 
	C601.542664,388.743286 613.066101,386.576385 624.557556,384.250702 
	C634.800598,382.177643 644.998108,379.879303 655.238464,377.792114 
	C663.541992,376.099701 671.867615,374.508636 680.204590,372.988281 
	C692.421082,370.760498 705.000000,369.745972 716.770813,366.102570 
	C725.571045,363.378601 734.587341,363.320129 743.697632,360.968170 
	C748.410461,376.792236 753.283752,392.497131 756.817505,408.497833 
	C759.697083,421.536346 760.974121,434.928802 762.488892,448.592773 
	C754.765259,451.019958 746.754211,449.658020 740.019409,454.174103 
	C738.853149,454.956146 736.822571,454.461823 735.190063,454.532410 
	C733.392395,454.610199 731.527710,454.373871 729.806458,454.770477 
	C722.088257,456.548737 714.437500,458.623322 706.708557,460.349823 
	C702.066956,461.386658 697.300537,461.852966 692.635132,462.797394 
	C681.004150,465.151855 669.416809,467.723785 657.777649,470.035675 
	C647.940796,471.989563 638.038025,473.610962 628.199768,475.558380 
	C623.388245,476.510773 618.657288,477.870148 613.889832,479.045319 
	C606.026794,472.298737 598.253906,465.443542 590.282593,458.827393 
	C571.454956,443.200409 552.576904,427.633118 533.600281,412.187866 
	C530.844666,409.945038 527.434509,408.506439 524.142822,406.406189 
z"/>
<path fill="#15272E" opacity="1.000000" stroke="none" 
	d="
M1926.523315,251.643982 
	C1901.941406,243.935898 1889.287109,225.366943 1888.091919,200.910263 
	C1887.409424,186.943268 1888.996582,173.240906 1896.950439,161.152481 
	C1906.599243,146.487823 1920.981323,139.159180 1937.825928,137.272064 
	C1949.869019,135.922852 1962.132812,136.385590 1973.667969,141.413910 
	C1990.257080,148.645355 2000.564331,160.918060 2004.222290,178.763885 
	C2006.740356,191.047745 2006.492920,203.252640 2003.304810,215.313690 
	C1997.548340,237.090988 1982.235474,248.479050 1961.055664,252.848450 
	C1949.674316,255.196411 1938.218262,254.519653 1926.523315,251.643982 
z"/>
<path fill="#D53A44" opacity="1.000000" stroke="none" 
	d="
M361.842316,769.569519 
	C358.532471,771.218384 355.116821,772.967651 351.490692,773.798279 
	C344.236725,775.460022 336.860168,776.580811 329.547516,777.993591 
	C316.023560,780.606384 302.476593,783.114502 289.002228,785.964111 
	C279.959839,787.876526 271.070374,790.511292 262.028961,792.429077 
	C255.259277,793.865051 248.333389,794.547668 241.519638,795.797852 
	C235.312866,796.936768 229.185623,798.505615 222.983948,799.676453 
	C211.314850,801.879517 199.615570,803.922302 187.933228,806.055847 
	C185.407349,806.517090 182.182739,806.253174 182.907150,810.780396 
	C172.126663,804.183411 161.296936,797.254578 149.458969,789.680664 
	C157.005127,782.632080 163.529648,776.611877 169.970215,770.503174 
	C178.104401,762.788269 185.990784,754.802246 194.314758,747.299988 
	C203.114532,739.368713 211.691132,730.957031 221.466522,724.396118 
	C235.759491,714.803345 251.860352,711.675537 269.331146,713.755981 
	C288.301697,716.014954 303.410858,724.842041 316.391266,738.000977 
	C327.718445,749.483887 340.601501,758.672546 354.911621,765.967651 
	C357.135468,767.101257 359.397125,768.160645 361.842316,769.569519 
z"/>
<path fill="#C3374B" opacity="1.000000" stroke="none" 
	d="
M614.043091,479.349762 
	C618.657288,477.870148 623.388245,476.510773 628.199768,475.558380 
	C638.038025,473.610962 647.940796,471.989563 657.777649,470.035675 
	C669.416809,467.723785 681.004150,465.151855 692.635132,462.797394 
	C697.300537,461.852966 702.066956,461.386658 706.708557,460.349823 
	C714.437500,458.623322 722.088257,456.548737 729.806458,454.770477 
	C731.527710,454.373871 733.392395,454.610199 735.190063,454.532410 
	C736.822571,454.461823 738.853149,454.956146 740.019409,454.174103 
	C746.754211,449.658020 754.765259,451.019958 762.424683,449.013794 
	C762.820190,472.507294 762.807068,496.008270 762.458618,519.770996 
	C754.131348,521.316101 746.125610,522.520813 738.150940,523.903992 
	C729.258118,525.446350 720.347046,526.935547 711.527161,528.834595 
	C697.744202,531.802307 684.049500,535.177368 670.282776,538.223450 
	C659.946045,540.510498 649.549194,542.524597 639.192322,544.722656 
	C636.774963,545.235657 634.411255,546.001648 631.597168,546.625549 
	C639.635193,536.953979 648.098999,527.308105 656.947815,517.223511 
	C649.561523,510.613281 642.175720,503.914093 634.688782,497.329742 
	C627.915283,491.372742 621.031494,485.541107 614.043091,479.349762 
z"/>
<path fill="#9F3257" opacity="1.000000" stroke="none" 
	d="
M168.897064,308.587891 
	C166.713379,310.491364 164.582947,312.968109 162.018188,313.558655 
	C146.361542,317.163788 130.633621,320.479187 114.869858,323.589050 
	C108.907333,324.765289 102.719460,324.797638 96.755508,325.968719 
	C90.464386,327.203949 84.368393,329.409363 78.095200,330.765656 
	C70.634438,332.378693 63.049870,333.411652 55.567345,334.933868 
	C49.114628,336.246552 42.753937,338.009460 36.305305,339.345154 
	C32.795033,340.072235 29.186371,340.324280 25.254135,340.874146 
	C32.526764,324.878204 40.024845,308.728455 47.887302,292.758148 
	C50.541901,287.366119 54.119949,282.428680 57.577240,277.122925 
	C65.773987,275.289886 73.666893,273.605225 81.565636,271.948364 
	C89.189369,270.349152 96.812927,268.748077 104.447464,267.201691 
	C121.342262,263.779541 138.328293,260.750183 155.100128,256.807770 
	C161.574142,255.285965 167.703354,253.558350 174.487869,254.392975 
	C176.754807,254.671860 179.246399,252.243378 181.771561,251.545654 
	C184.435440,250.809631 187.257843,250.629303 190.019928,250.276230 
	C190.995514,250.151535 192.184113,250.582260 192.958878,250.167709 
	C201.839096,245.416199 212.196991,247.635986 221.713196,244.055664 
	C220.972656,245.281631 219.827118,246.522537 218.031128,247.944824 
	C215.935181,249.787491 214.489716,251.448792 213.044250,253.110077 
	C202.654327,262.752930 192.141724,272.268066 181.919403,282.085419 
	C175.540054,288.212036 169.598923,294.794983 163.128906,301.518433 
	C164.806290,303.539124 166.777939,305.914276 168.897064,308.587891 
z"/>
<path fill="#D23A45" opacity="1.000000" stroke="none" 
	d="
M592.464600,627.897278 
	C593.575195,626.700500 595.007202,624.885986 596.733887,624.539185 
	C613.193420,621.233948 629.717224,618.250366 646.190857,615.013062 
	C652.662903,613.741211 659.013855,611.845520 665.492859,610.618652 
	C674.980591,608.822144 684.556702,607.494263 694.050415,605.726196 
	C699.401184,604.729797 704.657410,603.231506 709.964417,601.994019 
	C721.901611,599.210693 733.623779,595.112000 746.644775,596.033569 
	C742.806030,608.175354 739.133057,620.587952 734.015198,632.373047 
	C727.956238,646.325317 720.656433,659.739014 713.867065,673.372620 
	C713.583130,673.942871 713.021729,674.374878 712.119690,675.411194 
	C678.848755,643.371216 638.804260,628.215271 592.464600,627.897278 
z"/>
<path fill="#A53355" opacity="1.000000" stroke="none" 
	d="
M416.955872,286.650635 
	C408.675842,289.170837 400.266632,291.481354 391.806213,293.586029 
	C383.116943,295.747681 374.427124,297.959717 365.646454,299.686401 
	C356.803802,301.425293 347.842590,302.555206 338.946411,304.030823 
	C334.865021,304.707825 330.826569,305.641724 326.748322,306.340363 
	C316.809296,308.042969 306.836182,309.557404 296.925385,311.407928 
	C293.858246,311.980621 290.934967,313.356384 287.968475,314.427277 
	C284.138306,315.809875 280.331696,317.046875 276.239441,314.134644 
	C285.677460,304.706604 295.600922,295.714264 305.072998,286.269226 
	C312.620514,278.743225 320.610901,272.141632 330.479584,267.775330 
	C350.888489,258.745575 371.095093,258.748138 391.498383,267.765839 
	C401.360931,272.124817 409.645996,278.417175 416.955872,286.650635 
z"/>
<path fill="#D23A45" opacity="1.000000" stroke="none" 
	d="
M583.418640,628.896851 
	C584.760803,626.056946 586.893799,625.293152 589.826965,627.850098 
	C587.977539,628.391357 585.904236,628.675659 583.418640,628.896851 
z"/>
<path fill="#97315A" opacity="1.000000" stroke="none" 
	d="
M213.338623,252.963867 
	C214.489716,251.448792 215.935181,249.787491 217.746826,248.085648 
	C216.619644,249.635941 215.126312,251.226791 213.338623,252.963867 
z"/>
<path fill="#A53355" opacity="1.000000" stroke="none" 
	d="
M269.672424,319.041351 
	C268.844788,320.222412 267.726532,321.545288 266.247589,322.913208 
	C267.051880,321.699890 268.216858,320.441528 269.672424,319.041351 
z"/>
<path fill="#000000" opacity="1.000000" stroke="none" 
	d="
M1522.348145,456.410522 
	C1530.765381,433.939575 1542.346558,414.230652 1563.032837,401.395020 
	C1574.405640,394.338257 1586.962891,390.987732 1600.311157,389.903931 
	C1611.693970,388.979675 1622.884766,389.595612 1633.854614,392.530762 
	C1656.510742,398.592712 1671.104858,413.773804 1679.716309,434.926910 
	C1686.153442,450.739075 1689.574951,467.334473 1690.012451,484.472290 
	C1690.281250,495.001373 1690.283203,495.001465 1679.646851,495.001434 
	C1626.857056,495.001312 1574.067139,495.004150 1521.277344,494.997314 
	C1514.027710,494.996399 1513.684448,494.905273 1515.094604,487.862457 
	C1517.180908,477.444183 1519.812256,467.135040 1522.348145,456.410522 
z"/>
</svg>