<?xml version="1.0" encoding="UTF-8"?>
<!DOCTYPE svg PUBLIC "-//W3C//DTD SVG 1.1//EN" "http://www.w3.org/Graphics/SVG/1.1/DTD/svg11.dtd">
<svg xmlns="http://www.w3.org/2000/svg" version="1.1" width="1200px" height="341px" style="shape-rendering:geometricPrecision; text-rendering:geometricPrecision; image-rendering:optimizeQuality; fill-rule:evenodd; clip-rule:evenodd" xmlns:xlink="http://www.w3.org/1999/xlink">
<g><path style="opacity:0.992" fill="#00feba" d="M 92.5,63.5 C 150.5,63.5 208.5,63.5 266.5,63.5C 266.667,121.501 266.5,179.501 266,237.5C 253.5,250 241,262.5 228.5,275C 170.501,275.5 112.501,275.667 54.5,275.5C 54.3333,217.832 54.5,160.166 55,102.5C 67.3394,89.3277 79.8394,76.3277 92.5,63.5 Z"/></g>
<g><path style="opacity:0.992" fill="#252c2a" d="M 1044.5,125.5 C 1067.17,125.333 1089.84,125.5 1112.5,126C 1119,127.833 1123.17,132 1125,138.5C 1125.5,163.831 1125.67,189.164 1125.5,214.5C 1119.17,214.5 1112.83,214.5 1106.5,214.5C 1106.5,203.167 1106.5,191.833 1106.5,180.5C 1087.83,180.5 1069.17,180.5 1050.5,180.5C 1050.5,191.833 1050.5,203.167 1050.5,214.5C 1044.5,214.5 1038.5,214.5 1032.5,214.5C 1032.33,189.164 1032.5,163.831 1033,138.5C 1034.55,132.116 1038.39,127.783 1044.5,125.5 Z M 1059.5,140.5 C 1073.89,140.07 1088.23,140.57 1102.5,142C 1103.67,143.167 1104.83,144.333 1106,145.5C 1106.5,152.492 1106.67,159.492 1106.5,166.5C 1087.83,166.5 1069.17,166.5 1050.5,166.5C 1050.33,160.158 1050.5,153.825 1051,147.5C 1052.84,143.815 1055.67,141.482 1059.5,140.5 Z"/></g>
<g><path style="opacity:0.997" fill="#252c2a" d="M 375.5,125.5 C 399.169,125.333 422.836,125.5 446.5,126C 440.167,131.667 433.833,137.333 427.5,143C 411.167,143.333 394.833,143.667 378.5,144C 373.845,146.897 372.345,151.063 374,156.5C 375.167,157.667 376.333,158.833 377.5,160C 392.167,160.333 406.833,160.667 421.5,161C 436.673,163.688 445.007,172.688 446.5,188C 445.396,201.589 438.396,210.256 425.5,214C 401.5,214.667 377.5,214.667 353.5,214C 359.873,207.958 366.54,202.292 373.5,197C 389.5,196.667 405.5,196.333 421.5,196C 426.906,194.02 428.739,190.186 427,184.5C 426.167,182.333 424.667,180.833 422.5,180C 407.5,179.667 392.5,179.333 377.5,179C 357.927,173.023 351.094,160.19 357,140.5C 361.423,133.223 367.59,128.223 375.5,125.5 Z"/></g>
<g><path style="opacity:0.993" fill="#262c2a" d="M 503.5,125.5 C 526.169,125.333 548.836,125.5 571.5,126C 577.796,127.96 581.629,132.127 583,138.5C 583.667,159.833 583.667,181.167 583,202.5C 581.167,208.333 577.333,212.167 571.5,214C 548.833,214.667 526.167,214.667 503.5,214C 498.475,212.311 494.641,209.144 492,204.5C 491.333,181.833 491.333,159.167 492,136.5C 494.11,130.89 497.944,127.224 503.5,125.5 Z M 515.5,142.5 C 530.17,142.333 544.837,142.5 559.5,143C 562.381,144.251 564.214,146.417 565,149.5C 565.667,162.833 565.667,176.167 565,189.5C 563.826,192.674 561.659,194.841 558.5,196C 544.5,196.667 530.5,196.667 516.5,196C 514.152,195.654 512.319,194.487 511,192.5C 509.384,177.902 509.051,163.235 510,148.5C 511.36,145.977 513.193,143.977 515.5,142.5 Z"/></g>
<g><path style="opacity:0.992" fill="#252c2a" d="M 628.5,125.5 C 634.5,125.5 640.5,125.5 646.5,125.5C 646.5,150.167 646.5,174.833 646.5,199.5C 668.503,199.333 690.503,199.5 712.5,200C 708.167,204.667 703.833,209.333 699.5,214C 675.836,214.5 652.169,214.667 628.5,214.5C 628.5,184.833 628.5,155.167 628.5,125.5 Z"/></g>
<g><path style="opacity:0.998" fill="#252c2a" d="M 757.5,214.5 C 757.027,187.769 757.527,161.102 759,134.5C 761.315,130.183 764.815,127.35 769.5,126C 792.167,125.333 814.833,125.333 837.5,126C 842.91,127.743 846.744,131.243 849,136.5C 849.5,162.498 849.667,188.498 849.5,214.5C 843.5,214.5 837.5,214.5 831.5,214.5C 831.5,203.167 831.5,191.833 831.5,180.5C 812.833,180.5 794.167,180.5 775.5,180.5C 775.5,191.833 775.5,203.167 775.5,214.5C 769.5,214.5 763.5,214.5 757.5,214.5 Z M 783.5,140.5 C 796.837,140.333 810.171,140.5 823.5,141C 827.567,141.438 830.067,143.605 831,147.5C 831.5,153.825 831.666,160.158 831.5,166.5C 812.833,166.5 794.167,166.5 775.5,166.5C 775.334,160.158 775.5,153.825 776,147.5C 777.211,143.666 779.711,141.333 783.5,140.5 Z"/></g>
<g><path style="opacity:0.996" fill="#252c2a" d="M 894.5,125.5 C 900.868,125.17 907.202,125.504 913.5,126.5C 932.187,148.02 950.687,169.686 969,191.5C 969.5,169.503 969.667,147.503 969.5,125.5C 975.5,125.5 981.5,125.5 987.5,125.5C 987.5,155.167 987.5,184.833 987.5,214.5C 981.107,214.793 974.773,214.46 968.5,213.5C 950.519,192.685 932.353,172.018 914,151.5C 913.5,172.497 913.333,193.497 913.5,214.5C 907.167,214.5 900.833,214.5 894.5,214.5C 894.5,184.833 894.5,155.167 894.5,125.5 Z"/></g>
<g><path style="opacity:1" fill="#262d2b" d="M 135.5,127.5 C 140.5,127.5 145.5,127.5 150.5,127.5C 150.5,132.5 150.5,137.5 150.5,142.5C 145.5,142.5 140.5,142.5 135.5,142.5C 135.5,137.5 135.5,132.5 135.5,127.5 Z"/></g>
<g><path style="opacity:1" fill="#262c2a" d="M 153.5,127.5 C 158.5,127.5 163.5,127.5 168.5,127.5C 168.5,132.5 168.5,137.5 168.5,142.5C 168.5,137.5 168.5,132.5 168.5,127.5C 163.5,127.5 158.5,127.5 153.5,127.5 Z"/></g>
<g><path style="opacity:1" fill="#262b29" d="M 170.5,127.5 C 175.5,127.5 180.5,127.5 185.5,127.5C 185.5,132.5 185.5,137.5 185.5,142.5C 180.5,142.5 175.5,142.5 170.5,142.5C 170.5,137.5 170.5,132.5 170.5,127.5 Z"/></g>
<g><path style="opacity:1" fill="#1d5a49" d="M 188.5,127.5 C 188.182,132.032 188.515,136.366 189.5,140.5C 189.217,141.289 188.717,141.956 188,142.5C 187.184,137.316 187.35,132.316 188.5,127.5 Z"/></g>
<g><path style="opacity:1" fill="#262d2b" d="M 188.5,127.5 C 193.179,127.334 197.845,127.501 202.5,128C 198.298,132.37 193.964,136.537 189.5,140.5C 188.515,136.366 188.182,132.032 188.5,127.5 Z"/></g>
<g><path style="opacity:1" fill="#26302d" d="M 133.5,142.5 C 128.637,142.819 123.97,142.486 119.5,141.5C 123.785,137.215 128.119,132.881 132.5,128.5C 133.493,133.12 133.827,137.786 133.5,142.5 Z"/></g>
<g><path style="opacity:1" fill="#0db689" d="M 119.5,141.5 C 123.97,142.486 128.637,142.819 133.5,142.5C 128.652,143.814 123.652,143.814 118.5,142.5C 118.624,141.893 118.957,141.56 119.5,141.5 Z"/></g>
<g><path style="opacity:1" fill="#12a77f" d="M 153.5,127.5 C 153.5,132.5 153.5,137.5 153.5,142.5C 158.5,142.5 163.5,142.5 168.5,142.5C 163.36,143.488 158.026,143.821 152.5,143.5C 152.179,137.974 152.512,132.64 153.5,127.5 Z"/></g>
<g><path style="opacity:1" fill="#273430" d="M 118.5,144.5 C 123.5,144.5 128.5,144.5 133.5,144.5C 133.5,149.833 133.5,155.167 133.5,160.5C 128.5,160.5 123.5,160.5 118.5,160.5C 118.5,155.167 118.5,149.833 118.5,144.5 Z"/></g>
<g><path style="opacity:1" fill="#10a67d" d="M 133.5,162.5 C 128.637,162.181 123.97,162.514 119.5,163.5C 118.957,163.44 118.624,163.107 118.5,162.5C 123.652,161.186 128.652,161.186 133.5,162.5 Z"/></g>
<g><path style="opacity:1" fill="#158e6d" d="M 168.5,162.5 C 163.5,162.5 158.5,162.5 153.5,162.5C 153.5,167.5 153.5,172.5 153.5,177.5C 152.512,172.36 152.179,167.026 152.5,161.5C 158.026,161.179 163.36,161.512 168.5,162.5 Z"/></g>
<g><path style="opacity:1" fill="#252e2c" d="M 168.5,162.5 C 168.5,167.5 168.5,172.5 168.5,177.5C 163.5,177.5 158.5,177.5 153.5,177.5C 153.5,172.5 153.5,167.5 153.5,162.5C 158.5,162.5 163.5,162.5 168.5,162.5 Z"/></g>
<g><path style="opacity:1" fill="#252e2b" d="M 119.5,163.5 C 123.97,162.514 128.637,162.181 133.5,162.5C 133.666,167.179 133.499,171.845 133,176.5C 128.631,171.963 124.131,167.63 119.5,163.5 Z"/></g>
<g><path style="opacity:1" fill="#252f2c" d="M 135.5,162.5 C 140.5,162.5 145.5,162.5 150.5,162.5C 150.5,167.5 150.5,172.5 150.5,177.5C 145.5,177.5 140.5,177.5 135.5,177.5C 135.5,172.5 135.5,167.5 135.5,162.5 Z"/></g>
<g><path style="opacity:1" fill="#262d2b" d="M 170.5,162.5 C 175.5,162.5 180.5,162.5 185.5,162.5C 185.5,167.5 185.5,172.5 185.5,177.5C 180.5,177.5 175.5,177.5 170.5,177.5C 170.5,172.5 170.5,167.5 170.5,162.5 Z"/></g>
<g><path style="opacity:1" fill="#25342f" d="M 187.5,162.5 C 192.631,167.13 197.631,171.963 202.5,177C 197.511,177.499 192.511,177.666 187.5,177.5C 187.5,172.5 187.5,167.5 187.5,162.5 Z"/></g>
<g><path style="opacity:1" fill="#25302d" d="M 187.5,179.5 C 192.833,179.5 198.167,179.5 203.5,179.5C 203.5,184.5 203.5,189.5 203.5,194.5C 198.167,194.5 192.833,194.5 187.5,194.5C 187.5,189.5 187.5,184.5 187.5,179.5 Z"/></g>
<g><path style="opacity:1" fill="#252e2b" d="M 135.5,196.5 C 140.5,196.5 145.5,196.5 150.5,196.5C 150.5,201.5 150.5,206.5 150.5,211.5C 145.5,211.5 140.5,211.5 135.5,211.5C 135.5,206.5 135.5,201.5 135.5,196.5 Z"/></g>
<g><path style="opacity:1" fill="#252d2b" d="M 153.5,196.5 C 158.5,196.5 163.5,196.5 168.5,196.5C 168.5,201.5 168.5,206.5 168.5,211.5C 168.5,206.5 168.5,201.5 168.5,196.5C 163.5,196.5 158.5,196.5 153.5,196.5 Z"/></g>
<g><path style="opacity:1" fill="#262b2a" d="M 170.5,196.5 C 175.5,196.5 180.5,196.5 185.5,196.5C 185.5,201.5 185.5,206.5 185.5,211.5C 180.5,211.5 175.5,211.5 170.5,211.5C 170.5,206.5 170.5,201.5 170.5,196.5 Z"/></g>
<g><path style="opacity:1" fill="#26322e" d="M 187.5,196.5 C 192.511,196.334 197.511,196.501 202.5,197C 197.667,201.833 192.833,206.667 188,211.5C 187.501,206.511 187.334,201.511 187.5,196.5 Z"/></g>
<g><path style="opacity:1" fill="#252d2b" d="M 133.5,211.5 C 128.637,211.819 123.97,211.486 119.5,210.5C 124.131,206.37 128.631,202.037 133,197.5C 133.499,202.155 133.666,206.821 133.5,211.5 Z"/></g>
<g><path style="opacity:1" fill="#0eb286" d="M 119.5,210.5 C 123.97,211.486 128.637,211.819 133.5,211.5C 128.652,212.814 123.652,212.814 118.5,211.5C 118.624,210.893 118.957,210.56 119.5,210.5 Z"/></g>
<g><path style="opacity:1" fill="#12a47c" d="M 153.5,196.5 C 153.5,201.5 153.5,206.5 153.5,211.5C 158.5,211.5 163.5,211.5 168.5,211.5C 163.36,212.488 158.026,212.821 152.5,212.5C 152.179,206.974 152.512,201.64 153.5,196.5 Z"/></g>
<g><path style="opacity:0.004" fill="#000000" d="M 757.5,214.5 C 756.833,215.167 756.833,215.167 757.5,214.5 Z"/></g>
</svg>
