<?xml version="1.0" encoding="UTF-8"?>
<!DOCTYPE svg PUBLIC "-//W3C//DTD SVG 1.1//EN" "http://www.w3.org/Graphics/SVG/1.1/DTD/svg11.dtd">
<svg xmlns="http://www.w3.org/2000/svg" version="1.1" width="1200px" height="600px" style="shape-rendering:geometricPrecision; text-rendering:geometricPrecision; image-rendering:optimizeQuality; fill-rule:evenodd; clip-rule:evenodd" xmlns:xlink="http://www.w3.org/1999/xlink">
<g><path style="opacity:1" fill="#fefefe" d="M -0.5,-0.5 C 399.5,-0.5 799.5,-0.5 1199.5,-0.5C 1199.5,199.5 1199.5,399.5 1199.5,599.5C 799.5,599.5 399.5,599.5 -0.5,599.5C -0.5,399.5 -0.5,199.5 -0.5,-0.5 Z"/></g>
<g><path style="opacity:1" fill="#0f1d31" d="M 330.5,148.5 C 265.833,148.5 201.167,148.5 136.5,148.5C 189.847,115.273 245.847,110.44 304.5,134C 313.713,138.101 322.38,142.934 330.5,148.5 Z"/></g>
<g><path style="opacity:1" fill="#091a35" d="M 136.5,148.5 C 201.167,148.5 265.833,148.5 330.5,148.5C 347.265,158.256 361.598,170.923 373.5,186.5C 351.327,186.169 329.327,186.503 307.5,187.5C 297.791,186.217 288.124,186.217 278.5,187.5C 217.336,186.501 156.002,186.168 94.5,186.5C 102.604,175.228 112.271,165.395 123.5,157C 127.716,153.944 132.049,151.111 136.5,148.5 Z"/></g>
<g><path style="opacity:1" fill="#051839" d="M 94.5,186.5 C 156.002,186.168 217.336,186.501 278.5,187.5C 264.419,190.538 252.419,197.204 242.5,207.5C 188.156,208.162 134.156,207.496 80.5,205.5C 84.4265,198.58 89.0932,192.247 94.5,186.5 Z"/></g>
<g><path style="opacity:1" fill="#07193b" d="M 307.5,187.5 C 329.327,186.503 351.327,186.169 373.5,186.5C 382.442,197.118 389.775,208.785 395.5,221.5C 381.323,221.171 367.323,221.504 353.5,222.5C 343.357,204.087 328.023,192.42 307.5,187.5 Z"/></g>
<g><path style="opacity:1" fill="#07193d" d="M 80.5,205.5 C 134.156,207.496 188.156,208.162 242.5,207.5C 238.577,212.36 234.91,217.36 231.5,222.5C 178.336,221.501 125.003,221.168 71.5,221.5C 74.0089,215.808 77.0089,210.474 80.5,205.5 Z"/></g>
<g><path style="opacity:1" fill="#0e1d43" d="M 337.5,247.5 C 334.316,249.414 330.649,250.08 326.5,249.5C 320.926,227.033 306.592,217.533 283.5,221C 269.723,225.72 261.389,235.22 258.5,249.5C 254.833,249.5 251.167,249.5 247.5,249.5C 251.914,224.588 266.747,210.921 292,208.5C 316.913,210.253 332.079,223.253 337.5,247.5 Z"/></g>
<g><path style="opacity:1" fill="#fdfdfd" d="M 326.5,249.5 C 327.175,273.323 315.675,286.323 292,288.5C 275.046,286.887 264.046,277.887 259,261.5C 258.501,257.514 258.334,253.514 258.5,249.5C 261.389,235.22 269.723,225.72 283.5,221C 306.592,217.533 320.926,227.033 326.5,249.5 Z"/></g>
<g><path style="opacity:1" fill="#081941" d="M 71.5,221.5 C 125.003,221.168 178.336,221.501 231.5,222.5C 227.448,231.042 225.114,240.042 224.5,249.5C 169.762,249.171 115.095,249.505 60.5,250.5C 63.1829,240.45 66.8496,230.783 71.5,221.5 Z"/></g>
<g><path style="opacity:1" fill="#091a42" d="M 395.5,221.5 C 400.234,230.318 403.9,239.652 406.5,249.5C 391.5,249.5 376.5,249.5 361.5,249.5C 361.737,248.209 361.404,247.209 360.5,246.5C 359.782,238.015 357.449,230.015 353.5,222.5C 367.323,221.504 381.323,221.171 395.5,221.5 Z"/></g>
<g><path style="opacity:1" fill="#030303" d="M 507.5,231.5 C 528.111,228.599 546.444,233.599 562.5,246.5C 557.471,252.363 551.971,257.697 546,262.5C 533.059,253.374 519.226,251.541 504.5,257C 496.452,264.158 495.452,272.158 501.5,281C 503.888,282.861 506.554,284.194 509.5,285C 521.332,286.594 532.999,288.927 544.5,292C 567.735,306.067 572.902,325.233 560,349.5C 548.1,362.527 533.267,368.527 515.5,367.5C 501.461,368.328 488.461,365.161 476.5,358C 473.781,355.618 471.447,352.951 469.5,350C 474.303,344.029 479.637,338.529 485.5,333.5C 494.017,341.618 504.184,345.284 516,344.5C 525.386,345.661 533.386,342.994 540,336.5C 544.867,326.968 542.7,319.468 533.5,314C 520.466,311.425 507.466,308.758 494.5,306C 479.335,299.352 472.335,287.685 473.5,271C 474.632,249.036 485.965,235.869 507.5,231.5 Z"/></g>
<g><path style="opacity:1" fill="#000000" d="M 664.5,366.5 C 655.167,366.5 645.833,366.5 636.5,366.5C 636.832,329.33 636.498,292.33 635.5,255.5C 623.5,255.5 611.5,255.5 599.5,255.5C 599.5,247.833 599.5,240.167 599.5,232.5C 632.167,232.5 664.833,232.5 697.5,232.5C 697.5,240.167 697.5,247.833 697.5,255.5C 686.5,255.5 675.5,255.5 664.5,255.5C 664.5,292.5 664.5,329.5 664.5,366.5 Z"/></g>
<g><path style="opacity:1" fill="#030303" d="M 737.5,232.5 C 767.5,232.5 797.5,232.5 827.5,232.5C 827.5,240.167 827.5,247.833 827.5,255.5C 807.167,255.5 786.833,255.5 766.5,255.5C 766.5,266.167 766.5,276.833 766.5,287.5C 784.167,287.5 801.833,287.5 819.5,287.5C 819.5,295.167 819.5,302.833 819.5,310.5C 801.833,310.5 784.167,310.5 766.5,310.5C 766.5,321.5 766.5,332.5 766.5,343.5C 786.833,343.5 807.167,343.5 827.5,343.5C 827.5,351.167 827.5,358.833 827.5,366.5C 797.5,366.5 767.5,366.5 737.5,366.5C 737.5,321.833 737.5,277.167 737.5,232.5 Z"/></g>
<g><path style="opacity:1" fill="#030303" d="M 985.5,365.5 C 976.348,366.494 967.015,366.827 957.5,366.5C 954.964,358.893 952.631,351.226 950.5,343.5C 935.163,343.333 919.83,343.5 904.5,344C 901.666,351.002 899.333,358.169 897.5,365.5C 887.916,366.473 878.25,366.806 868.5,366.5C 884.041,322.413 899.874,278.413 916,234.5C 919.402,233.211 923.069,232.544 927,232.5C 930.75,232.517 934.417,232.851 938,233.5C 954.126,277.413 969.959,321.413 985.5,365.5 Z"/></g>
<g><path style="opacity:1" fill="#030303" d="M 1023.5,232.5 C 1033.08,232.182 1042.58,232.515 1052,233.5C 1062.39,257.285 1073.06,280.952 1084,304.5C 1096.26,280.989 1108.26,257.322 1120,233.5C 1128.41,232.517 1136.91,232.183 1145.5,232.5C 1145.5,277.167 1145.5,321.833 1145.5,366.5C 1137.5,366.5 1129.5,366.5 1121.5,366.5C 1121.83,340.491 1121.5,314.491 1120.5,288.5C 1119.89,288.624 1119.56,288.957 1119.5,289.5C 1110.78,305.94 1101.78,322.273 1092.5,338.5C 1086.83,339.833 1081.17,339.833 1075.5,338.5C 1067.67,322.167 1059.83,305.833 1052,289.5C 1051.5,315.165 1051.33,340.831 1051.5,366.5C 1042.17,366.5 1032.83,366.5 1023.5,366.5C 1023.5,321.833 1023.5,277.167 1023.5,232.5 Z"/></g>
<g><path style="opacity:1" fill="#0a1b47" d="M 224.5,249.5 C 224.752,252.32 224.252,254.986 223,257.5C 219.28,262.38 215.78,267.38 212.5,272.5C 160.5,272.5 108.5,272.5 56.5,272.5C 56.5,271.167 56.5,269.833 56.5,268.5C 57.2082,262.336 58.5416,256.336 60.5,250.5C 115.095,249.505 169.762,249.171 224.5,249.5 Z"/></g>
<g><path style="opacity:1" fill="#f7f7f7" d="M 945.5,320.5 C 934.654,320.828 923.987,320.494 913.5,319.5C 918.161,303.685 923.327,288.018 929,272.5C 934.99,288.303 940.49,304.303 945.5,320.5 Z"/></g>
<g><path style="opacity:1" fill="#0c204e" d="M 56.5,268.5 C 56.5,269.833 56.5,271.167 56.5,272.5C 108.5,272.5 160.5,272.5 212.5,272.5C 208.833,277.833 205.167,283.167 201.5,288.5C 153.5,288.5 105.5,288.5 57.5,288.5C 56.5,288.5 55.5,288.5 54.5,288.5C 54.6377,281.637 55.3044,274.97 56.5,268.5 Z"/></g>
<g><path style="opacity:1" fill="#0d1f4d" d="M 360.5,246.5 C 361.404,247.209 361.737,248.209 361.5,249.5C 376.5,249.5 391.5,249.5 406.5,249.5C 409.983,260.874 411.983,272.541 412.5,284.5C 412.5,285.833 412.5,287.167 412.5,288.5C 392.5,288.5 372.5,288.5 352.5,288.5C 359.148,275.313 361.815,261.313 360.5,246.5 Z"/></g>
<g><path style="opacity:1" fill="#102656" d="M 57.5,288.5 C 105.5,288.5 153.5,288.5 201.5,288.5C 194.386,298.551 187.386,308.717 180.5,319C 169.55,318.735 159.55,321.569 150.5,327.5C 119.296,314.724 88.2958,301.724 57.5,288.5 Z"/></g>
<g><path style="opacity:1" fill="#122351" d="M 337.5,247.5 C 339.454,273.721 327.787,290.887 302.5,299C 276.513,302.259 258.679,291.759 249,267.5C 247.928,261.545 247.428,255.545 247.5,249.5C 251.167,249.5 254.833,249.5 258.5,249.5C 258.334,253.514 258.501,257.514 259,261.5C 264.046,277.887 275.046,286.887 292,288.5C 315.675,286.323 327.175,273.323 326.5,249.5C 330.649,250.08 334.316,249.414 337.5,247.5 Z"/></g>
<g><path style="opacity:1" fill="#212121" d="M 1119.5,289.5 C 1119.56,288.957 1119.89,288.624 1120.5,288.5C 1121.5,314.491 1121.83,340.491 1121.5,366.5C 1120.83,340.833 1120.17,315.167 1119.5,289.5 Z"/></g>
<g><path style="opacity:1" fill="#102759" d="M 412.5,284.5 C 413.633,295.341 413.633,306.341 412.5,317.5C 381.995,317.831 351.662,317.498 321.5,316.5C 334.378,309.954 344.711,300.621 352.5,288.5C 372.5,288.5 392.5,288.5 412.5,288.5C 412.5,287.167 412.5,285.833 412.5,284.5 Z"/></g>
<g><path style="opacity:1" fill="#142e61" d="M 321.5,316.5 C 351.662,317.498 381.995,317.831 412.5,317.5C 411.685,323.538 410.685,329.538 409.5,335.5C 364.664,335.832 319.997,335.499 275.5,334.5C 280.431,330.687 285.431,326.854 290.5,323C 301.391,323.187 311.725,321.021 321.5,316.5 Z"/></g>
<g><path style="opacity:1" fill="#323232" d="M 913.5,319.5 C 923.987,320.494 934.654,320.828 945.5,320.5C 934.66,321.824 923.66,321.824 912.5,320.5C 912.624,319.893 912.957,319.56 913.5,319.5 Z"/></g>
<g><path style="opacity:1" fill="#133569" d="M 275.5,334.5 C 319.997,335.499 364.664,335.832 409.5,335.5C 408.926,340.281 407.926,344.948 406.5,349.5C 355.997,349.832 305.664,349.499 255.5,348.5C 261.89,343.444 268.557,338.777 275.5,334.5 Z"/></g>
<g><path style="opacity:1" fill="#133b6f" d="M 255.5,348.5 C 305.664,349.499 355.997,349.832 406.5,349.5C 405.167,353.167 403.833,356.833 402.5,360.5C 348.331,360.832 294.331,360.499 240.5,359.5C 245.284,355.601 250.284,351.934 255.5,348.5 Z"/></g>
<g><path style="opacity:1" fill="#193e70" d="M 216.5,372.5 C 212.833,372.5 209.167,372.5 205.5,372.5C 206.157,360.981 201.824,351.815 192.5,345C 183.382,341.186 174.382,337.186 165.5,333C 181.934,328.253 196.101,332.087 208,344.5C 214.559,352.678 217.392,362.011 216.5,372.5 Z"/></g>
<g><path style="opacity:1" fill="#144174" d="M 240.5,359.5 C 294.331,360.499 348.331,360.832 402.5,360.5C 401.679,364.127 400.346,367.46 398.5,370.5C 341.833,370.5 285.167,370.5 228.5,370.5C 228.297,368.61 228.963,367.11 230.5,366C 233.986,364.004 237.319,361.837 240.5,359.5 Z"/></g>
<g><path style="opacity:1" fill="#a5a5a5" d="M 635.5,255.5 C 636.498,292.33 636.832,329.33 636.5,366.5C 645.833,366.5 655.167,366.5 664.5,366.5C 655.014,367.494 645.348,367.827 635.5,367.5C 635.5,330.167 635.5,292.833 635.5,255.5 Z"/></g>
<g><path style="opacity:1" fill="#cccccc" d="M 897.5,365.5 C 893.049,366.827 888.216,367.494 883,367.5C 877.988,367.499 873.155,367.166 868.5,366.5C 878.25,366.806 887.916,366.473 897.5,365.5 Z"/></g>
<g><path style="opacity:1" fill="#cbcbcb" d="M 985.5,365.5 C 986.043,365.56 986.376,365.893 986.5,366.5C 976.675,367.823 967.008,367.823 957.5,366.5C 967.015,366.827 976.348,366.494 985.5,365.5 Z"/></g>
<g><path style="opacity:1" fill="#9b9b9b" d="M 1023.5,232.5 C 1023.5,277.167 1023.5,321.833 1023.5,366.5C 1032.83,366.5 1042.17,366.5 1051.5,366.5C 1042.01,367.494 1032.35,367.827 1022.5,367.5C 1022.17,322.33 1022.5,277.33 1023.5,232.5 Z"/></g>
<g><path style="opacity:1" fill="#174779" d="M 130.5,384.5 C 112.167,384.5 93.8333,384.5 75.5,384.5C 69.1354,374.198 64.9687,363.531 63,352.5C 85.0285,361.934 107.195,370.934 129.5,379.5C 129.629,381.216 129.962,382.883 130.5,384.5 Z"/></g>
<g><path style="opacity:1" fill="#144679" d="M 228.5,370.5 C 285.167,370.5 341.833,370.5 398.5,370.5C 397.008,374.818 395.008,378.818 392.5,382.5C 337.5,382.5 282.5,382.5 227.5,382.5C 227.5,381.167 227.5,379.833 227.5,378.5C 227.833,375.833 228.167,373.167 228.5,370.5 Z"/></g>
<g><path style="opacity:1" fill="#144d80" d="M 227.5,378.5 C 227.5,379.833 227.5,381.167 227.5,382.5C 282.5,382.5 337.5,382.5 392.5,382.5C 390.926,387.32 388.593,391.653 385.5,395.5C 330.664,395.832 275.997,395.499 221.5,394.5C 224.118,389.302 226.118,383.968 227.5,378.5 Z"/></g>
<g><path style="opacity:1" fill="#1b5486" d="M 205.5,372.5 C 209.167,372.5 212.833,372.5 216.5,372.5C 211.299,398.112 195.632,409.612 169.5,407C 158.506,403.845 150.173,397.345 144.5,387.5C 144.833,387.167 145.167,386.833 145.5,386.5C 153.793,390.098 162.126,393.598 170.5,397C 189.149,398.684 200.816,390.517 205.5,372.5 Z"/></g>
<g><path style="opacity:1" fill="#155285" d="M 75.5,384.5 C 93.8333,384.5 112.167,384.5 130.5,384.5C 133.629,392.746 138.296,400.079 144.5,406.5C 126.674,407.497 108.674,407.83 90.5,407.5C 84.3271,400.648 79.3271,392.982 75.5,384.5 Z"/></g>
<g><path style="opacity:1" fill="#145386" d="M 221.5,394.5 C 275.997,395.499 330.664,395.832 385.5,395.5C 383.226,399.772 380.559,403.772 377.5,407.5C 321.997,407.832 266.664,407.499 211.5,406.5C 215.18,402.817 218.514,398.817 221.5,394.5 Z"/></g>
<g><path style="opacity:1" fill="#145a8d" d="M 144.5,406.5 C 166.886,423.826 189.219,423.826 211.5,406.5C 266.664,407.499 321.997,407.832 377.5,407.5C 373.845,412.486 369.845,417.153 365.5,421.5C 277.5,421.5 189.5,421.5 101.5,421.5C 97.0775,417.413 93.4108,412.746 90.5,407.5C 108.674,407.83 126.674,407.497 144.5,406.5 Z"/></g>
<g><path style="opacity:1" fill="#136093" d="M 101.5,421.5 C 189.5,421.5 277.5,421.5 365.5,421.5C 362.167,425.5 358.5,429.167 354.5,432.5C 274.167,432.5 193.833,432.5 113.5,432.5C 108.895,429.564 104.895,425.898 101.5,421.5 Z"/></g>
<g><path style="opacity:1" fill="#136799" d="M 113.5,432.5 C 193.833,432.5 274.167,432.5 354.5,432.5C 350.817,436.18 346.817,439.514 342.5,442.5C 270.167,442.5 197.833,442.5 125.5,442.5C 120.619,440.291 116.619,436.957 113.5,432.5 Z"/></g>
<g><path style="opacity:1" fill="#136da0" d="M 125.5,442.5 C 197.833,442.5 270.167,442.5 342.5,442.5C 338.852,445.66 334.852,448.327 330.5,450.5C 265.833,450.5 201.167,450.5 136.5,450.5C 132.264,448.555 128.597,445.888 125.5,442.5 Z"/></g>
<g><path style="opacity:1" fill="#1477a9" d="M 136.5,450.5 C 201.167,450.5 265.833,450.5 330.5,450.5C 325.903,454.142 320.903,457.308 315.5,460C 310.913,462.13 306.247,463.963 301.5,465.5C 256.167,465.5 210.833,465.5 165.5,465.5C 155.083,461.793 145.416,456.793 136.5,450.5 Z"/></g>
<g><path style="opacity:1" fill="#1982b2" d="M 165.5,465.5 C 210.833,465.5 256.167,465.5 301.5,465.5C 278.815,475.201 254.982,479.868 230,479.5C 217.328,479.437 204.828,477.937 192.5,475C 183.009,472.894 174.009,469.727 165.5,465.5 Z"/></g>
</svg>
