<?xml version="1.0" encoding="UTF-8"?>
<!DOCTYPE svg PUBLIC "-//W3C//DTD SVG 1.1//EN" "http://www.w3.org/Graphics/SVG/1.1/DTD/svg11.dtd">
<svg xmlns="http://www.w3.org/2000/svg" version="1.1" width="2400px" height="2398px" style="shape-rendering:geometricPrecision; text-rendering:geometricPrecision; image-rendering:optimizeQuality; fill-rule:evenodd; clip-rule:evenodd" xmlns:xlink="http://www.w3.org/1999/xlink">
<g><path style="opacity:1" fill="#0e1c30" d="M 1750.5,245.5 C 1567.17,246.833 1383.5,247.5 1199.5,247.5C 1015.83,247.333 832.167,247.167 648.5,247C 649.056,246.617 649.389,246.117 649.5,245.5C 819.606,147.427 1003.11,98.4273 1200,98.5C 1396.76,98.7279 1580.26,147.728 1750.5,245.5 Z"/></g>
<g><path style="opacity:1" fill="#0d1b32" d="M 649.5,245.5 C 649.389,246.117 649.056,246.617 648.5,247C 832.167,247.167 1015.83,247.333 1199.5,247.5C 1383.5,247.5 1567.17,246.833 1750.5,245.5C 1765.5,253.998 1780.17,262.998 1794.5,272.5C 1794.63,273.376 1794.3,274.043 1793.5,274.5C 1397.37,273.834 1001.37,273.167 605.5,272.5C 619.49,262.5 634.157,253.5 649.5,245.5 Z"/></g>
<g><path style="opacity:1" fill="#091935" d="M 605.5,272.5 C 1001.37,273.167 1397.37,273.834 1793.5,274.5C 1794.3,274.043 1794.63,273.376 1794.5,272.5C 1893.91,335.886 1980.58,413.886 2054.5,506.5C 1909.17,507.167 1763.83,507.833 1618.5,508.5C 1580.56,503.612 1542.56,503.279 1504.5,507.5C 1117.67,507.833 731,507.5 344.5,506.5C 418.845,413.918 505.845,335.918 605.5,272.5 Z"/></g>
<g><path style="opacity:1" fill="#fefefe" d="M 1618.5,508.5 C 1660.85,514.92 1701.52,526.92 1740.5,544.5C 1787.8,568.167 1829.8,599.167 1866.5,637.5C 1882.96,655.787 1897.96,675.121 1911.5,695.5C 1917.18,704.869 1922.85,714.203 1928.5,723.5C 1957.12,776.967 1973.45,833.967 1977.5,894.5C 1980.17,939.79 1976.17,984.457 1965.5,1028.5C 1959.99,1047.36 1953.66,1066.02 1946.5,1084.5C 1938.79,1100.92 1930.79,1117.25 1922.5,1133.5C 1907.13,1158.06 1889.96,1181.39 1871,1203.5C 1864.96,1209.37 1859.13,1215.37 1853.5,1221.5C 1815.17,1259.13 1771.17,1288.46 1721.5,1309.5C 1666.81,1332.25 1609.81,1343.09 1550.5,1342C 1539.59,1349.61 1528.92,1357.44 1518.5,1365.5C 1504.55,1374.79 1490.88,1384.45 1477.5,1394.5C 1465.89,1402.11 1454.56,1410.11 1443.5,1418.5C 1414.53,1438.81 1385.86,1459.48 1357.5,1480.5C 1347.86,1486.81 1338.53,1493.48 1329.5,1500.5C 1303.88,1518.12 1278.55,1536.12 1253.5,1554.5C 1244.95,1560.27 1236.62,1566.27 1228.5,1572.5C 1207.6,1586.56 1187.1,1601.23 1167,1616.5C 1166.5,1620.49 1166.33,1624.49 1166.5,1628.5C 1166.5,1632.5 1166.5,1636.5 1166.5,1640.5C 1164.2,1661.22 1160.87,1681.89 1156.5,1702.5C 1154.88,1705.62 1153.88,1708.96 1153.5,1712.5C 1145.24,1738.36 1134.24,1763.03 1120.5,1786.5C 1117.78,1789.89 1115.45,1793.56 1113.5,1797.5C 1097.26,1819.57 1078.93,1839.91 1058.5,1858.5C 1053.62,1861.11 1049.28,1864.44 1045.5,1868.5C 1000.25,1901.78 949.583,1921.78 893.5,1928.5C 871.817,1931.08 850.151,1931.08 828.5,1928.5C 771.746,1922.04 720.746,1901.71 675.5,1867.5C 671.386,1863.94 667.052,1860.6 662.5,1857.5C 643.01,1839.35 625.343,1819.68 609.5,1798.5C 607.081,1793.99 604.414,1789.66 601.5,1785.5C 588.315,1763.26 577.648,1739.93 569.5,1715.5C 568.613,1710.28 567.279,1705.28 565.5,1700.5C 565.545,1696.65 564.379,1693.32 562,1690.5C 510.85,1669.4 459.683,1648.4 408.5,1627.5C 321.252,1591.31 233.919,1555.31 146.5,1519.5C 145.883,1519.39 145.383,1519.06 145,1518.5C 127.838,1465.02 116.171,1410.36 110,1354.5C 101.46,1278.72 98.6267,1202.72 101.5,1126.5C 108.156,1128.83 114.823,1131.16 121.5,1133.5C 181.182,1158.73 241.182,1183.4 301.5,1207.5C 313.203,1213.01 325.203,1218.01 337.5,1222.5C 408.538,1252.35 479.871,1281.68 551.5,1310.5C 598.571,1330.53 645.904,1350.2 693.5,1369.5C 748.388,1333.69 808.721,1316.69 874.5,1318.5C 876.193,1315.82 877.86,1313.15 879.5,1310.5C 899.821,1281.2 920.154,1251.87 940.5,1222.5C 943.833,1217.5 947.167,1212.5 950.5,1207.5C 967.487,1182.87 984.487,1158.2 1001.5,1133.5C 1008.4,1124.04 1015.07,1114.38 1021.5,1104.5C 1026.15,1097.87 1030.82,1091.2 1035.5,1084.5C 1047.83,1066.5 1060.17,1048.5 1072.5,1030.5C 1095.32,997.529 1118.16,964.529 1141,931.5C 1142.5,919.265 1143.33,906.932 1143.5,894.5C 1147.83,833.511 1164.5,776.177 1193.5,722.5C 1199.15,713.203 1204.82,703.869 1210.5,694.5C 1223.95,674.606 1238.62,655.606 1254.5,637.5C 1291.17,599.489 1333.17,568.822 1380.5,545.5C 1401.47,535.399 1423.13,527.066 1445.5,520.5C 1465.04,515.085 1484.71,510.752 1504.5,507.5C 1542.56,503.279 1580.56,503.612 1618.5,508.5 Z"/></g>
<g><path style="opacity:1" fill="#061938" d="M 344.5,506.5 C 731,507.5 1117.67,507.833 1504.5,507.5C 1484.71,510.752 1465.04,515.085 1445.5,520.5C 1074.63,519.168 703.627,519.168 332.5,520.5C 336.155,515.514 340.155,510.847 344.5,506.5 Z"/></g>
<g><path style="opacity:1" fill="#061838" d="M 1445.5,520.5 C 1423.13,527.066 1401.47,535.399 1380.5,545.5C 1024.96,544.168 669.294,544.168 313.5,545.5C 319.591,536.987 325.924,528.654 332.5,520.5C 703.627,519.168 1074.63,519.168 1445.5,520.5 Z"/></g>
<g><path style="opacity:1" fill="#061838" d="M 2054.5,506.5 C 2065.54,518.914 2075.88,531.914 2085.5,545.5C 1970.54,544.504 1855.54,544.171 1740.5,544.5C 1701.52,526.92 1660.85,514.92 1618.5,508.5C 1763.83,507.833 1909.17,507.167 2054.5,506.5 Z"/></g>
<g><path style="opacity:1" fill="#051839" d="M 1380.5,545.5 C 1333.17,568.822 1291.17,599.489 1254.5,637.5C 920.666,637.833 587,637.5 253.5,636.5C 271.75,604.996 291.75,574.662 313.5,545.5C 669.294,544.168 1024.96,544.168 1380.5,545.5 Z"/></g>
<g><path style="opacity:1" fill="#05183a" d="M 1740.5,544.5 C 1855.54,544.171 1970.54,544.504 2085.5,545.5C 2106.9,573.965 2126.57,603.632 2144.5,634.5C 2144.5,635.5 2144.5,636.5 2144.5,637.5C 2051.83,637.5 1959.17,637.5 1866.5,637.5C 1829.8,599.167 1787.8,568.167 1740.5,544.5 Z"/></g>
<g><path style="opacity:1" fill="#06193c" d="M 253.5,636.5 C 587,637.5 920.666,637.833 1254.5,637.5C 1238.62,655.606 1223.95,674.606 1210.5,694.5C 880.833,694.5 551.167,694.5 221.5,694.5C 231.155,674.516 241.822,655.183 253.5,636.5 Z"/></g>
<g><path style="opacity:1" fill="#06193c" d="M 2144.5,634.5 C 2156.51,653.85 2167.51,673.85 2177.5,694.5C 2088.67,694.167 2000,694.501 1911.5,695.5C 1897.96,675.121 1882.96,655.787 1866.5,637.5C 1959.17,637.5 2051.83,637.5 2144.5,637.5C 2144.5,636.5 2144.5,635.5 2144.5,634.5 Z"/></g>
<g><path style="opacity:1" fill="#06193d" d="M 1719.5,694.5 C 1613.83,694.5 1508.17,694.5 1402.5,694.5C 1449.72,660.806 1502.56,644.139 1561,644.5C 1619.14,644.828 1671.98,661.494 1719.5,694.5 Z"/></g>
<g><path style="opacity:1" fill="#07193e" d="M 221.5,694.5 C 551.167,694.5 880.833,694.5 1210.5,694.5C 1204.82,703.869 1199.15,713.203 1193.5,722.5C 864.833,722.5 536.167,722.5 207.5,722.5C 211.659,712.849 216.325,703.516 221.5,694.5 Z"/></g>
<g><path style="opacity:1" fill="#07193e" d="M 1402.5,694.5 C 1508.17,694.5 1613.83,694.5 1719.5,694.5C 1731.73,702.73 1743.06,712.064 1753.5,722.5C 1711,722.168 1668.66,722.501 1626.5,723.5C 1582.81,710.195 1539.14,710.195 1495.5,723.5C 1453.34,722.501 1411,722.168 1368.5,722.5C 1378.37,711.285 1389.71,701.951 1402.5,694.5 Z"/></g>
<g><path style="opacity:1" fill="#07193e" d="M 2177.5,694.5 C 2182.67,703.516 2187.34,712.849 2191.5,722.5C 2103.67,722.167 2016,722.501 1928.5,723.5C 1922.85,714.203 1917.18,704.869 1911.5,695.5C 2000,694.501 2088.67,694.167 2177.5,694.5 Z"/></g>
<g><path style="opacity:1" fill="#fefefe" d="M 1626.5,723.5 C 1706.6,753.269 1753.93,810.269 1768.5,894.5C 1774.44,942.515 1765.44,987.515 1741.5,1029.5C 1728.76,1049.58 1713.43,1067.58 1695.5,1083.5C 1633.8,1131.76 1565.47,1143.93 1490.5,1120C 1467.12,1111.15 1445.79,1098.98 1426.5,1083.5C 1408.18,1067.53 1392.85,1049.2 1380.5,1028.5C 1357.35,987.113 1348.35,942.78 1353.5,895.5C 1364.58,825.831 1400.58,773.331 1461.5,738C 1472.46,732.354 1483.79,727.521 1495.5,723.5C 1539.14,710.195 1582.81,710.195 1626.5,723.5 Z"/></g>
<g><path style="opacity:1" fill="#071941" d="M 207.5,722.5 C 536.167,722.5 864.833,722.5 1193.5,722.5C 1164.5,776.177 1147.83,833.511 1143.5,894.5C 809.292,893.835 475.292,894.502 141.5,896.5C 157.952,836.285 179.952,778.285 207.5,722.5 Z"/></g>
<g><path style="opacity:1" fill="#081a41" d="M 1368.5,722.5 C 1411,722.168 1453.34,722.501 1495.5,723.5C 1483.79,727.521 1472.46,732.354 1461.5,738C 1400.58,773.331 1364.58,825.831 1353.5,895.5C 1330.26,894.173 1306.93,894.173 1283.5,895.5C 1290.86,827.118 1319.19,769.452 1368.5,722.5 Z"/></g>
<g><path style="opacity:1" fill="#081a41" d="M 1626.5,723.5 C 1668.66,722.501 1711,722.168 1753.5,722.5C 1802.28,769.393 1830.28,826.726 1837.5,894.5C 1814.5,894.5 1791.5,894.5 1768.5,894.5C 1753.93,810.269 1706.6,753.269 1626.5,723.5 Z"/></g>
<g><path style="opacity:1" fill="#071941" d="M 2191.5,722.5 C 2218.47,777.803 2240.47,835.136 2257.5,894.5C 2164.17,894.5 2070.83,894.5 1977.5,894.5C 1973.45,833.967 1957.12,776.967 1928.5,723.5C 2016,722.501 2103.67,722.167 2191.5,722.5 Z"/></g>
<g><path style="opacity:1" fill="#091a47" d="M 1143.5,894.5 C 1143.33,906.932 1142.5,919.265 1141,931.5C 1118.16,964.529 1095.32,997.529 1072.5,1030.5C 752.5,1030.5 432.5,1030.5 112.5,1030.5C 112.737,1031.79 112.404,1032.79 111.5,1033.5C 118.201,986.986 128.201,941.32 141.5,896.5C 475.292,894.502 809.292,893.835 1143.5,894.5 Z"/></g>
<g><path style="opacity:1" fill="#0a1b47" d="M 1353.5,895.5 C 1348.35,942.78 1357.35,987.113 1380.5,1028.5C 1355.52,1030.49 1330.19,1031.16 1304.5,1030.5C 1286.43,987.363 1279.43,942.363 1283.5,895.5C 1306.93,894.173 1330.26,894.173 1353.5,895.5 Z"/></g>
<g><path style="opacity:1" fill="#0a1b47" d="M 1768.5,894.5 C 1791.5,894.5 1814.5,894.5 1837.5,894.5C 1842.09,941.542 1835.42,986.875 1817.5,1030.5C 1791.99,1030.83 1766.66,1030.5 1741.5,1029.5C 1765.44,987.515 1774.44,942.515 1768.5,894.5 Z"/></g>
<g><path style="opacity:1" fill="#091b47" d="M 1977.5,894.5 C 2070.83,894.5 2164.17,894.5 2257.5,894.5C 2270.56,940.157 2280.56,986.49 2287.5,1033.5C 2286.6,1032.79 2286.26,1031.79 2286.5,1030.5C 2179.16,1031.16 2072.16,1030.5 1965.5,1028.5C 1976.17,984.457 1980.17,939.79 1977.5,894.5 Z"/></g>
<g><path style="opacity:1" fill="#0c1e4c" d="M 1380.5,1028.5 C 1392.85,1049.2 1408.18,1067.53 1426.5,1083.5C 1396,1084.5 1365.34,1084.83 1334.5,1084.5C 1321.94,1068.06 1311.94,1050.06 1304.5,1030.5C 1330.19,1031.16 1355.52,1030.49 1380.5,1028.5 Z"/></g>
<g><path style="opacity:1" fill="#0b1e4c" d="M 1072.5,1030.5 C 1060.17,1048.5 1047.83,1066.5 1035.5,1084.5C 725.5,1084.5 415.5,1084.5 105.5,1084.5C 105.795,1086.74 105.461,1088.74 104.5,1090.5C 106.097,1071.39 108.43,1052.39 111.5,1033.5C 112.404,1032.79 112.737,1031.79 112.5,1030.5C 432.5,1030.5 752.5,1030.5 1072.5,1030.5 Z"/></g>
<g><path style="opacity:1" fill="#0c1e4c" d="M 1741.5,1029.5 C 1766.66,1030.5 1791.99,1030.83 1817.5,1030.5C 1809.54,1049.75 1799.54,1067.75 1787.5,1084.5C 1756.66,1084.83 1726,1084.5 1695.5,1083.5C 1713.43,1067.58 1728.76,1049.58 1741.5,1029.5 Z"/></g>
<g><path style="opacity:1" fill="#0b1e4c" d="M 1965.5,1028.5 C 2072.16,1030.5 2179.16,1031.16 2286.5,1030.5C 2286.26,1031.79 2286.6,1032.79 2287.5,1033.5C 2290.57,1052.39 2292.9,1071.39 2294.5,1090.5C 2293.54,1088.74 2293.21,1086.74 2293.5,1084.5C 2177.83,1084.5 2062.17,1084.5 1946.5,1084.5C 1953.66,1066.02 1959.99,1047.36 1965.5,1028.5 Z"/></g>
<g><path style="opacity:1" fill="#0c204e" d="M 1035.5,1084.5 C 1030.82,1091.2 1026.15,1097.87 1021.5,1104.5C 715.431,1104.83 409.431,1104.5 103.5,1103.5C 103.294,1099.1 103.627,1094.77 104.5,1090.5C 105.461,1088.74 105.795,1086.74 105.5,1084.5C 415.5,1084.5 725.5,1084.5 1035.5,1084.5 Z"/></g>
<g><path style="opacity:1" fill="#0d2150" d="M 103.5,1103.5 C 409.431,1104.5 715.431,1104.83 1021.5,1104.5C 1015.07,1114.38 1008.4,1124.04 1001.5,1133.5C 708.167,1133.5 414.833,1133.5 121.5,1133.5C 114.823,1131.16 108.156,1128.83 101.5,1126.5C 101.674,1118.74 102.341,1111.07 103.5,1103.5 Z"/></g>
<g><path style="opacity:1" fill="#0c2050" d="M 1946.5,1084.5 C 2062.17,1084.5 2177.83,1084.5 2293.5,1084.5C 2293.21,1086.74 2293.54,1088.74 2294.5,1090.5C 2296.66,1109.09 2298,1127.76 2298.5,1146.5C 2297.52,1142.37 2297.18,1138.03 2297.5,1133.5C 2172.5,1133.5 2047.5,1133.5 1922.5,1133.5C 1930.79,1117.25 1938.79,1100.92 1946.5,1084.5 Z"/></g>
<g><path style="opacity:1" fill="#0e2252" d="M 1426.5,1083.5 C 1445.79,1098.98 1467.12,1111.15 1490.5,1120C 1565.47,1143.93 1633.8,1131.76 1695.5,1083.5C 1726,1084.5 1756.66,1084.83 1787.5,1084.5C 1724.55,1167.79 1640.55,1206.63 1535.5,1201C 1451.01,1191.45 1384.01,1152.62 1334.5,1084.5C 1365.34,1084.83 1396,1084.5 1426.5,1083.5 Z"/></g>
<g><path style="opacity:1" fill="#0e2353" d="M 121.5,1133.5 C 414.833,1133.5 708.167,1133.5 1001.5,1133.5C 984.487,1158.2 967.487,1182.87 950.5,1207.5C 734.167,1207.5 517.833,1207.5 301.5,1207.5C 241.182,1183.4 181.182,1158.73 121.5,1133.5 Z"/></g>
<g><path style="opacity:1" fill="#0e2354" d="M 1922.5,1133.5 C 2047.5,1133.5 2172.5,1133.5 2297.5,1133.5C 2297.18,1138.03 2297.52,1142.37 2298.5,1146.5C 2299.46,1173.48 2299.79,1200.48 2299.5,1227.5C 2298.55,1226.08 2298.22,1224.41 2298.5,1222.5C 2150,1222.83 2001.67,1222.5 1853.5,1221.5C 1859.13,1215.37 1864.96,1209.37 1871,1203.5C 1889.96,1181.39 1907.13,1158.06 1922.5,1133.5 Z"/></g>
<g><path style="opacity:1" fill="#0f2657" d="M 301.5,1207.5 C 517.833,1207.5 734.167,1207.5 950.5,1207.5C 947.167,1212.5 943.833,1217.5 940.5,1222.5C 739.5,1222.5 538.5,1222.5 337.5,1222.5C 325.203,1218.01 313.203,1213.01 301.5,1207.5 Z"/></g>
<g><path style="opacity:1" fill="#10285a" d="M 337.5,1222.5 C 538.5,1222.5 739.5,1222.5 940.5,1222.5C 920.154,1251.87 899.821,1281.2 879.5,1310.5C 770.167,1310.5 660.833,1310.5 551.5,1310.5C 479.871,1281.68 408.538,1252.35 337.5,1222.5 Z"/></g>
<g><path style="opacity:1" fill="#10285a" d="M 1853.5,1221.5 C 2001.67,1222.5 2150,1222.83 2298.5,1222.5C 2298.22,1224.41 2298.55,1226.08 2299.5,1227.5C 2298.7,1255.89 2297.04,1284.22 2294.5,1312.5C 2103.54,1310.84 1912.54,1309.84 1721.5,1309.5C 1771.17,1288.46 1815.17,1259.13 1853.5,1221.5 Z"/></g>
<g><path style="opacity:1" fill="#112c5f" d="M 1721.5,1309.5 C 1912.54,1309.84 2103.54,1310.84 2294.5,1312.5C 2292.09,1330.78 2289.76,1349.11 2287.5,1367.5C 2031.07,1366.83 1774.74,1366.17 1518.5,1365.5C 1528.92,1357.44 1539.59,1349.61 1550.5,1342C 1609.81,1343.09 1666.81,1332.25 1721.5,1309.5 Z"/></g>
<g><path style="opacity:1" fill="#132c5f" d="M 551.5,1310.5 C 660.833,1310.5 770.167,1310.5 879.5,1310.5C 877.86,1313.15 876.193,1315.82 874.5,1318.5C 808.721,1316.69 748.388,1333.69 693.5,1369.5C 645.904,1350.2 598.571,1330.53 551.5,1310.5 Z"/></g>
<g><path style="opacity:1" fill="#132e62" d="M 1518.5,1365.5 C 1774.74,1366.17 2031.07,1366.83 2287.5,1367.5C 2285.83,1376.17 2284.17,1384.83 2282.5,1393.5C 2148.37,1394.83 2014.04,1395.5 1879.5,1395.5C 1745.33,1395.5 1611.33,1395.17 1477.5,1394.5C 1490.88,1384.45 1504.55,1374.79 1518.5,1365.5 Z"/></g>
<g><path style="opacity:1" fill="#143165" d="M 973.5,1417.5 C 921.177,1419.5 868.511,1420.16 815.5,1419.5C 803.324,1415.16 791.324,1410.33 779.5,1405C 779.833,1404.67 780.167,1404.33 780.5,1404C 846.702,1380.93 911.035,1385.43 973.5,1417.5 Z"/></g>
<g><path style="opacity:1" fill="#133064" d="M 2282.5,1393.5 C 2281.45,1402.08 2279.78,1410.41 2277.5,1418.5C 1999.4,1419.83 1721.4,1419.83 1443.5,1418.5C 1454.56,1410.11 1465.89,1402.11 1477.5,1394.5C 1611.33,1395.17 1745.33,1395.5 1879.5,1395.5C 2014.04,1395.5 2148.37,1394.83 2282.5,1393.5 Z"/></g>
<g><path style="opacity:1" fill="#143468" d="M 973.5,1417.5 C 1009.26,1436.92 1037.92,1463.92 1059.5,1498.5C 1059.59,1499.5 1059.25,1500.33 1058.5,1501C 1031.17,1501.5 1003.84,1501.67 976.5,1501.5C 959.949,1485.21 940.949,1472.38 919.5,1463C 884.629,1448.72 849.963,1434.22 815.5,1419.5C 868.511,1420.16 921.177,1419.5 973.5,1417.5 Z"/></g>
<g><path style="opacity:1" fill="#133468" d="M 1443.5,1418.5 C 1721.4,1419.83 1999.4,1419.83 2277.5,1418.5C 2273.62,1439.68 2268.96,1460.68 2263.5,1481.5C 1961.33,1481.83 1659.33,1481.5 1357.5,1480.5C 1385.86,1459.48 1414.53,1438.81 1443.5,1418.5 Z"/></g>
<g><path style="opacity:1" fill="#13376b" d="M 1357.5,1480.5 C 1659.33,1481.5 1961.33,1481.83 2263.5,1481.5C 2261.5,1488.17 2259.5,1494.83 2257.5,1501.5C 1948,1501.83 1638.67,1501.5 1329.5,1500.5C 1338.53,1493.48 1347.86,1486.81 1357.5,1480.5 Z"/></g>
<g><path style="opacity:1" fill="#143b6e" d="M 1059.5,1498.5 C 1071.12,1516.07 1079.78,1535.07 1085.5,1555.5C 1060.83,1555.5 1036.17,1555.5 1011.5,1555.5C 1003.01,1535.36 991.343,1517.36 976.5,1501.5C 1003.84,1501.67 1031.17,1501.5 1058.5,1501C 1059.25,1500.33 1059.59,1499.5 1059.5,1498.5 Z"/></g>
<g><path style="opacity:1" fill="#133a6e" d="M 1329.5,1500.5 C 1638.67,1501.5 1948,1501.83 2257.5,1501.5C 2252.61,1519.84 2246.94,1537.84 2240.5,1555.5C 1911.33,1555.83 1582.33,1555.5 1253.5,1554.5C 1278.55,1536.12 1303.88,1518.12 1329.5,1500.5 Z"/></g>
<g><path style="opacity:1" fill="#143e71" d="M 1253.5,1554.5 C 1582.33,1555.5 1911.33,1555.83 2240.5,1555.5C 2238.73,1562.14 2236.4,1568.47 2233.5,1574.5C 1898.5,1573.83 1563.5,1573.17 1228.5,1572.5C 1236.62,1566.27 1244.95,1560.27 1253.5,1554.5 Z"/></g>
<g><path style="opacity:1" fill="#144073" d="M 146.5,1519.5 C 233.919,1555.31 321.252,1591.31 408.5,1627.5C 334.669,1628.5 260.669,1628.83 186.5,1628.5C 171.217,1592.99 157.884,1556.66 146.5,1519.5 Z"/></g>
<g><path style="opacity:1" fill="#144073" d="M 1011.5,1555.5 C 1036.17,1555.5 1060.83,1555.5 1085.5,1555.5C 1093.41,1579.03 1097.07,1603.37 1096.5,1628.5C 1072.83,1628.5 1049.17,1628.5 1025.5,1628.5C 1026.32,1603.07 1021.65,1578.73 1011.5,1555.5 Z"/></g>
<g><path style="opacity:1" fill="#144074" d="M 1228.5,1572.5 C 1563.5,1573.17 1898.5,1573.83 2233.5,1574.5C 2227.57,1593 2220.57,1611 2212.5,1628.5C 1863.83,1628.5 1515.17,1628.5 1166.5,1628.5C 1166.33,1624.49 1166.5,1620.49 1167,1616.5C 1187.1,1601.23 1207.6,1586.56 1228.5,1572.5 Z"/></g>
<g><path style="opacity:1" fill="#144377" d="M 1166.5,1628.5 C 1515.17,1628.5 1863.83,1628.5 2212.5,1628.5C 2211.01,1633.47 2209.01,1638.13 2206.5,1642.5C 1859.74,1641.83 1513.07,1641.17 1166.5,1640.5C 1166.5,1636.5 1166.5,1632.5 1166.5,1628.5 Z"/></g>
<g><path style="opacity:1" fill="#144679" d="M 408.5,1627.5 C 459.683,1648.4 510.85,1669.4 562,1690.5C 564.379,1693.32 565.545,1696.65 565.5,1700.5C 451.101,1702.17 336.435,1703.17 221.5,1703.5C 208.469,1679.11 196.802,1654.11 186.5,1628.5C 260.669,1628.83 334.669,1628.5 408.5,1627.5 Z"/></g>
<g><path style="opacity:1" fill="#15477a" d="M 1025.5,1628.5 C 1049.17,1628.5 1072.83,1628.5 1096.5,1628.5C 1095.64,1658.82 1089.31,1687.82 1077.5,1715.5C 1051.33,1715.83 1025.33,1715.5 999.5,1714.5C 1015.21,1688.02 1023.88,1659.36 1025.5,1628.5 Z"/></g>
<g><path style="opacity:1" fill="#14467a" d="M 1166.5,1640.5 C 1513.07,1641.17 1859.74,1641.83 2206.5,1642.5C 2197.55,1663.72 2187.55,1684.39 2176.5,1704.5C 1836.83,1702.5 1496.83,1701.83 1156.5,1702.5C 1160.87,1681.89 1164.2,1661.22 1166.5,1640.5 Z"/></g>
<g><path style="opacity:1" fill="#144a7d" d="M 565.5,1700.5 C 567.279,1705.28 568.613,1710.28 569.5,1715.5C 455.5,1715.5 341.5,1715.5 227.5,1715.5C 225.5,1711.5 223.5,1707.5 221.5,1703.5C 336.435,1703.17 451.101,1702.17 565.5,1700.5 Z"/></g>
<g><path style="opacity:1" fill="#144a7d" d="M 1156.5,1702.5 C 1496.83,1701.83 1836.83,1702.5 2176.5,1704.5C 2175.1,1708.29 2173.44,1711.96 2171.5,1715.5C 1832.17,1715.5 1492.83,1715.5 1153.5,1715.5C 1153.5,1714.5 1153.5,1713.5 1153.5,1712.5C 1153.88,1708.96 1154.88,1705.62 1156.5,1702.5 Z"/></g>
<g><path style="opacity:1" fill="#144d80" d="M 1153.5,1712.5 C 1153.5,1713.5 1153.5,1714.5 1153.5,1715.5C 1492.83,1715.5 1832.17,1715.5 2171.5,1715.5C 2158,1739.83 2144,1763.83 2129.5,1787.5C 1793.24,1786.5 1456.9,1786.17 1120.5,1786.5C 1134.24,1763.03 1145.24,1738.36 1153.5,1712.5 Z"/></g>
<g><path style="opacity:1" fill="#144d80" d="M 227.5,1715.5 C 341.5,1715.5 455.5,1715.5 569.5,1715.5C 577.648,1739.93 588.315,1763.26 601.5,1785.5C 491.334,1786.33 381.001,1786.83 270.5,1787C 271.738,1787.69 271.738,1788.19 270.5,1788.5C 255.425,1764.7 241.092,1740.36 227.5,1715.5 Z"/></g>
<g><path style="opacity:1" fill="#154e81" d="M 999.5,1714.5 C 1025.33,1715.5 1051.33,1715.83 1077.5,1715.5C 1066.95,1742.36 1051.61,1766.03 1031.5,1786.5C 991.663,1786.83 951.996,1786.5 912.5,1785.5C 949.511,1771.51 978.511,1747.85 999.5,1714.5 Z"/></g>
<g><path style="opacity:1" fill="#145184" d="M 601.5,1785.5 C 604.414,1789.66 607.081,1793.99 609.5,1798.5C 498.833,1798.5 388.167,1798.5 277.5,1798.5C 274.687,1795.55 272.354,1792.22 270.5,1788.5C 271.738,1788.19 271.738,1787.69 270.5,1787C 381.001,1786.83 491.334,1786.33 601.5,1785.5 Z"/></g>
<g><path style="opacity:1" fill="#165183" d="M 912.5,1785.5 C 951.996,1786.5 991.663,1786.83 1031.5,1786.5C 1027.83,1790.83 1023.83,1794.83 1019.5,1798.5C 913.833,1798.5 808.167,1798.5 702.5,1798.5C 680.058,1777.92 662.558,1753.92 650,1726.5C 696.282,1746.39 742.782,1765.89 789.5,1785C 830.494,1800.16 871.494,1800.33 912.5,1785.5 Z"/></g>
<g><path style="opacity:1" fill="#145184" d="M 1120.5,1786.5 C 1456.9,1786.17 1793.24,1786.5 2129.5,1787.5C 2126.83,1791.5 2124.17,1795.5 2121.5,1799.5C 1785.4,1798.83 1449.4,1798.17 1113.5,1797.5C 1115.45,1793.56 1117.78,1789.89 1120.5,1786.5 Z"/></g>
<g><path style="opacity:1" fill="#145487" d="M 1113.5,1797.5 C 1449.4,1798.17 1785.4,1798.83 2121.5,1799.5C 2113.22,1812.29 2104.72,1824.95 2096,1837.5C 2090.96,1844.93 2085.46,1851.93 2079.5,1858.5C 1739.17,1858.5 1398.83,1858.5 1058.5,1858.5C 1078.93,1839.91 1097.26,1819.57 1113.5,1797.5 Z"/></g>
<g><path style="opacity:1" fill="#145487" d="M 277.5,1798.5 C 388.167,1798.5 498.833,1798.5 609.5,1798.5C 625.343,1819.68 643.01,1839.35 662.5,1857.5C 548.33,1857.83 434.33,1858.83 320.5,1860.5C 305.183,1840.54 290.85,1819.87 277.5,1798.5 Z"/></g>
<g><path style="opacity:1" fill="#155486" d="M 702.5,1798.5 C 808.167,1798.5 913.833,1798.5 1019.5,1798.5C 960.655,1850.38 892.322,1869.55 814.5,1856C 771.639,1847.07 734.306,1827.91 702.5,1798.5 Z"/></g>
<g><path style="opacity:1" fill="#14578a" d="M 662.5,1857.5 C 667.052,1860.6 671.386,1863.94 675.5,1867.5C 675.389,1868.12 675.056,1868.62 674.5,1869C 559.162,1868.83 444.162,1869.67 329.5,1871.5C 326.152,1868.15 323.152,1864.48 320.5,1860.5C 434.33,1858.83 548.33,1857.83 662.5,1857.5 Z"/></g>
<g><path style="opacity:1" fill="#14578a" d="M 1058.5,1858.5 C 1398.83,1858.5 1739.17,1858.5 2079.5,1858.5C 2077.56,1862.71 2074.9,1866.37 2071.5,1869.5C 1729.33,1869.83 1387.33,1869.5 1045.5,1868.5C 1049.28,1864.44 1053.62,1861.11 1058.5,1858.5 Z"/></g>
<g><path style="opacity:1" fill="#135a8d" d="M 675.5,1867.5 C 720.746,1901.71 771.746,1922.04 828.5,1928.5C 678.334,1929.5 528.001,1929.83 377.5,1929.5C 367.865,1919.03 358.365,1908.36 349,1897.5C 342.259,1888.94 335.759,1880.27 329.5,1871.5C 444.162,1869.67 559.162,1868.83 674.5,1869C 675.056,1868.62 675.389,1868.12 675.5,1867.5 Z"/></g>
<g><path style="opacity:1" fill="#135a8d" d="M 1045.5,1868.5 C 1387.33,1869.5 1729.33,1869.83 2071.5,1869.5C 2055.6,1890.74 2038.6,1911.07 2020.5,1930.5C 1644.83,1929.83 1269.17,1929.17 893.5,1928.5C 949.583,1921.78 1000.25,1901.78 1045.5,1868.5 Z"/></g>
<g><path style="opacity:1" fill="#135d90" d="M 828.5,1928.5 C 850.151,1931.08 871.817,1931.08 893.5,1928.5C 1269.17,1929.17 1644.83,1929.83 2020.5,1930.5C 2017.9,1934.77 2014.57,1938.44 2010.5,1941.5C 1469.83,1941.5 929.167,1941.5 388.5,1941.5C 384.124,1938.13 380.458,1934.13 377.5,1929.5C 528.001,1929.83 678.334,1929.5 828.5,1928.5 Z"/></g>
<g><path style="opacity:1" fill="#135f92" d="M 388.5,1941.5 C 929.167,1941.5 1469.83,1941.5 2010.5,1941.5C 1992.22,1962.78 1972.55,1982.78 1951.5,2001.5C 1449.9,2000.5 948.236,2000.17 446.5,2000.5C 425.752,1982.09 406.419,1962.42 388.5,1941.5 Z"/></g>
<g><path style="opacity:1" fill="#136295" d="M 446.5,2000.5 C 948.236,2000.17 1449.9,2000.5 1951.5,2001.5C 1948.13,2005.88 1944.13,2009.54 1939.5,2012.5C 1446.17,2012.5 952.833,2012.5 459.5,2012.5C 454.54,2009.21 450.207,2005.21 446.5,2000.5 Z"/></g>
<g><path style="opacity:1" fill="#136699" d="M 459.5,2012.5 C 952.833,2012.5 1446.17,2012.5 1939.5,2012.5C 1930.29,2021.78 1920.62,2030.62 1910.5,2039C 1899.56,2048.45 1888.23,2057.29 1876.5,2065.5C 1876.57,2065.06 1876.4,2064.73 1876,2064.5C 1425.07,2065.17 974.236,2065.83 523.5,2066.5C 501.262,2049.6 479.929,2031.6 459.5,2012.5 Z"/></g>
<g><path style="opacity:1" fill="#13699c" d="M 1876.5,2065.5 C 1873.48,2068.52 1870.15,2071.18 1866.5,2073.5C 1421.53,2073.5 976.862,2073.5 532.5,2073.5C 529.19,2071.52 526.19,2069.18 523.5,2066.5C 974.236,2065.83 1425.07,2065.17 1876,2064.5C 1876.4,2064.73 1876.57,2065.06 1876.5,2065.5 Z"/></g>
<g><path style="opacity:1" fill="#136d9f" d="M 1866.5,2073.5 C 1846.67,2089.32 1826.01,2103.99 1804.5,2117.5C 1603.17,2116.83 1401.67,2116.5 1200,2116.5C 998.166,2116.5 796.666,2117.17 595.5,2118.5C 584.328,2111.41 573.328,2104.08 562.5,2096.5C 552.14,2089.32 542.14,2081.65 532.5,2073.5C 976.862,2073.5 1421.53,2073.5 1866.5,2073.5 Z"/></g>
<g><path style="opacity:0.031" fill="#26577c" d="M 562.5,2096.5 C 561.833,2097.17 561.833,2097.17 562.5,2096.5 Z"/></g>
<g><path style="opacity:1" fill="#1373a5" d="M 1804.5,2117.5 C 1777.16,2136.51 1748.5,2153.51 1718.5,2168.5C 1372.67,2167.33 1026.67,2167.17 680.5,2168C 681.756,2168.42 682.423,2169.25 682.5,2170.5C 653.131,2154.61 624.131,2137.28 595.5,2118.5C 796.666,2117.17 998.166,2116.5 1200,2116.5C 1401.67,2116.5 1603.17,2116.83 1804.5,2117.5 Z"/></g>
<g><path style="opacity:1" fill="#1378aa" d="M 1718.5,2168.5 C 1690,2184.42 1660.67,2198.75 1630.5,2211.5C 1486.83,2210.17 1342.83,2209.5 1198.5,2209.5C 1054.33,2209.5 910.333,2209.83 766.5,2210.5C 737.661,2198.07 709.661,2184.74 682.5,2170.5C 682.423,2169.25 681.756,2168.42 680.5,2168C 1026.67,2167.17 1372.67,2167.33 1718.5,2168.5 Z"/></g>
<g><path style="opacity:1" fill="#137cad" d="M 766.5,2210.5 C 910.333,2209.83 1054.33,2209.5 1198.5,2209.5C 1342.83,2209.5 1486.83,2210.17 1630.5,2211.5C 1620.83,2215.5 1611.17,2219.5 1601.5,2223.5C 1333.83,2222.17 1066.17,2222.17 798.5,2223.5C 787.668,2219.56 777.001,2215.22 766.5,2210.5 Z"/></g>
<g><path style="opacity:1" fill="#1380b2" d="M 798.5,2223.5 C 1066.17,2222.17 1333.83,2222.17 1601.5,2223.5C 1536.64,2248.72 1469.97,2267.72 1401.5,2280.5C 1401.92,2279.78 1402.58,2279.28 1403.5,2279C 1267.5,2278.33 1131.5,2278.33 995.5,2279C 997.058,2279.21 998.391,2279.71 999.5,2280.5C 930.545,2268.18 863.545,2249.18 798.5,2223.5 Z"/></g>
<g><path style="opacity:1" fill="#1385b6" d="M 1401.5,2280.5 C 1286.34,2301.07 1171.01,2304.07 1055.5,2289.5C 1036.98,2287.28 1018.31,2284.28 999.5,2280.5C 998.391,2279.71 997.058,2279.21 995.5,2279C 1131.5,2278.33 1267.5,2278.33 1403.5,2279C 1402.58,2279.28 1401.92,2279.78 1401.5,2280.5 Z"/></g>
</svg>
