<?xml version="1.0" encoding="UTF-8"?>
<!DOCTYPE svg PUBLIC "-//W3C//DTD SVG 1.1//EN" "http://www.w3.org/Graphics/SVG/1.1/DTD/svg11.dtd">
<svg xmlns="http://www.w3.org/2000/svg" version="1.1" width="6000px" height="6000px" style="shape-rendering:geometricPrecision; text-rendering:geometricPrecision; image-rendering:optimizeQuality; fill-rule:evenodd; clip-rule:evenodd" xmlns:xlink="http://www.w3.org/1999/xlink">
<g><path style="opacity:0.997" fill="#050d16" d="M 2035.5,2556.5 C 1757.38,2512.15 1479.38,2467.15 1201.5,2421.5C 1286.73,2371.68 1378.73,2342.51 1477.5,2334C 1672.43,2320.2 1842.43,2377.86 1987.5,2507C 2004.07,2523.06 2020.07,2539.56 2035.5,2556.5 Z"/></g>
<g><path style="opacity:0.999" fill="#05101a" d="M 1201.5,2421.5 C 1479.38,2467.15 1757.38,2512.15 2035.5,2556.5C 2065.41,2589.63 2091.41,2625.63 2113.5,2664.5C 2060.55,2655.84 2007.55,2647.51 1954.5,2639.5C 1882.79,2566.57 1796.79,2541.4 1696.5,2564C 1675.91,2569.63 1656.25,2577.46 1637.5,2587.5C 1455.64,2558.52 1273.98,2529.19 1092.5,2499.5C 1126.04,2469.63 1162.38,2443.63 1201.5,2421.5 Z"/></g>
<g><path style="opacity:0.999" fill="#05131e" d="M 1092.5,2499.5 C 1273.98,2529.19 1455.64,2558.52 1637.5,2587.5C 1631.54,2591.15 1625.54,2594.82 1619.5,2598.5C 1439.45,2569.71 1259.45,2540.71 1079.5,2511.5C 1083.81,2507.53 1088.14,2503.53 1092.5,2499.5 Z"/></g>
<g><path style="opacity:0.999" fill="#051522" d="M 1079.5,2511.5 C 1259.45,2540.71 1439.45,2569.71 1619.5,2598.5C 1601.82,2610.85 1585.49,2624.85 1570.5,2640.5C 1392.77,2612.16 1215.1,2583.49 1037.5,2554.5C 1050.8,2539.53 1064.8,2525.2 1079.5,2511.5 Z"/></g>
<g><path style="opacity:0.999" fill="#fefefe" d="M 1954.5,2639.5 C 1973.33,2660.47 1988.66,2683.8 2000.5,2709.5C 2008.63,2726.79 2014.63,2744.79 2018.5,2763.5C 2021.32,2777.37 2023.32,2791.37 2024.5,2805.5C 2024.65,2817.85 2024.32,2830.18 2023.5,2842.5C 2022.35,2855.17 2020.35,2867.84 2017.5,2880.5C 2014.07,2892.13 2010.4,2903.8 2006.5,2915.5C 2002.17,2925.84 1997.5,2936.18 1992.5,2946.5C 1986.01,2957.47 1979.01,2968.14 1971.5,2978.5C 1964.24,2987.77 1956.57,2996.77 1948.5,3005.5C 1938.77,3014.57 1928.77,3023.24 1918.5,3031.5C 1905.67,3041.09 1892,3049.42 1877.5,3056.5C 1853.26,3068.91 1827.59,3076.91 1800.5,3080.5C 1785.94,3082.66 1771.27,3083.82 1756.5,3084C 1748.04,3089.31 1740.04,3095.14 1732.5,3101.5C 1720.87,3109.14 1709.53,3117.14 1698.5,3125.5C 1686.22,3133.78 1674.22,3142.45 1662.5,3151.5C 1647.5,3162.17 1632.5,3172.83 1617.5,3183.5C 1610.28,3188.6 1603.28,3193.94 1596.5,3199.5C 1589.91,3203.42 1583.58,3207.75 1577.5,3212.5C 1564.13,3222.18 1550.8,3231.85 1537.5,3241.5C 1532.21,3244.95 1527.05,3248.61 1522,3252.5C 1521.5,3260.16 1521.33,3267.83 1521.5,3275.5C 1520.83,3282.17 1520.17,3288.83 1519.5,3295.5C 1517.18,3304.82 1514.84,3314.15 1512.5,3323.5C 1506.5,3340.17 1498.83,3356.17 1489.5,3371.5C 1477.93,3387.74 1464.59,3402.41 1449.5,3415.5C 1390.82,3460.72 1326.15,3471.22 1255.5,3447C 1215.9,3430.9 1184.23,3405.07 1160.5,3369.5C 1150.29,3352.41 1142.29,3334.41 1136.5,3315.5C 1135.95,3310.29 1134.61,3305.29 1132.5,3300.5C 1054.8,3267.94 977.133,3235.61 899.5,3203.5C 873.323,3122.42 863.323,3039.42 869.5,2954.5C 881.26,2958.55 892.927,2962.88 904.5,2967.5C 943.939,2984.54 983.606,3001.21 1023.5,3017.5C 1086.89,3044.53 1150.55,3071.19 1214.5,3097.5C 1231.63,3087.1 1249.63,3078.6 1268.5,3072C 1285.7,3067.43 1303.03,3064.59 1320.5,3063.5C 1326.21,3063.83 1331.87,3063.5 1337.5,3062.5C 1342.95,3055.07 1347.95,3047.4 1352.5,3039.5C 1359.61,3030.72 1365.94,3021.39 1371.5,3011.5C 1379.32,3001.19 1386.66,2990.52 1393.5,2979.5C 1400.61,2970.72 1406.94,2961.39 1412.5,2951.5C 1419.9,2942.36 1426.57,2932.7 1432.5,2922.5C 1439.19,2913.8 1445.52,2904.8 1451.5,2895.5C 1459.09,2884.64 1466.42,2873.64 1473.5,2862.5C 1480.98,2852.89 1487.98,2842.89 1494.5,2832.5C 1496.66,2829.53 1498.82,2826.53 1501,2823.5C 1501.5,2819.85 1501.67,2816.18 1501.5,2812.5C 1501.5,2807.83 1501.5,2803.17 1501.5,2798.5C 1502.79,2786.83 1504.79,2775.17 1507.5,2763.5C 1510.78,2750.01 1514.44,2736.68 1518.5,2723.5C 1524.24,2710.69 1530.57,2698.03 1537.5,2685.5C 1547.28,2669.61 1558.28,2654.61 1570.5,2640.5C 1585.49,2624.85 1601.82,2610.85 1619.5,2598.5C 1625.54,2594.82 1631.54,2591.15 1637.5,2587.5C 1656.25,2577.46 1675.91,2569.63 1696.5,2564C 1796.79,2541.4 1882.79,2566.57 1954.5,2639.5 Z M 1594.5,2779.5 C 1594.45,2783.08 1593.78,2786.41 1592.5,2789.5C 1592.32,2785.88 1592.99,2782.54 1594.5,2779.5 Z M 1592.5,2789.5 C 1589.83,2809.5 1589.83,2829.5 1592.5,2849.5C 1590.2,2839.78 1589.2,2829.78 1589.5,2819.5C 1589.2,2809.22 1590.2,2799.22 1592.5,2789.5 Z M 1592.5,2849.5 C 1593.78,2852.59 1594.45,2855.92 1594.5,2859.5C 1592.99,2856.46 1592.32,2853.12 1592.5,2849.5 Z M 1427.5,3240.5 C 1429.02,3246.93 1429.69,3253.6 1429.5,3260.5C 1429.69,3267.4 1429.02,3274.07 1427.5,3280.5C 1428.83,3267.17 1428.83,3253.83 1427.5,3240.5 Z M 1427.5,3280.5 C 1427.71,3283.5 1427.04,3286.16 1425.5,3288.5C 1425.57,3285.57 1426.23,3282.91 1427.5,3280.5 Z"/></g>
<g><path style="opacity:0.999" fill="#051a28" d="M 1037.5,2554.5 C 1215.1,2583.49 1392.77,2612.16 1570.5,2640.5C 1558.28,2654.61 1547.28,2669.61 1537.5,2685.5C 1358.41,2657.37 1179.41,2628.71 1000.5,2599.5C 1011.73,2583.6 1024.06,2568.6 1037.5,2554.5 Z"/></g>
<g><path style="opacity:0.999" fill="#041e2e" d="M 1000.5,2599.5 C 1179.41,2628.71 1358.41,2657.37 1537.5,2685.5C 1530.57,2698.03 1524.24,2710.69 1518.5,2723.5C 1337.09,2694.93 1155.76,2665.93 974.5,2636.5C 982.441,2623.6 991.108,2611.27 1000.5,2599.5 Z"/></g>
<g><path style="opacity:0.999" fill="#042334" d="M 974.5,2636.5 C 1155.76,2665.93 1337.09,2694.93 1518.5,2723.5C 1514.44,2736.68 1510.78,2750.01 1507.5,2763.5C 1322.56,2733.18 1137.56,2703.18 952.5,2673.5C 959.078,2660.67 966.411,2648.34 974.5,2636.5 Z"/></g>
<g><path style="opacity:0.997" fill="#010101" d="M 1650.5,2952.5 C 1644.5,2947.17 1638.83,2941.5 1633.5,2935.5C 1633.5,2934.83 1633.17,2934.5 1632.5,2934.5C 1632.5,2933.83 1632.17,2933.5 1631.5,2933.5C 1630.49,2932.13 1629.49,2930.8 1628.5,2929.5C 1628.5,2928.83 1628.17,2928.5 1627.5,2928.5C 1626.49,2927.13 1625.49,2925.8 1624.5,2924.5C 1624.5,2923.83 1624.17,2923.5 1623.5,2923.5C 1623.67,2922.51 1623.34,2921.84 1622.5,2921.5C 1622.5,2920.83 1622.17,2920.5 1621.5,2920.5C 1621.07,2919.29 1620.4,2918.29 1619.5,2917.5C 1619.07,2916.29 1618.4,2915.29 1617.5,2914.5C 1617.67,2913.51 1617.34,2912.84 1616.5,2912.5C 1616.5,2911.83 1616.17,2911.5 1615.5,2911.5C 1615.67,2910.51 1615.34,2909.84 1614.5,2909.5C 1614.67,2908.51 1614.34,2907.84 1613.5,2907.5C 1613.5,2906.83 1613.17,2906.5 1612.5,2906.5C 1612.67,2905.51 1612.34,2904.84 1611.5,2904.5C 1611.67,2903.51 1611.34,2902.84 1610.5,2902.5C 1610.67,2901.51 1610.34,2900.84 1609.5,2900.5C 1609.67,2899.51 1609.34,2898.84 1608.5,2898.5C 1608.67,2897.51 1608.34,2896.84 1607.5,2896.5C 1607.67,2895.51 1607.34,2894.84 1606.5,2894.5C 1606.67,2893.51 1606.34,2892.84 1605.5,2892.5C 1605.74,2891.21 1605.4,2890.21 1604.5,2889.5C 1604.67,2888.51 1604.34,2887.84 1603.5,2887.5C 1603.67,2886.51 1603.34,2885.84 1602.5,2885.5C 1602.74,2884.21 1602.4,2883.21 1601.5,2882.5C 1601.74,2881.21 1601.4,2880.21 1600.5,2879.5C 1600.67,2878.51 1600.34,2877.84 1599.5,2877.5C 1599.74,2876.21 1599.4,2875.21 1598.5,2874.5C 1598.77,2872.9 1598.43,2871.57 1597.5,2870.5C 1597.74,2869.21 1597.4,2868.21 1596.5,2867.5C 1596.77,2865.9 1596.43,2864.57 1595.5,2863.5C 1595.77,2861.9 1595.43,2860.57 1594.5,2859.5C 1594.45,2855.92 1593.78,2852.59 1592.5,2849.5C 1589.83,2829.5 1589.83,2809.5 1592.5,2789.5C 1593.78,2786.41 1594.45,2783.08 1594.5,2779.5C 1595.43,2778.43 1595.77,2777.1 1595.5,2775.5C 1596.43,2774.43 1596.77,2773.1 1596.5,2771.5C 1597.4,2770.79 1597.74,2769.79 1597.5,2768.5C 1598.43,2767.43 1598.77,2766.1 1598.5,2764.5C 1599.4,2763.79 1599.74,2762.79 1599.5,2761.5C 1600.34,2761.16 1600.67,2760.49 1600.5,2759.5C 1601.4,2758.79 1601.74,2757.79 1601.5,2756.5C 1602.4,2755.79 1602.74,2754.79 1602.5,2753.5C 1603.34,2753.16 1603.67,2752.49 1603.5,2751.5C 1604.4,2750.79 1604.74,2749.79 1604.5,2748.5C 1605.34,2748.16 1605.67,2747.49 1605.5,2746.5C 1606.34,2746.16 1606.67,2745.49 1606.5,2744.5C 1607.34,2744.16 1607.67,2743.49 1607.5,2742.5C 1608.34,2742.16 1608.67,2741.49 1608.5,2740.5C 1609.34,2740.16 1609.67,2739.49 1609.5,2738.5C 1610.34,2738.16 1610.67,2737.49 1610.5,2736.5C 1611.34,2736.16 1611.67,2735.49 1611.5,2734.5C 1612.34,2734.16 1612.67,2733.49 1612.5,2732.5C 1613.17,2732.5 1613.5,2732.17 1613.5,2731.5C 1614.34,2731.16 1614.67,2730.49 1614.5,2729.5C 1615.34,2729.16 1615.67,2728.49 1615.5,2727.5C 1616.17,2727.5 1616.5,2727.17 1616.5,2726.5C 1617.34,2726.16 1617.67,2725.49 1617.5,2724.5C 1618.34,2724.16 1618.67,2723.49 1618.5,2722.5C 1619.17,2722.5 1619.5,2722.17 1619.5,2721.5C 1620.4,2720.71 1621.07,2719.71 1621.5,2718.5C 1622.4,2717.71 1623.07,2716.71 1623.5,2715.5C 1624.17,2715.5 1624.5,2715.17 1624.5,2714.5C 1625.4,2713.71 1626.07,2712.71 1626.5,2711.5C 1627.17,2711.5 1627.5,2711.17 1627.5,2710.5C 1628.17,2710.5 1628.5,2710.17 1628.5,2709.5C 1629.49,2708.2 1630.49,2706.87 1631.5,2705.5C 1632.17,2705.5 1632.5,2705.17 1632.5,2704.5C 1633.17,2704.5 1633.5,2704.17 1633.5,2703.5C 1639.17,2697.17 1645.17,2691.17 1651.5,2685.5C 1709.78,2639.56 1773.11,2631.39 1841.5,2661C 1903.85,2695.24 1936.52,2748.07 1939.5,2819.5C 1937.61,2878.45 1913.61,2925.95 1867.5,2962C 1813.58,2998.56 1756.25,3004.89 1695.5,2981C 1679.12,2973.49 1664.12,2963.99 1650.5,2952.5 Z"/></g>
<g><path style="opacity:0.998" fill="#051521" d="M 1954.5,2639.5 C 2007.55,2647.51 2060.55,2655.84 2113.5,2664.5C 2126.73,2686.96 2138.4,2710.29 2148.5,2734.5C 2098.9,2727.01 2049.57,2718.68 2000.5,2709.5C 1988.66,2683.8 1973.33,2660.47 1954.5,2639.5 Z"/></g>
<g><path style="opacity:0.999" fill="#04273b" d="M 952.5,2673.5 C 1137.56,2703.18 1322.56,2733.18 1507.5,2763.5C 1504.79,2775.17 1502.79,2786.83 1501.5,2798.5C 1312.64,2768.24 1123.97,2737.58 935.5,2706.5C 940.405,2695.02 946.071,2684.02 952.5,2673.5 Z"/></g>
<g><path style="opacity:1" fill="#fefefe" d="M 1757.5,2686.5 C 1811.41,2685.97 1852.25,2708.64 1880,2754.5C 1906.34,2808.05 1901.34,2858.39 1865,2905.5C 1827.22,2945.8 1781.39,2959.3 1727.5,2946C 1694.31,2935.14 1668.81,2914.64 1651,2884.5C 1629.91,2842.43 1629.24,2800.1 1649,2757.5C 1673.13,2715.36 1709.29,2691.69 1757.5,2686.5 Z"/></g>
<g><path style="opacity:0.994" fill="#363434" d="M 2667.5,2704.5 C 2721.15,2701.24 2772.82,2709.74 2822.5,2730C 2836.98,2736.4 2850.64,2744.07 2863.5,2753C 2864.9,2754.06 2865.9,2755.39 2866.5,2757C 2851.39,2784.73 2835.89,2812.23 2820,2839.5C 2774.18,2808.23 2723.68,2795.39 2668.5,2801C 2654.8,2803.36 2642.46,2808.69 2631.5,2817C 2614.75,2834.44 2611.25,2854.28 2621,2876.5C 2627.1,2884.81 2634.6,2891.65 2643.5,2897C 2649.96,2900.71 2656.62,2904.04 2663.5,2907C 2701.91,2920.8 2740.24,2934.8 2778.5,2949C 2872.24,2986.68 2902.41,3053.51 2869,3149.5C 2850.19,3189.02 2820.36,3216.85 2779.5,3233C 2735.1,3248.79 2689.44,3254.12 2642.5,3249C 2593.08,3244.65 2546.41,3230.98 2502.5,3208C 2498.79,3206.15 2495.45,3203.82 2492.5,3201C 2503.51,3170.12 2515.18,3139.62 2527.5,3109.5C 2583.63,3139.69 2643.3,3151.19 2706.5,3144C 2725.86,3141.4 2742.03,3132.9 2755,3118.5C 2769.77,3095.18 2767.27,3074.01 2747.5,3055C 2738.82,3048.66 2729.48,3043.32 2719.5,3039C 2687.39,3027.08 2655.06,3015.74 2622.5,3005C 2593.55,2994.7 2567.22,2980.03 2543.5,2961C 2514.25,2933.65 2499.92,2899.82 2500.5,2859.5C 2501.45,2795.08 2531.12,2749.58 2589.5,2723C 2614.67,2712.8 2640.67,2706.64 2667.5,2704.5 Z"/></g>
<g><path style="opacity:0.999" fill="#042a3f" d="M 935.5,2706.5 C 1123.97,2737.58 1312.64,2768.24 1501.5,2798.5C 1501.5,2803.17 1501.5,2807.83 1501.5,2812.5C 1310.55,2781.41 1119.55,2750.41 928.5,2719.5C 930.595,2714.97 932.928,2710.64 935.5,2706.5 Z"/></g>
<g><path style="opacity:0.995" fill="#363434" d="M 2961.5,2713.5 C 3103.83,2713.5 3246.17,2713.5 3388.5,2713.5C 3388.5,2745.17 3388.5,2776.83 3388.5,2808.5C 3335.83,2808.5 3283.17,2808.5 3230.5,2808.5C 3230.5,2952.83 3230.5,3097.17 3230.5,3241.5C 3193.5,3241.5 3156.5,3241.5 3119.5,3241.5C 3119.5,3097.17 3119.5,2952.83 3119.5,2808.5C 3066.83,2808.5 3014.17,2808.5 2961.5,2808.5C 2961.5,2776.83 2961.5,2745.17 2961.5,2713.5 Z"/></g>
<g><path style="opacity:0.997" fill="#363434" d="M 3509.5,2713.5 C 3627.17,2713.5 3744.83,2713.5 3862.5,2713.5C 3862.5,2745.17 3862.5,2776.83 3862.5,2808.5C 3781.5,2808.5 3700.5,2808.5 3619.5,2808.5C 3619.5,2847.83 3619.5,2887.17 3619.5,2926.5C 3689.17,2926.5 3758.83,2926.5 3828.5,2926.5C 3828.5,2958.5 3828.5,2990.5 3828.5,3022.5C 3758.83,3022.5 3689.17,3022.5 3619.5,3022.5C 3619.5,3063.17 3619.5,3103.83 3619.5,3144.5C 3700.5,3144.5 3781.5,3144.5 3862.5,3144.5C 3862.5,3176.83 3862.5,3209.17 3862.5,3241.5C 3744.83,3241.5 3627.17,3241.5 3509.5,3241.5C 3509.5,3065.5 3509.5,2889.5 3509.5,2713.5 Z"/></g>
<g><path style="opacity:0.995" fill="#363434" d="M 4152.5,2713.5 C 4189.74,2713.17 4226.91,2713.5 4264,2714.5C 4331.04,2890.07 4398.2,3065.57 4465.5,3241C 4425.5,3241.67 4385.5,3241.67 4345.5,3241C 4333.54,3207.63 4321.88,3174.13 4310.5,3140.5C 4242.5,3139.17 4174.5,3139.17 4106.5,3140.5C 4094.97,3173.76 4083.64,3207.09 4072.5,3240.5C 4033.83,3241.83 3995.17,3241.83 3956.5,3240.5C 4021.84,3064.8 4087.18,2889.14 4152.5,2713.5 Z M 4206.5,2842.5 C 4208.45,2845.14 4209.95,2848.14 4211,2851.5C 4233.64,2917.76 4256.47,2983.92 4279.5,3050C 4231.83,3050.67 4184.17,3050.67 4136.5,3050C 4160.53,2981.07 4183.86,2911.91 4206.5,2842.5 Z"/></g>
<g><path style="opacity:0.995" fill="#363434" d="M 4575.5,2713.5 C 4610.84,2713.17 4646.17,2713.5 4681.5,2714.5C 4739.94,2840.38 4798.11,2966.38 4856,3092.5C 4912.44,2966.62 4968.61,2840.62 5024.5,2714.5C 5060.16,2713.5 5095.83,2713.17 5131.5,2713.5C 5131.5,2889.5 5131.5,3065.5 5131.5,3241.5C 5096.17,3241.5 5060.83,3241.5 5025.5,3241.5C 5025.67,3134.83 5025.5,3028.17 5025,2921.5C 4978,3022.83 4931,3124.17 4884,3225.5C 4862.9,3226.83 4841.73,3226.83 4820.5,3225.5C 4774.33,3125.17 4728.17,3024.83 4682,2924.5C 4681.5,3030.17 4681.33,3135.83 4681.5,3241.5C 4646.17,3241.5 4610.83,3241.5 4575.5,3241.5C 4575.5,3065.5 4575.5,2889.5 4575.5,2713.5 Z"/></g>
<g><path style="opacity:0.997" fill="#051a28" d="M 2000.5,2709.5 C 2049.57,2718.68 2098.9,2727.01 2148.5,2734.5C 2156.66,2751.95 2163.66,2769.95 2169.5,2788.5C 2119.12,2780.45 2068.79,2772.11 2018.5,2763.5C 2014.63,2744.79 2008.63,2726.79 2000.5,2709.5 Z"/></g>
<g><path style="opacity:0.999" fill="#042c42" d="M 928.5,2719.5 C 1119.55,2750.41 1310.55,2781.41 1501.5,2812.5C 1501.67,2816.18 1501.5,2819.85 1501,2823.5C 1498.82,2826.53 1496.66,2829.53 1494.5,2832.5C 1302.78,2802.21 1111.11,2771.54 919.5,2740.5C 922.304,2733.42 925.304,2726.42 928.5,2719.5 Z"/></g>
<g><path style="opacity:0.999" fill="#033047" d="M 919.5,2740.5 C 1111.11,2771.54 1302.78,2802.21 1494.5,2832.5C 1487.98,2842.89 1480.98,2852.89 1473.5,2862.5C 1284.79,2832.11 1096.12,2801.45 907.5,2770.5C 911.304,2760.42 915.304,2750.42 919.5,2740.5 Z"/></g>
<g><path style="opacity:0.998" fill="#041e2e" d="M 2018.5,2763.5 C 2068.79,2772.11 2119.12,2780.45 2169.5,2788.5C 2174.3,2802.7 2178.63,2817.03 2182.5,2831.5C 2129.77,2823.15 2077.1,2814.48 2024.5,2805.5C 2023.32,2791.37 2021.32,2777.37 2018.5,2763.5 Z"/></g>
<g><path style="opacity:0.999" fill="#03344e" d="M 907.5,2770.5 C 1096.12,2801.45 1284.79,2832.11 1473.5,2862.5C 1466.42,2873.64 1459.09,2884.64 1451.5,2895.5C 1266.63,2864.95 1081.63,2834.95 896.5,2805.5C 899.565,2793.64 903.231,2781.97 907.5,2770.5 Z"/></g>
<g><path style="opacity:0.998" fill="#042334" d="M 2024.5,2805.5 C 2077.1,2814.48 2129.77,2823.15 2182.5,2831.5C 2186.01,2845.39 2189.01,2859.39 2191.5,2873.5C 2135.5,2864.83 2079.5,2856.17 2023.5,2847.5C 2023.5,2845.83 2023.5,2844.17 2023.5,2842.5C 2024.32,2830.18 2024.65,2817.85 2024.5,2805.5 Z"/></g>
<g><path style="opacity:0.999" fill="#033954" d="M 896.5,2805.5 C 1081.63,2834.95 1266.63,2864.95 1451.5,2895.5C 1445.52,2904.8 1439.19,2913.8 1432.5,2922.5C 1250.97,2893.62 1069.63,2864.28 888.5,2834.5C 890.409,2824.52 893.076,2814.85 896.5,2805.5 Z"/></g>
<g><path style="opacity:0.999" fill="#033d5a" d="M 888.5,2834.5 C 1069.63,2864.28 1250.97,2893.62 1432.5,2922.5C 1426.57,2932.7 1419.9,2942.36 1412.5,2951.5C 1235.71,2922.31 1058.71,2893.65 881.5,2865.5C 882.959,2854.86 885.293,2844.52 888.5,2834.5 Z"/></g>
<g><path style="opacity:0.998" fill="#04273b" d="M 2023.5,2842.5 C 2023.5,2844.17 2023.5,2845.83 2023.5,2847.5C 2079.5,2856.17 2135.5,2864.83 2191.5,2873.5C 2194.14,2886.03 2196.14,2898.7 2197.5,2911.5C 2139.25,2901.79 2080.91,2892.29 2022.5,2883C 2020.26,2882.95 2018.59,2882.12 2017.5,2880.5C 2020.35,2867.84 2022.35,2855.17 2023.5,2842.5 Z"/></g>
<g><path style="opacity:0.999" fill="#024260" d="M 881.5,2865.5 C 1058.71,2893.65 1235.71,2922.31 1412.5,2951.5C 1406.94,2961.39 1400.61,2970.72 1393.5,2979.5C 1220.8,2952.02 1048.13,2924.35 875.5,2896.5C 876.763,2885.9 878.763,2875.57 881.5,2865.5 Z"/></g>
<g><path style="opacity:0.998" fill="#042c41" d="M 2017.5,2880.5 C 2018.59,2882.12 2020.26,2882.95 2022.5,2883C 2080.91,2892.29 2139.25,2901.79 2197.5,2911.5C 2199.36,2923.4 2200.69,2935.4 2201.5,2947.5C 2136.54,2936.57 2071.54,2925.91 2006.5,2915.5C 2010.4,2903.8 2014.07,2892.13 2017.5,2880.5 Z"/></g>
<g><path style="opacity:1" fill="#024667" d="M 875.5,2896.5 C 1048.13,2924.35 1220.8,2952.02 1393.5,2979.5C 1386.66,2990.52 1379.32,3001.19 1371.5,3011.5C 1204.84,2984.5 1038.17,2957.5 871.5,2930.5C 872.178,2919.07 873.512,2907.74 875.5,2896.5 Z"/></g>
<g><path style="opacity:0.999" fill="#043047" d="M 2006.5,2915.5 C 2071.54,2925.91 2136.54,2936.57 2201.5,2947.5C 2202.24,2958.49 2202.9,2969.49 2203.5,2980.5C 2133.18,2969.06 2062.85,2957.72 1992.5,2946.5C 1997.5,2936.18 2002.17,2925.84 2006.5,2915.5 Z"/></g>
<g><path style="opacity:1" fill="#024b6d" d="M 871.5,2930.5 C 1038.17,2957.5 1204.84,2984.5 1371.5,3011.5C 1365.94,3021.39 1359.61,3030.72 1352.5,3039.5C 1203.2,3015.28 1053.87,2991.28 904.5,2967.5C 892.927,2962.88 881.26,2958.55 869.5,2954.5C 869.413,2946.29 870.079,2938.29 871.5,2930.5 Z"/></g>
<g><path style="opacity:0.998" fill="#03354e" d="M 1992.5,2946.5 C 2062.85,2957.72 2133.18,2969.06 2203.5,2980.5C 2203.5,2992.5 2203.5,3004.5 2203.5,3016.5C 2125.93,3004.46 2048.6,2991.79 1971.5,2978.5C 1979.01,2968.14 1986.01,2957.47 1992.5,2946.5 Z"/></g>
<g><path style="opacity:1" fill="#024f73" d="M 904.5,2967.5 C 1053.87,2991.28 1203.2,3015.28 1352.5,3039.5C 1347.95,3047.4 1342.95,3055.07 1337.5,3062.5C 1331.87,3063.5 1326.21,3063.83 1320.5,3063.5C 1315.16,3063.67 1309.82,3063.5 1304.5,3063C 1210.79,3048.05 1117.12,3032.88 1023.5,3017.5C 983.606,3001.21 943.939,2984.54 904.5,2967.5 Z"/></g>
<g><path style="opacity:0.999" fill="#033954" d="M 1971.5,2978.5 C 2048.6,2991.79 2125.93,3004.46 2203.5,3016.5C 2203.11,3026.88 2202.45,3037.21 2201.5,3047.5C 2119.85,3034.34 2038.18,3021.17 1956.5,3008C 1953.48,3007.9 1950.81,3007.07 1948.5,3005.5C 1956.57,2996.77 1964.24,2987.77 1971.5,2978.5 Z"/></g>
<g><path style="opacity:0.999" fill="#033d5a" d="M 1948.5,3005.5 C 1950.81,3007.07 1953.48,3007.9 1956.5,3008C 2038.18,3021.17 2119.85,3034.34 2201.5,3047.5C 2201.21,3058.05 2200.21,3068.38 2198.5,3078.5C 2113.6,3064.35 2028.6,3050.51 1943.5,3037C 1934.99,3035.37 1926.66,3033.53 1918.5,3031.5C 1928.77,3023.24 1938.77,3014.57 1948.5,3005.5 Z"/></g>
<g><path style="opacity:1" fill="#06557a" d="M 1023.5,3017.5 C 1117.12,3032.88 1210.79,3048.05 1304.5,3063C 1309.82,3063.5 1315.16,3063.67 1320.5,3063.5C 1303.03,3064.59 1285.7,3067.43 1268.5,3072C 1249.63,3078.6 1231.63,3087.1 1214.5,3097.5C 1150.55,3071.19 1086.89,3044.53 1023.5,3017.5 Z"/></g>
<g><path style="opacity:0.999" fill="#034260" d="M 1918.5,3031.5 C 1926.66,3033.53 1934.99,3035.37 1943.5,3037C 2028.6,3050.51 2113.6,3064.35 2198.5,3078.5C 2197.73,3088.91 2196.39,3099.24 2194.5,3109.5C 2089.88,3092.29 1985.22,3075.29 1880.5,3058.5C 1878.97,3058.36 1877.97,3057.69 1877.5,3056.5C 1892,3049.42 1905.67,3041.09 1918.5,3031.5 Z"/></g>
<g><path style="opacity:0.999" fill="#024767" d="M 1877.5,3056.5 C 1877.97,3057.69 1878.97,3058.36 1880.5,3058.5C 1985.22,3075.29 2089.88,3092.29 2194.5,3109.5C 2192.91,3121.11 2190.58,3132.44 2187.5,3143.5C 2058.29,3123.02 1929.29,3102.02 1800.5,3080.5C 1827.59,3076.91 1853.26,3068.91 1877.5,3056.5 Z"/></g>
<g><path style="opacity:0.999" fill="#024b6d" d="M 1800.5,3080.5 C 1929.29,3102.02 2058.29,3123.02 2187.5,3143.5C 2185.79,3153.66 2183.46,3163.66 2180.5,3173.5C 2031.17,3149.5 1881.83,3125.5 1732.5,3101.5C 1740.04,3095.14 1748.04,3089.31 1756.5,3084C 1771.27,3083.82 1785.94,3082.66 1800.5,3080.5 Z"/></g>
<g><path style="opacity:0.999" fill="#024f73" d="M 1732.5,3101.5 C 1881.83,3125.5 2031.17,3149.5 2180.5,3173.5C 2178.1,3183.78 2175.1,3193.78 2171.5,3203.5C 2044.89,3182.77 1918.23,3162.27 1791.5,3142C 1760.32,3136.69 1729.32,3131.19 1698.5,3125.5C 1709.53,3117.14 1720.87,3109.14 1732.5,3101.5 Z"/></g>
<g><path style="opacity:0.995" fill="#010101" d="M 1231.5,3374.5 C 1226.5,3370.17 1221.83,3365.5 1217.5,3360.5C 1217.5,3359.83 1217.17,3359.5 1216.5,3359.5C 1216.5,3358.83 1216.17,3358.5 1215.5,3358.5C 1214.14,3356.81 1212.8,3355.14 1211.5,3353.5C 1211.5,3352.83 1211.17,3352.5 1210.5,3352.5C 1210.07,3351.29 1209.4,3350.29 1208.5,3349.5C 1208.5,3348.83 1208.17,3348.5 1207.5,3348.5C 1207.67,3347.51 1207.34,3346.84 1206.5,3346.5C 1206.5,3345.83 1206.17,3345.5 1205.5,3345.5C 1205.67,3344.51 1205.34,3343.84 1204.5,3343.5C 1204.5,3342.83 1204.17,3342.5 1203.5,3342.5C 1203.67,3341.51 1203.34,3340.84 1202.5,3340.5C 1202.5,3339.83 1202.17,3339.5 1201.5,3339.5C 1201.67,3338.51 1201.34,3337.84 1200.5,3337.5C 1200.67,3336.51 1200.34,3335.84 1199.5,3335.5C 1199.67,3334.51 1199.34,3333.84 1198.5,3333.5C 1198.5,3332.83 1198.17,3332.5 1197.5,3332.5C 1197.67,3331.51 1197.34,3330.84 1196.5,3330.5C 1196.67,3329.51 1196.34,3328.84 1195.5,3328.5C 1195.35,3327.45 1195.52,3326.45 1196,3325.5C 1226.73,3338.44 1257.56,3351.28 1288.5,3364C 1328.89,3375.69 1364.55,3367.52 1395.5,3339.5C 1396.17,3339.5 1396.5,3339.17 1396.5,3338.5C 1397.17,3338.5 1397.5,3338.17 1397.5,3337.5C 1398.17,3337.5 1398.5,3337.17 1398.5,3336.5C 1399.17,3336.5 1399.5,3336.17 1399.5,3335.5C 1400.17,3335.5 1400.5,3335.17 1400.5,3334.5C 1401.8,3332.86 1403.14,3331.19 1404.5,3329.5C 1405.17,3329.5 1405.5,3329.17 1405.5,3328.5C 1406.4,3327.71 1407.07,3326.71 1407.5,3325.5C 1408.17,3325.5 1408.5,3325.17 1408.5,3324.5C 1409.4,3323.71 1410.07,3322.71 1410.5,3321.5C 1411.34,3321.16 1411.67,3320.49 1411.5,3319.5C 1412.17,3319.5 1412.5,3319.17 1412.5,3318.5C 1413.34,3318.16 1413.67,3317.49 1413.5,3316.5C 1414.17,3316.5 1414.5,3316.17 1414.5,3315.5C 1415.34,3315.16 1415.67,3314.49 1415.5,3313.5C 1416.34,3313.16 1416.67,3312.49 1416.5,3311.5C 1417.34,3311.16 1417.67,3310.49 1417.5,3309.5C 1418.34,3309.16 1418.67,3308.49 1418.5,3307.5C 1419.34,3307.16 1419.67,3306.49 1419.5,3305.5C 1420.34,3305.16 1420.67,3304.49 1420.5,3303.5C 1421.4,3302.79 1421.74,3301.79 1421.5,3300.5C 1422.34,3300.16 1422.67,3299.49 1422.5,3298.5C 1423.4,3297.79 1423.74,3296.79 1423.5,3295.5C 1424.4,3294.79 1424.74,3293.79 1424.5,3292.5C 1425.43,3291.43 1425.77,3290.1 1425.5,3288.5C 1427.04,3286.16 1427.71,3283.5 1427.5,3280.5C 1429.02,3274.07 1429.69,3267.4 1429.5,3260.5C 1429.69,3253.6 1429.02,3246.93 1427.5,3240.5C 1427.78,3238.59 1427.45,3236.92 1426.5,3235.5C 1426.77,3233.9 1426.43,3232.57 1425.5,3231.5C 1425.74,3230.21 1425.4,3229.21 1424.5,3228.5C 1424.77,3226.9 1424.43,3225.57 1423.5,3224.5C 1423.67,3223.51 1423.34,3222.84 1422.5,3222.5C 1422.74,3221.21 1422.4,3220.21 1421.5,3219.5C 1421.67,3218.51 1421.34,3217.84 1420.5,3217.5C 1420.74,3216.21 1420.4,3215.21 1419.5,3214.5C 1419.67,3213.51 1419.34,3212.84 1418.5,3212.5C 1418.67,3211.51 1418.34,3210.84 1417.5,3210.5C 1417.67,3209.51 1417.34,3208.84 1416.5,3208.5C 1416.5,3207.83 1416.17,3207.5 1415.5,3207.5C 1415.67,3206.51 1415.34,3205.84 1414.5,3205.5C 1414.67,3204.51 1414.34,3203.84 1413.5,3203.5C 1413.67,3202.51 1413.34,3201.84 1412.5,3201.5C 1412.5,3200.83 1412.17,3200.5 1411.5,3200.5C 1411.67,3199.51 1411.34,3198.84 1410.5,3198.5C 1410.5,3197.83 1410.17,3197.5 1409.5,3197.5C 1409.07,3196.29 1408.4,3195.29 1407.5,3194.5C 1407.5,3193.83 1407.17,3193.5 1406.5,3193.5C 1406.07,3192.29 1405.4,3191.29 1404.5,3190.5C 1404.5,3189.83 1404.17,3189.5 1403.5,3189.5C 1395.88,3180.04 1386.88,3172.21 1376.5,3166C 1343.16,3150.89 1309.49,3136.55 1275.5,3123C 1333.35,3102.57 1385.02,3112.9 1430.5,3154C 1474.01,3201.15 1485.51,3255.32 1465,3316.5C 1441.33,3370.18 1400.5,3401.01 1342.5,3409C 1300.7,3412.45 1263.7,3400.95 1231.5,3374.5 Z"/></g>
<g><path style="opacity:0.999" fill="#025479" d="M 1698.5,3125.5 C 1729.32,3131.19 1760.32,3136.69 1791.5,3142C 1918.23,3162.27 2044.89,3182.77 2171.5,3203.5C 2168.94,3213.53 2165.6,3223.2 2161.5,3232.5C 1995.03,3205.59 1828.69,3178.59 1662.5,3151.5C 1674.22,3142.45 1686.22,3133.78 1698.5,3125.5 Z"/></g>
<g><path style="opacity:0.999" fill="#015980" d="M 1662.5,3151.5 C 1828.69,3178.59 1995.03,3205.59 2161.5,3232.5C 2157.05,3245.4 2152.05,3258.06 2146.5,3270.5C 1970.18,3240.95 1793.85,3211.95 1617.5,3183.5C 1632.5,3172.83 1647.5,3162.17 1662.5,3151.5 Z"/></g>
<g><path style="opacity:0.999" fill="#015c85" d="M 1617.5,3183.5 C 1793.85,3211.95 1970.18,3240.95 2146.5,3270.5C 2144.34,3276.15 2141.68,3281.48 2138.5,3286.5C 1957.87,3257.28 1777.2,3228.28 1596.5,3199.5C 1603.28,3193.94 1610.28,3188.6 1617.5,3183.5 Z"/></g>
<g><path style="opacity:1" fill="#015e88" d="M 1596.5,3199.5 C 1777.2,3228.28 1957.87,3257.28 2138.5,3286.5C 2136.34,3292.15 2133.67,3297.48 2130.5,3302.5C 1945.91,3273.24 1761.58,3243.24 1577.5,3212.5C 1583.58,3207.75 1589.91,3203.42 1596.5,3199.5 Z"/></g>
<g><path style="opacity:0.999" fill="#01618c" d="M 1577.5,3212.5 C 1761.58,3243.24 1945.91,3273.24 2130.5,3302.5C 2128.28,3307.93 2125.78,3313.27 2123,3318.5C 2119.98,3324.57 2116.48,3330.23 2112.5,3335.5C 1920.57,3304.9 1728.9,3273.57 1537.5,3241.5C 1550.8,3231.85 1564.13,3222.18 1577.5,3212.5 Z"/></g>
<g><path style="opacity:0.997" fill="#026f9f" d="M 899.5,3203.5 C 977.133,3235.61 1054.8,3267.94 1132.5,3300.5C 1134.61,3305.29 1135.95,3310.29 1136.5,3315.5C 1067.9,3304.13 999.235,3293.13 930.5,3282.5C 918.028,3257.1 907.695,3230.77 899.5,3203.5 Z"/></g>
<g><path style="opacity:0.999" fill="#016692" d="M 1537.5,3241.5 C 1728.9,3273.57 1920.57,3304.9 2112.5,3335.5C 2106.58,3347.01 2099.92,3358.01 2092.5,3368.5C 1902.38,3336.98 1712.05,3305.98 1521.5,3275.5C 1521.33,3267.83 1521.5,3260.16 1522,3252.5C 1527.05,3248.61 1532.21,3244.95 1537.5,3241.5 Z"/></g>
<g><path style="opacity:0.999" fill="#006997" d="M 1521.5,3275.5 C 1712.05,3305.98 1902.38,3336.98 2092.5,3368.5C 2088.64,3374.89 2084.31,3380.89 2079.5,3386.5C 1893.03,3355.75 1706.36,3325.42 1519.5,3295.5C 1520.17,3288.83 1520.83,3282.17 1521.5,3275.5 Z"/></g>
<g><path style="opacity:0.998" fill="#0073a5" d="M 930.5,3282.5 C 999.235,3293.13 1067.9,3304.13 1136.5,3315.5C 1142.29,3334.41 1150.29,3352.41 1160.5,3369.5C 1093.89,3359.34 1027.39,3348.67 961,3337.5C 960.617,3338.06 960.117,3338.39 959.5,3338.5C 948.8,3320.43 939.133,3301.77 930.5,3282.5 Z"/></g>
<g><path style="opacity:0.999" fill="#006b9a" d="M 1519.5,3295.5 C 1706.36,3325.42 1893.03,3355.75 2079.5,3386.5C 2073.26,3396.4 2066.26,3405.74 2058.5,3414.5C 1876.61,3384.52 1694.61,3355.18 1512.5,3326.5C 1512.5,3325.5 1512.5,3324.5 1512.5,3323.5C 1514.84,3314.15 1517.18,3304.82 1519.5,3295.5 Z"/></g>
<g><path style="opacity:0.999" fill="#006f9f" d="M 1512.5,3323.5 C 1512.5,3324.5 1512.5,3325.5 1512.5,3326.5C 1694.61,3355.18 1876.61,3384.52 2058.5,3414.5C 2046.95,3430.06 2034.28,3444.72 2020.5,3458.5C 1843.2,3430.45 1666.2,3401.45 1489.5,3371.5C 1498.83,3356.17 1506.5,3340.17 1512.5,3323.5 Z"/></g>
<g><path style="opacity:0.999" fill="#0078ab" d="M 1160.5,3369.5 C 1184.23,3405.07 1215.9,3430.9 1255.5,3447C 1326.15,3471.22 1390.82,3460.72 1449.5,3415.5C 1449.92,3416.22 1450.58,3416.72 1451.5,3417C 1626.49,3445.31 1801.49,3473.47 1976.5,3501.5C 1934.87,3538.76 1888.87,3569.76 1838.5,3594.5C 1579.41,3551.87 1320.08,3509.87 1060.5,3468.5C 1021.04,3429.55 987.377,3386.21 959.5,3338.5C 960.117,3338.39 960.617,3338.06 961,3337.5C 1027.39,3348.67 1093.89,3359.34 1160.5,3369.5 Z"/></g>
<g><path style="opacity:0.999" fill="#0073a5" d="M 1489.5,3371.5 C 1666.2,3401.45 1843.2,3430.45 2020.5,3458.5C 2006.52,3473.48 1991.86,3487.81 1976.5,3501.5C 1801.49,3473.47 1626.49,3445.31 1451.5,3417C 1450.58,3416.72 1449.92,3416.22 1449.5,3415.5C 1464.59,3402.41 1477.93,3387.74 1489.5,3371.5 Z"/></g>
<g><path style="opacity:0.996" fill="#007bb0" d="M 1060.5,3468.5 C 1320.08,3509.87 1579.41,3551.87 1838.5,3594.5C 1762.01,3634.05 1680.67,3657.55 1594.5,3665C 1399.76,3678.98 1229.76,3621.65 1084.5,3493C 1076.27,3484.94 1068.27,3476.77 1060.5,3468.5 Z"/></g>
</svg>
